<?xml version="1.0" encoding="utf-8" ?><svg xmlns="http://www.w3.org/2000/svg" xmlns:xlink="http://www.w3.org/1999/xlink" width="1024" height="1024" viewBox="0 0 1024 1024"><path fill="#F06137" d="M511.904 294.454C530.793 272.28 549.703 258.519 578.56 251.515C592.652 248.095 597.323 247.513 612.008 248.59C639.066 250.574 662.116 258.835 682.691 276.853C706.209 297.242 720.631 326.164 722.765 357.217C724.85 389.657 715.849 421.618 693.954 446.177C688.075 452.835 681.478 458.824 674.285 464.036C662.117 472.763 637.895 484.535 622.613 485.603C573.849 489.014 543.501 475.335 511.337 439.381C510.136 441.192 509.424 442.517 507.736 443.922C466.84 492.149 397.832 500.204 347.131 462.112C343.793 459.399 339.25 456.86 336.293 453.836C285.605 401.99 288.848 314.762 348.661 271.344C364.968 259.507 388.996 249.093 409.159 248.038C439.979 246.426 474.798 257.408 497.114 279.009C502.616 283.105 507.936 288.879 511.904 294.454ZM503.873 433.285C521.451 432.23 526.779 430.013 540.213 419.682C543.605 423.584 547.683 427.181 550.649 431.148C554.991 431.016 557.36 431.177 561.644 431.667C560.775 437.626 560.958 442.398 560.668 448.337C592.396 448.225 626.146 447.795 657.714 448.334C658.091 437.694 656.445 419.675 652.621 410.037C648.059 398.341 639.022 388.948 627.511 383.938C600.387 372.45 574.603 387.945 563.795 413.679C562.057 411.179 557.097 407.24 554.435 404.569C560.029 392.027 565.389 380.803 568.493 367.504L545.441 367.532C544.616 371.586 542.25 380.269 539.766 383.484C539.334 384.056 539.659 383.753 538.563 384.056C535.759 383.006 522.594 365.895 520.037 362.335C522.827 359.903 524.997 359.459 527.848 357.474C530.13 355.885 532.274 354.293 534.617 352.709C535.834 350.075 537.65 348.789 539.574 346.604C542.494 343.177 544.001 337.141 544.55 332.826C546.866 314.634 531.931 298.257 513.483 299.755C511.574 299.91 508.605 299.715 506.733 299.505C500.903 300.64 496.103 301.129 490.786 304.137C475.82 312.605 472.615 328.706 478.487 343.988C480.795 349.993 486.263 353.975 488.366 358.78C485.143 361.349 481.296 363.194 477.866 365.457C468.177 371.851 463.242 383.007 461.709 394.234C458.69 416.346 477.832 431.079 497.869 433.088C499.863 433.291 501.87 433.357 503.873 433.285ZM410.032 290.057C398.689 291.561 389.032 299.05 384.752 309.661C380.472 320.273 382.23 332.366 389.355 341.319C396.48 350.272 407.87 354.701 419.171 352.913C436.343 350.196 448.139 334.177 445.638 316.972C443.136 299.767 427.267 287.771 410.032 290.057ZM410.839 380.212C387.597 382.118 371.377 398.788 367.64 421.387C366.284 429.59 365.22 439.938 365.93 448.258C383.059 447.669 402.301 448.108 419.585 448.13C433.677 448.134 449.112 447.832 463.095 448.287C462.061 426.281 461.72 407.549 444.16 392.052C434.616 383.629 425.685 380.241 412.414 380.027C412.048 380.021 411.228 380.116 410.839 380.212ZM602.993 290.375C585.819 293.674 574.552 310.246 577.8 327.429C581.048 344.613 597.586 355.929 614.779 352.732C632.045 349.522 643.419 332.899 640.157 315.643C636.896 298.387 620.239 287.062 602.993 290.375Z"/><path fill="#F06137" d="M500.959 374.029C502.629 375.142 525.436 402.487 526.837 404.9C523.211 409.149 518.593 410.674 513.36 411.972C504.79 414.24 491.123 410.39 488.132 401.677C484.003 389.648 491.698 379.733 500.959 374.029Z"/><path fill="#F06137" d="M507.883 319.115C514.183 318.716 515.889 318.862 520.914 322.833C524.667 334.03 521.605 338.107 513.26 345.484L508.557 347.715C501.931 339.313 493.142 324.898 507.883 319.115Z"/><path fill="#7D59E6" d="M511.904 294.454C530.793 272.28 549.703 258.519 578.56 251.515C592.652 248.095 597.323 247.513 612.008 248.59C639.066 250.574 662.116 258.835 682.691 276.853C706.209 297.242 720.631 326.164 722.765 357.217C724.85 389.657 715.849 421.618 693.954 446.177C688.075 452.835 681.478 458.824 674.285 464.036C662.117 472.763 637.895 484.535 622.613 485.603C573.849 489.014 543.501 475.335 511.337 439.381C510.136 441.192 509.424 442.517 507.736 443.922C508.287 440.57 513.761 437.161 510.643 433.866C508.56 432.987 506.205 433.257 503.873 433.285C521.451 432.23 526.779 430.013 540.213 419.682C543.605 423.584 547.683 427.181 550.649 431.148C554.991 431.016 557.36 431.177 561.644 431.667C560.775 437.626 560.958 442.398 560.668 448.337C592.396 448.225 626.146 447.795 657.714 448.334C658.091 437.694 656.445 419.675 652.621 410.037C648.059 398.341 639.022 388.948 627.511 383.938C600.387 372.45 574.603 387.945 563.795 413.679C562.057 411.179 557.097 407.24 554.435 404.569C560.029 392.027 565.389 380.803 568.493 367.504L545.441 367.532C544.616 371.586 542.25 380.269 539.766 383.484C539.334 384.056 539.659 383.753 538.563 384.056C535.759 383.006 522.594 365.895 520.037 362.335C522.827 359.903 524.997 359.459 527.848 357.474C530.13 355.885 532.274 354.293 534.617 352.709C535.834 350.075 537.65 348.789 539.574 346.604C542.494 343.177 544.001 337.141 544.55 332.826C546.866 314.634 531.931 298.257 513.483 299.755C511.574 299.91 508.605 299.715 506.733 299.505C508.509 299.226 509.45 299.058 511.173 298.575L511.484 297.541C509.709 291.83 501.17 284.537 497.696 279.814L497.114 279.009C502.616 283.105 507.936 288.879 511.904 294.454ZM614.779 352.732C632.045 349.522 643.419 332.899 640.157 315.643C636.896 298.387 620.239 287.062 602.993 290.375C585.819 293.674 574.552 310.246 577.8 327.429C581.048 344.613 597.586 355.929 614.779 352.732Z"/><path fill="#F06137" d="M534.617 352.709C536.722 351.224 537.346 350.483 539.104 348.562C540.477 356.787 542.405 375.954 539.766 383.484C539.334 384.056 539.659 383.753 538.563 384.056C535.759 383.006 522.594 365.895 520.037 362.335C522.827 359.903 524.997 359.459 527.848 357.474C530.13 355.885 532.274 354.293 534.617 352.709Z"/><path fill="#F06137" d="M472.564 655.187C482.349 655.416 493.168 658.22 498.211 667.197C508.781 686.012 497.489 700.572 482.463 710.21C486.893 713.861 492.678 720.675 496.594 725.178C498.769 719.917 500.334 715.424 502.151 710.044C509.504 709.977 516.857 709.97 524.21 710.023C520.85 721.968 517.464 730.779 510.728 741.156C517.333 748.691 525.709 757.794 531.627 765.607C526.86 766.082 520.995 765.784 516.125 765.679C512.211 765.685 508.098 765.534 504.169 765.452C501.511 763.037 498.308 758.707 495.996 755.785C492.867 758.798 490.162 761.142 486.296 763.164C468.996 772.212 442.726 768.765 433.256 750.32C429.86 743.728 429.227 736.055 431.496 728.994C434.948 718.102 442.803 711.372 452.617 706.302C449.698 700.941 446.312 698.047 444.643 691.714C438.863 669.791 450.958 656.784 472.564 655.187ZM473.11 748C477.184 746.757 480.222 745.056 483.876 742.852C481.086 739.81 465.277 720.768 464.028 720.426C459.476 723.457 455.495 726.925 454.193 732.577C453.376 735.999 454.054 739.607 456.059 742.499C460.064 748.287 466.747 748.709 473.11 748ZM473.74 695.334C483.636 688.615 486.135 672.802 471.211 673.01C457.66 677.201 467.375 697.549 473.74 695.334Z"/><path fill="#F06137" d="M241.396 686.167C255.751 685.399 261.853 687.334 270.689 699.248C271.853 697.969 273.044 696.714 274.261 695.485C286.098 683.765 307.366 681.764 319.628 694.04C328.91 703.333 327.713 719.211 327.767 731.448C327.818 742.758 327.73 754.068 327.505 765.376C322.046 765.076 310.571 765.203 305.101 765.402C304.808 749.465 305.696 733.244 304.792 717.406C304.183 706.75 287.388 702.803 280.511 710.638C272.217 720.088 274.801 738.595 274.914 750.75L274.931 765.322C267.469 765.273 260.007 765.285 252.545 765.359C251.746 751.759 252.631 737.489 252.247 723.827C252.188 721.734 252.16 718.757 251.645 716.758C248.933 706.226 234.738 703.049 227.381 710.621C222.295 715.873 222.047 722.628 222.009 729.44C221.941 741.402 222.182 753.359 222.124 765.316C215.728 764.988 206.406 765.333 199.879 765.391C199.465 739.813 199.772 713.132 199.728 687.465C206.823 687.567 213.92 687.553 221.014 687.423L220.989 698.439C227.453 690.376 231.156 687.816 241.396 686.167Z"/><path fill="#7D59E6" d="M525.52 687.133C532.853 686.824 541.8 687.055 549.257 687.047C550.01 693.231 553.08 703.515 554.824 709.829L562.591 738.269C565.042 728.603 568.565 718.042 571.382 708.411C573.421 701.443 575.495 693.878 577.708 687.063C584.321 687.062 590.933 687.2 597.54 687.477C602.113 699.829 610.182 726.009 613.157 738.969C614.445 732.32 616.376 726.165 618.246 719.663C621.439 708.959 624.377 698.181 627.057 687.338C632.399 687.206 645.454 687.776 650.007 687.069C648.252 693.346 646.087 699.54 644.342 705.947C640.458 718.49 636.51 731.012 632.499 743.515C630.272 750.543 628.055 758.415 625.336 765.192C617.734 765.346 610.129 765.298 602.529 765.049C597.256 749.526 592.542 733.036 587.57 717.336C582.722 734.793 578.463 748.483 572.643 765.596C565.456 765.315 557.132 765.505 549.859 765.501C543.778 746.633 537.873 727.709 532.144 708.732C530.437 703.109 526.487 692.153 525.52 687.133Z"/><path fill="#7D59E6" d="M781.29 685.428C804.024 681.196 825.873 696.229 830.046 718.973C834.218 741.718 819.128 763.528 796.372 767.64C773.701 771.737 751.99 756.715 747.833 734.055C743.676 711.395 758.641 689.645 781.29 685.428ZM791.346 747.021C793.433 746.581 795.889 746.155 797.733 745.118C810.634 737.859 810.561 716.198 798.361 708.308C795.693 706.583 791.38 705.646 788.289 706.121C774.558 709.609 767.177 719.206 771.27 733.655C772.586 738.418 775.78 742.443 780.12 744.805C784.508 747.193 786.667 747.047 791.346 747.021Z"/><path fill="#7D59E6" d="M659.545 658.259C666.963 657.994 673.609 658.06 681.016 658.205C680.75 670.923 681.191 684.355 681.127 697.207C681.953 696.276 682.796 695.36 683.657 694.46C694.248 683.468 716.056 682.756 727.386 693.374C733.756 699.729 736.008 709.388 735.803 718.03C735.427 733.837 735.999 749.607 735.64 765.359C729.654 764.911 718.842 765.064 712.795 765.41C712.894 757.048 712.8 748.503 712.798 740.125C712.841 732.072 714.494 717.188 709.001 710.964C701.498 700.903 682.885 708.811 681.743 719.522C680.258 733.444 681.012 751.259 681.061 765.367C673.639 765.274 665.91 765.405 658.455 765.394C657.909 757.889 658.207 746.304 658.282 738.584C658.369 727.039 658.392 715.494 658.351 703.949L658.183 674.069C658.179 670.523 657.967 661.758 658.662 658.628L659.545 658.259Z"/><path fill="#F06137" d="M374.8 686.143C393.685 684.254 409.929 691.685 417.1 709.871C420.238 717.826 419.599 725.167 420.746 733.447C402.456 734.449 381.269 733.975 362.713 733.988C369.068 751.878 386.619 752.282 399.945 741.514C402.579 742.363 405.06 743.38 407.631 744.396C410.413 745.424 414.151 746.282 415.451 748.796C415.511 750.124 415.424 750.35 414.698 751.504C409.824 759.259 400.745 764.808 391.743 766.325C380.117 768.284 365.486 766.26 355.629 759.412C347.535 753.725 342.044 745.044 340.374 735.293C337.22 716.757 345.442 696.298 363.668 688.962C367.53 687.407 370.693 686.824 374.8 686.143ZM362.309 719.683L382.625 719.691L399.358 719.733C397.151 710.057 392.145 703.42 381.339 704.201C370.113 705.525 365.909 708.845 362.309 719.683Z"/></svg>