<svg xmlns="http://www.w3.org/2000/svg" viewBox="0 0 400 400"><defs><linearGradient id="gradient_0" gradientUnits="userSpaceOnUse" x1="740.69061" y1="319.18909" x2="737.78241" y2="316.71356"><stop offset="0" stop-color="#442310"/><stop offset="1" stop-color="#503835"/></linearGradient></defs><g transform="scale(2.0408)"><path fill="#4C7AA6" transform="scale(0.21875 0.21875)" d="M774.912 748.177C786.113 750.851 792.507 751.923 803.451 747.399L803.724 756.507L804.633 758.923C805.058 758.193 805.125 757.522 806.002 757.488C810.244 757.321 819.78 757.957 822.017 761.895C821.902 763.386 821.92 763.476 821.446 764.975L822.65 765.501C844.245 772.137 851.601 779.058 852.398 801.597C846.125 806.378 839.411 810.553 832.348 814.064L829.452 815.444C820.169 819.44 810.373 822.12 800.349 823.405C791.389 824.222 787.007 823.851 777.912 823.366C769.461 821.85 757.462 819.776 749.694 815.857L748.078 815.536C740.099 810.478 734.033 809.435 725.465 802.003C727.788 798.645 725.17 790.505 729.627 783.053C735.971 772.446 743.883 769.13 755.151 765.663L756.149 764.901L755.56 762.37C757.877 757.564 767.422 757.632 771.988 758.022C773.211 758.126 773.894 759.705 774.552 760.668C774.953 758.008 774.954 754.72 775.033 751.978L774.912 748.177Z"/>
<path fill="#4C7AA6" transform="scale(0.21875 0.21875)" d="M756.149 764.901L755.56 762.37C757.877 757.564 767.422 757.632 771.988 758.022C773.211 758.126 773.894 759.705 774.552 760.668C776.298 764.192 777.726 766.444 779.869 769.771L780.564 771.233C782.666 775.089 785.701 780.217 787.042 784.264C786.888 787.935 786.774 789.855 787.239 793.46C775.086 792.515 761.274 793.497 748.976 793.315C748.68 799.64 747.917 809.472 748.078 815.536C740.099 810.478 734.033 809.435 725.465 802.003C727.788 798.645 725.17 790.505 729.627 783.053C735.971 772.446 743.883 769.13 755.151 765.663L756.149 764.901Z"/>
<path fill="#4C7AA6" transform="scale(0.21875 0.21875)" d="M756.149 764.901L755.56 762.37C757.877 757.564 767.422 757.632 771.988 758.022C773.211 758.126 773.894 759.705 774.552 760.668C776.298 764.192 777.726 766.444 779.869 769.771C774.533 773.164 767.839 779.205 763.102 783.391C761.501 779.036 757.997 768.373 756.149 764.901Z"/>
<path fill="#2B5381" transform="scale(0.21875 0.21875)" d="M756.149 764.901C757.997 768.373 761.501 779.036 763.102 783.391C767.839 779.205 774.533 773.164 779.869 769.771L780.564 771.233C779.101 771.718 764.593 784.226 762.269 786.133C759.811 779.548 757.513 772.346 755.151 765.663L756.149 764.901Z"/>
<path fill="#2B5381" transform="scale(0.21875 0.21875)" d="M787.042 784.264L789.441 785.782L789.718 792.165C789.707 797.963 790.453 819.014 789.223 823.179L788.117 823.536C787.436 823.121 786.807 822.955 786.781 822.349C786.425 814.104 786.683 802.836 786.86 794.756L778.862 794.74C778.929 798.996 779.963 821.268 777.912 823.366C769.461 821.85 757.462 819.776 749.694 815.857L748.078 815.536C747.917 809.472 748.68 799.64 748.976 793.315C761.274 793.497 775.086 792.515 787.239 793.46C786.774 789.855 786.888 787.935 787.042 784.264Z"/>
<path fill="#4C7AA6" transform="scale(0.21875 0.21875)" d="M764.242 806.259C768.588 804.536 772.962 802.882 777.361 801.297C777.298 806.154 776.819 819.579 777.912 823.366C769.461 821.85 757.462 819.776 749.694 815.857C749.975 811.078 750.139 806.292 750.186 801.505L764.242 806.259Z"/>
<path fill="#4C7AA6" transform="scale(0.21875 0.21875)" d="M750.373 794.791C754.126 794.836 775.555 794.011 777.01 795.686C777.332 799.513 777.461 799.455 774.289 801.175L764.161 804.903C760.144 803.301 755.783 802.233 752.038 800.271C749.946 799.174 750.432 796.943 750.373 794.791Z"/>
<path fill="#4C7AA6" transform="scale(0.21875 0.21875)" d="M800.901 800.768C805.535 802.51 809.689 804.47 814.474 806.106C819.409 804.507 823.785 803.118 828.593 801.136C828.928 806.015 828.88 810.485 829.452 815.444C820.169 819.44 810.373 822.12 800.349 823.405C801.402 819.105 800.953 805.698 800.901 800.768Z"/>
<path fill="#2B5381" transform="scale(0.21875 0.21875)" d="M790.754 793.622C798.44 792.471 821.573 793.175 830.158 793.194C830.582 800.414 831.422 806.876 832.348 814.064L829.452 815.444C828.88 810.485 828.928 806.015 828.593 801.136C823.785 803.118 819.409 804.507 814.474 806.106C809.689 804.47 805.535 802.51 800.901 800.768C800.953 805.698 801.402 819.105 800.349 823.405C797.152 821.24 801.221 801.202 799.017 795.243C796.87 793.739 793.296 794.967 790.754 793.622Z"/>
<path fill="#4C7AA6" transform="scale(0.21875 0.21875)" d="M801.106 794.766C807.48 794.9 822.425 793.96 827.479 795.771C828.809 797.175 828.469 796.361 828.528 798.298C827.25 800.15 826.958 799.769 824.466 800.582C820.878 801.928 817.567 803.399 814.068 804.939C809.784 802.679 805.693 802.301 802.056 799.618C800.626 798.563 801.077 796.676 801.106 794.766Z"/>
<path fill="#4C7AA6" transform="scale(0.21875 0.21875)" d="M804.633 758.923C805.058 758.193 805.125 757.522 806.002 757.488C810.244 757.321 819.78 757.957 822.017 761.895C821.902 763.386 821.92 763.476 821.446 764.975C819.2 771.178 816.775 777.568 814.988 783.899C809.339 778.808 804.156 774.952 798.394 770.178C800.804 766.176 802.589 763.172 804.633 758.923Z"/>
<path fill="#2B5381" transform="scale(0.21875 0.21875)" d="M814.988 783.899C816.775 777.568 819.2 771.178 821.446 764.975L822.65 765.501C820.601 772.376 818.19 779.337 815.914 786.157L797.573 771.685L798.394 770.178C804.156 774.952 809.339 778.808 814.988 783.899Z"/>
<path fill="#15498D" transform="scale(0.21875 0.21875)" d="M711.751 649.79C712.332 651.678 713.518 654.541 712.434 656.135C706.935 664.219 704.269 665.921 710.428 675.72C708.074 679.259 707.321 680.619 706.264 684.891C707.677 691.054 708.227 692.632 713.21 697.039C708.788 711.24 716.763 708.441 719.96 713.943C725.203 722.966 717.056 724.189 732.462 729.151C735.49 737.224 739.498 739.003 747.832 738.368C755.168 747.843 758.873 749.864 770.828 746.135C772.052 746.819 773.623 747.785 774.912 748.177L775.033 751.978C774.954 754.72 774.953 758.008 774.552 760.668C773.894 759.705 773.211 758.126 771.988 758.022C767.422 757.632 757.877 757.564 755.56 762.37L756.149 764.901L755.151 765.663C743.883 769.13 735.971 772.446 729.627 783.053C725.17 790.505 727.788 798.645 725.465 802.003C680.462 766.536 669.759 705.438 705.155 657.898C707 655.419 709.641 652.946 711.277 650.51L711.751 649.79Z"/>
<path fill="#15498D" transform="scale(0.21875 0.21875)" d="M865.867 697.169C871.104 692.125 874.398 687.032 870.334 680.746C867.4 675.927 870.48 673.947 871.687 669.911C874.288 661.209 863.549 661.32 866.529 652.82C884.823 673.399 894.106 698.544 892.359 726.151C890.654 753.833 877.906 779.671 856.976 797.865C855.492 799.16 853.965 800.404 852.398 801.597C851.601 779.058 844.245 772.137 822.65 765.501L821.446 764.975C821.92 763.476 821.902 763.386 822.017 761.895C819.78 757.957 810.244 757.321 806.002 757.488C805.125 757.522 805.058 758.193 804.633 758.923L803.724 756.507L803.451 747.399C804.282 747.227 806.031 746.646 806.919 746.378C808.785 746.245 810.98 746.943 812.879 747.298C822.105 749.024 825.175 744.751 831.159 738.729C840.411 738.569 842.078 737.087 846.382 728.928C850.059 728.099 856.374 725.638 856.52 721.184C857.003 706.475 870.049 714.633 865.867 697.169Z"/>
<path fill="#15498D" transform="scale(0.21875 0.21875)" d="M500.852 459.559C491.181 451.991 484.176 445.533 476.921 435.441C461.057 413.169 454.745 385.483 459.387 358.535C467.886 306.734 517.269 268.906 569.35 272.923C576.099 273.444 582.005 274.318 588.712 275.443C587.465 278.516 586.767 280.28 585.933 283.478C583.673 284.965 583.443 285.302 581.854 287.513C566.402 282.904 548.836 282.612 534.349 290.464C524.334 295.949 516.933 305.216 513.797 316.196C510.759 326.586 510.899 343.123 514.626 353.261C508.527 359.355 508.756 364.065 514.241 370.592L514.072 370.907L514.755 372.113C517.4 372.213 520.305 373.629 522.81 374.649C523.69 377.31 524.638 379.948 525.653 382.561L526.378 384.144C531.585 392.288 537.765 401.041 547.49 404.317C559.273 407.934 564.766 408.386 576.897 404.528C576.912 407.468 577.072 411.66 576.938 414.495C577.008 415.852 576.961 418.133 577.535 419.26C581.686 416.438 583.618 418.567 588.008 420.545C605.299 424.309 622.028 430.438 624.095 450.545C624.365 453.17 624.232 455.987 624.52 458.555C618.553 463.221 610.721 468.027 603.69 470.945L599.746 472.705C588.356 477.01 581.417 478.287 569.3 479.781L556.697 479.842C544.266 478.664 537.803 477.275 525.991 473.217L522.021 471.571C514.518 468.412 507.413 464.38 500.852 459.559Z"/>
<path fill="#F87145" transform="scale(0.21875 0.21875)" d="M547.49 404.317C559.273 407.934 564.766 408.386 576.897 404.528C576.912 407.468 577.072 411.66 576.938 414.495C577.008 415.852 576.961 418.133 577.535 419.26C581.686 416.438 583.618 418.567 588.008 420.545C605.299 424.309 622.028 430.438 624.095 450.545C624.365 453.17 624.232 455.987 624.52 458.555C618.553 463.221 610.721 468.027 603.69 470.945L599.746 472.705C588.356 477.01 581.417 478.287 569.3 479.781L556.697 479.842C544.266 478.664 537.803 477.275 525.991 473.217L522.021 471.571C514.518 468.412 507.413 464.38 500.852 459.559C500.974 451.906 500.722 445.295 504.857 438.501C512.033 426.712 524.177 423.775 536.495 420.668C540.9 418.979 542.756 417.052 547.074 419.41C547.743 416.882 547.6 413.708 547.632 411.03C547.441 409.699 547.505 405.849 547.49 404.317Z"/>
<path fill="#F87145" transform="scale(0.21875 0.21875)" d="M588.008 420.545C605.299 424.309 622.028 430.438 624.095 450.545C624.365 453.17 624.232 455.987 624.52 458.555C618.553 463.221 610.721 468.027 603.69 470.945L599.746 472.705C588.356 477.01 581.417 478.287 569.3 479.781C568.61 472.812 569.138 452.317 569.114 444.341C574.658 436.724 581.93 427.721 588.008 420.545Z"/>
<path fill="#15498D" transform="scale(0.21875 0.21875)" d="M599.746 472.705C599.668 465.863 599.694 459.02 599.826 452.178C601.049 458.472 602.229 464.701 603.69 470.945L599.746 472.705Z"/>
<path fill="#E5E5E5" transform="scale(0.21875 0.21875)" d="M547.49 404.317C559.273 407.934 564.766 408.386 576.897 404.528C576.912 407.468 577.072 411.66 576.938 414.495C577.008 415.852 576.961 418.133 577.535 419.26C581.686 416.438 583.618 418.567 588.008 420.545C581.93 427.721 574.658 436.724 569.114 444.341C569.138 452.317 568.61 472.812 569.3 479.781L556.697 479.842C556.531 468.198 556.54 456.553 556.723 444.909C550.731 437.185 542.909 428.073 536.495 420.668C540.9 418.979 542.756 417.052 547.074 419.41C547.743 416.882 547.6 413.708 547.632 411.03C547.441 409.699 547.505 405.849 547.49 404.317Z"/>
<path fill="#4C7AA6" transform="scale(0.21875 0.21875)" d="M562.753 442.308C563.656 441.971 564.671 442.154 565.4 442.784C566.129 443.414 566.458 444.391 566.256 445.334C566.054 446.276 565.355 447.034 564.432 447.31C563.068 447.719 561.625 446.972 561.172 445.622C560.719 444.271 561.419 442.805 562.753 442.308Z"/>
<path fill="#4C7AA6" transform="scale(0.21875 0.21875)" d="M562.559 463.262C563.429 462.881 564.437 463.008 565.186 463.591C565.936 464.174 566.306 465.121 566.15 466.057C565.995 466.994 565.339 467.771 564.442 468.081C563.128 468.535 561.691 467.871 561.185 466.576C560.679 465.282 561.286 463.819 562.559 463.262Z"/>
<path fill="#4C7AA6" transform="scale(0.21875 0.21875)" d="M562.338 453.103C563.154 452.603 564.179 452.595 565.002 453.083C565.825 453.571 566.31 454.474 566.263 455.43C566.215 456.385 565.643 457.236 564.775 457.64C563.536 458.217 562.062 457.727 561.415 456.522C560.768 455.318 561.173 453.818 562.338 453.103Z"/>
<path fill="#15498D" transform="scale(0.21875 0.21875)" d="M525.635 452.624C525.834 459.448 525.729 466.502 525.991 473.217L522.021 471.571C523.277 465.265 524.482 458.949 525.635 452.624Z"/>
<path fill="#F87145" transform="scale(0.21875 0.21875)" d="M516.094 387.379L521.201 387.614C522.403 392.258 524.636 406.561 518.534 408.474C512.574 405.94 515.356 392.731 516.094 387.379Z"/>
<path fill="#15498D" transform="scale(0.21875 0.21875)" d="M514.755 372.113C517.4 372.213 520.305 373.629 522.81 374.649C523.69 377.31 524.638 379.948 525.653 382.561C516.89 389.538 506.592 382.444 514.755 372.113Z"/>
<path fill="#15498D" transform="scale(0.21875 0.21875)" d="M588.712 275.443C593.789 267.679 600.647 263.106 609.637 261.157C629.395 256.873 646.49 270.205 649.942 289.592C651.786 299.95 650.674 309.001 648.404 319.12C664.11 344.349 670.025 369.973 663.217 399.486C657.889 423.209 644.14 444.196 624.52 458.555C624.232 455.987 624.365 453.17 624.095 450.545C622.028 430.438 605.299 424.309 588.008 420.545C583.618 418.567 581.686 416.438 577.535 419.26C576.961 418.133 577.008 415.852 576.938 414.495C577.072 411.66 576.912 407.468 576.897 404.528C582.881 401.847 589.521 397.441 593.342 392.002C594.695 390.075 596.869 386.412 598.339 384.906L601.892 386.394L602.129 385.699C600.973 384.712 600.619 384.377 599.609 383.246C599.051 380.029 600.755 377.306 602.092 374.136C604.106 373.341 606.49 372.727 608.916 371.755L609.261 370.844C616.895 366.489 615.442 358.386 609.623 353.088C614.069 339.274 613.65 318.607 605.968 306.18C604.469 303.756 601.272 300.407 599.334 298.094L600.983 294.581C596.848 288.752 592.554 285.786 585.933 283.478C586.767 280.28 587.465 278.516 588.712 275.443Z"/>
<path fill="#F87145" transform="scale(0.21875 0.21875)" d="M603.165 387.6L608.025 387.521C608.944 392.475 611.6 407.068 604.949 408.236C599.09 405.814 601.866 392.514 603.165 387.6Z"/>
<path fill="#2B5381" transform="scale(0.21875 0.21875)" d="M602.092 374.136C604.106 373.341 606.49 372.727 608.916 371.755C612.03 375.281 614.935 379.528 610.617 383.337C607.146 386.398 605.557 384.493 602.129 385.699C600.973 384.712 600.619 384.377 599.609 383.246C599.051 380.029 600.755 377.306 602.092 374.136Z"/>
<path fill="#F87145" transform="scale(0.21875 0.21875)" d="M558.021 373.597C559.676 373.141 563.785 373.703 566.743 373.173L567.554 373.537C564.257 377.247 561.376 377.324 558.021 373.597Z"/>
<path fill="#15498D" transform="scale(0.21875 0.21875)" d="M588.558 898.575C593.636 890.82 600.484 885.854 609.662 883.995C618.308 882.163 627.328 883.866 634.711 888.726C652.615 900.69 653.077 922.789 648.653 941.738L648.846 942.162C650.03 944.701 651.518 947.265 652.949 949.685C667.622 974.495 669.733 1006.39 659.955 1033.6C653.184 1052.04 641.289 1068.17 625.669 1080.08C620.035 1084.49 612.439 1089.4 605.845 1092.37L605.104 1092.52C598.477 1096.63 583.745 1100.13 576.011 1101.21L575.329 1101.51C572.917 1102.51 553.812 1102.3 550.754 1101.74C540.125 1100.04 531.976 1098.23 522.039 1093.92L518.988 1092.57C513.565 1090.08 504.307 1084.84 499.904 1081.05C490.114 1073.86 481.648 1065.03 474.885 1054.94C459.93 1032.43 454.559 1004.89 459.96 978.406C465.204 951.801 482.025 927.888 504.584 913.108C530.993 895.805 558.21 892.528 588.558 898.575Z"/>
<path fill="#15498D" transform="scale(0.21875 0.21875)" d="M588.558 898.575C593.636 890.82 600.484 885.854 609.662 883.995C618.308 882.163 627.328 883.866 634.711 888.726C652.615 900.69 653.077 922.789 648.653 941.738L648.846 942.162C650.03 944.701 651.518 947.265 652.949 949.685C667.622 974.495 669.733 1006.39 659.955 1033.6C653.184 1052.04 641.289 1068.17 625.669 1080.08C620.035 1084.49 612.439 1089.4 605.845 1092.37L605.104 1092.52C598.477 1096.63 583.745 1100.13 576.011 1101.21L575.329 1101.51C572.917 1102.51 553.812 1102.3 550.754 1101.74C550.996 1101.44 551.238 1101.14 551.48 1100.84C551.86 1089.2 551.632 1059.9 551.612 1050.26L551.841 1049.45L554.039 1048.8C560.468 1051.38 564.496 1051.18 570.781 1048.39C573.373 1045.04 574.438 1043.37 576.515 1039.68L576.744 1035.68L576.665 1027.95C592.24 1021.9 599.217 1010.45 602.675 994.838C613.801 991.87 618.578 984.091 609.977 974.761C611.45 969.423 611.89 963.468 612.352 957.946C613.437 952.265 614.305 942.475 609.676 938.177C606.702 931.032 604.825 927.31 599.473 921.776L601.199 918.07C597.91 912.009 592.072 908.692 585.782 906.557C586.596 904.755 587.868 900.612 588.558 898.575Z"/>
<path fill="#4C7AA6" transform="scale(0.21875 0.21875)" d="M579.72 1034.77C584.792 1035.66 592.634 1035.86 596.067 1038.55C597.029 1040.7 596.589 1040.91 596.262 1043.48L597.052 1044.93C605.546 1046.33 614.138 1050.69 619.303 1057.72C625.809 1066.59 624 1071.83 625.669 1080.08C620.035 1084.49 612.439 1089.4 605.845 1092.37L605.104 1092.52C598.477 1096.63 583.745 1100.13 576.011 1101.21L575.329 1101.51C572.917 1102.51 553.812 1102.3 550.754 1101.74C550.996 1101.44 551.238 1101.14 551.48 1100.84C551.86 1089.2 551.632 1059.9 551.612 1050.26L551.841 1049.45L554.039 1048.8C560.468 1051.38 564.496 1051.18 570.781 1048.39C573.373 1045.04 574.438 1043.37 576.515 1039.68L579.72 1034.77Z"/>
<path fill="#E5E5E5" transform="scale(0.21875 0.21875)" d="M570.781 1048.39L572.443 1049.31L573.186 1050.15L573.292 1092.14C573.149 1095 572.76 1098.23 573.528 1100.9C574.545 1101.42 574.18 1101.3 575.329 1101.51C572.917 1102.51 553.812 1102.3 550.754 1101.74C550.996 1101.44 551.238 1101.14 551.48 1100.84C551.86 1089.2 551.632 1059.9 551.612 1050.26L551.841 1049.45L554.039 1048.8C560.468 1051.38 564.496 1051.18 570.781 1048.39Z"/>
<path fill="#4C7AA6" transform="scale(0.21875 0.21875)" d="M589.623 1084.49C594.599 1082.65 598.869 1081.14 603.954 1079.6C603.902 1082.93 603.248 1090.34 605.104 1092.52C598.477 1096.63 583.745 1100.13 576.011 1101.21C576.541 1096.51 575.967 1084.91 575.973 1079.36C580.325 1081.31 585.108 1082.89 589.623 1084.49Z"/>
<path fill="#2B5381" transform="scale(0.21875 0.21875)" d="M573.849 1071.06C584.45 1070.97 595.051 1070.94 605.651 1070.97C605.73 1077.07 606.155 1086.53 605.845 1092.37L605.104 1092.52C603.248 1090.34 603.902 1082.93 603.954 1079.6C598.869 1081.14 594.599 1082.65 589.623 1084.49C585.108 1082.89 580.325 1081.31 575.973 1079.36C575.967 1084.91 576.541 1096.51 576.011 1101.21L575.329 1101.51C574.18 1101.3 574.545 1101.42 573.528 1100.9C572.76 1098.23 573.149 1095 573.292 1092.14C574.389 1088.07 573.934 1075.68 573.849 1071.06Z"/>
<path fill="#4C7AA6" transform="scale(0.21875 0.21875)" d="M576.864 1072.73C582.101 1072.74 599.021 1072.25 603.094 1072.95C603.846 1074.58 603.625 1075.32 603.516 1077.19C602.673 1078.26 601.411 1078.36 600.013 1078.73C596.554 1079.8 592.945 1081.45 589.593 1082.89C585.111 1080.77 580.693 1080.19 577.211 1077.64C576.143 1075.43 576.573 1075.4 576.864 1072.73Z"/>
<path fill="#4C7AA6" transform="scale(0.21875 0.21875)" d="M579.72 1034.77C584.792 1035.66 592.634 1035.86 596.067 1038.55C597.029 1040.7 596.589 1040.91 596.262 1043.48C594.066 1049.07 591.745 1056.38 590.086 1062.21C586.8 1059.23 576.019 1048.82 572.443 1049.31L570.781 1048.39C573.373 1045.04 574.438 1043.37 576.515 1039.68L579.72 1034.77Z"/>
<path fill="#2B5381" transform="scale(0.21875 0.21875)" d="M596.262 1043.48L597.052 1044.93L591.177 1065.61C587.377 1061.93 577.571 1052.75 573.186 1050.15L572.443 1049.31C576.019 1048.82 586.8 1059.23 590.086 1062.21C591.745 1056.38 594.066 1049.07 596.262 1043.48Z"/>
<path fill="#F87145" transform="scale(0.21875 0.21875)" d="M513.788 938.089C545.136 937.153 578.464 939.049 609.676 938.177C614.305 942.475 613.437 952.265 612.352 957.946C608.02 958.54 604.416 958.387 600.078 958.32C574.816 958.491 549.553 958.49 524.29 958.319C520.159 958.332 516.028 958.32 511.898 958.283C509.972 953.53 510.664 942.229 513.788 938.089Z"/>
<path fill="#4C7AA6" transform="scale(0.21875 0.21875)" d="M528.603 1037.72C533.07 1036.62 538.801 1035.28 543.393 1035.12C545.653 1035.05 545.735 1035.63 547.129 1037.03C548.411 1039.07 553.71 1047.12 554.039 1048.8L551.841 1049.45L551.612 1050.26C551.632 1059.9 551.86 1089.2 551.48 1100.84C551.238 1101.14 550.996 1101.44 550.754 1101.74C540.125 1100.04 531.976 1098.23 522.039 1093.92L518.988 1092.57C513.565 1090.08 504.307 1084.84 499.904 1081.05C501.528 1077.92 499.836 1069.01 503.329 1062.52C509.062 1051.88 517.612 1048.59 528.287 1044.8L530.249 1044.51C529.509 1042.53 529.048 1039.84 528.603 1037.72Z"/>
<path fill="#4C7AA6" transform="scale(0.21875 0.21875)" d="M528.603 1037.72C533.07 1036.62 538.801 1035.28 543.393 1035.12C545.653 1035.05 545.735 1035.63 547.129 1037.03C548.411 1039.07 553.71 1047.12 554.039 1048.8L551.841 1049.45C548.967 1049.76 538.465 1059.7 535.422 1062.38L530.249 1044.51C529.509 1042.53 529.048 1039.84 528.603 1037.72Z"/>
<path fill="#2B5381" transform="scale(0.21875 0.21875)" d="M521.934 1074.89C521.937 1072.74 521.556 1072.84 522.632 1071.7C531.855 1070.69 541.941 1071.71 551.096 1071.21L551.162 1079.17C546.976 1080.79 541.507 1082.75 537.539 1084.56C533.003 1082.97 527.469 1081.18 523.075 1079.44L522.246 1078.9L521.934 1074.89Z"/>
<path fill="#4C7AA6" transform="scale(0.21875 0.21875)" d="M523.119 1072.69C527.962 1072.67 546.12 1072.31 549.498 1073.06C550.398 1074.52 550.188 1075.45 550.152 1077.17C548.903 1078.71 548.587 1078.45 546.446 1079.31C543.667 1080.18 540.439 1081.78 537.742 1083.03C533.306 1081.4 527.444 1080.59 523.954 1077.82C522.718 1076.84 523.106 1074.41 523.119 1072.69Z"/>
<path fill="#2B5381" transform="scale(0.21875 0.21875)" d="M530.249 1044.51L535.422 1062.38C538.465 1059.7 548.967 1049.76 551.841 1049.45L551.612 1050.26C546.142 1055.2 540.082 1060.22 534.463 1065.02C532.537 1058.53 530.515 1051.13 528.287 1044.8L530.249 1044.51Z"/>
<path fill="#2B5381" transform="scale(0.21875 0.21875)" d="M521.934 1074.89L522.246 1078.9L523.075 1079.44C521.721 1083.47 523.575 1090.18 522.039 1093.92L518.988 1092.57C520.188 1086.4 521.11 1081.11 521.934 1074.89Z"/>
<path fill="#15498D" transform="scale(0.21875 0.21875)" d="M725.956 194.606C719.246 189.54 713.123 183.74 707.702 177.312C690.281 156.214 681.981 129.046 684.638 101.813C687.087 74.982 700.193 50.2536 721.02 33.1633C742.773 14.9884 770.955 6.39098 799.148 9.32882C826.449 11.9646 851.572 25.3794 868.95 46.6009C886.435 67.9527 894.671 95.403 891.828 122.855C888.827 151.406 874.917 175.338 852.804 193.318C846.464 198.356 839.6 202.695 832.33 206.261L829.775 207.513C819.494 212.254 811.362 213.645 800.416 215.605L799.21 215.435C795.119 215.983 793.327 216.04 789.178 215.964L787.014 216.241C785.217 215.867 780.811 215.579 778.792 215.393L777.383 215.54C768.184 213.562 757.262 212.046 748.794 207.682L748.021 207.479C740.336 204.118 732.563 199.777 725.956 194.606Z"/>
<path fill="#4C7AA6" transform="scale(0.21875 0.21875)" d="M774.393 139.012C785.468 142.62 792.319 143.517 803.615 138.99C803.63 141.907 803.477 145.788 804.152 148.52L804.772 149.66C807.559 147.911 818.992 150.722 821.902 152.75C822.792 154.346 822.407 154.334 822.186 156.582L822.888 157.274C833.615 160.07 842.719 164.616 848.831 174.218C853.545 181.624 851.241 189.393 852.804 193.318C846.464 198.356 839.6 202.695 832.33 206.261L829.775 207.513C819.494 212.254 811.362 213.645 800.416 215.605L799.21 215.435C795.119 215.983 793.327 216.04 789.178 215.964L787.014 216.241C785.217 215.867 780.811 215.579 778.792 215.393L777.383 215.54C768.184 213.562 757.262 212.046 748.794 207.682L748.021 207.479C747.88 201.77 748.966 192.003 749.218 185.585C753.828 185.65 783.314 185.945 786.708 185.224L787.238 184.12L787.459 177.251C786.075 173.499 782.399 166.383 780.523 162.509L780.001 161.564C778.067 158.357 775.169 153.935 773.959 150.528C774.588 148.367 774.436 145.65 774.454 143.34L774.393 139.012Z"/>
<path fill="#2B5381" transform="scale(0.21875 0.21875)" d="M787.459 177.251L789.185 177.582L789.762 177.039C789.539 180.152 789.427 182.425 789.474 185.539L830.107 185.528C830.145 192.334 831.344 199.492 832.33 206.261L829.775 207.513C819.494 212.254 811.362 213.645 800.416 215.605L799.21 215.435C795.119 215.983 793.327 216.04 789.178 215.964L787.014 216.241C785.217 215.867 780.811 215.579 778.792 215.393L777.383 215.54C768.184 213.562 757.262 212.046 748.794 207.682L748.021 207.479C747.88 201.77 748.966 192.003 749.218 185.585C753.828 185.65 783.314 185.945 786.708 185.224L787.238 184.12L787.459 177.251Z"/>
<path fill="#4C7AA6" transform="scale(0.21875 0.21875)" d="M813.925 198.843C818.716 197.211 824.123 195.028 828.911 193.218C829.069 198.232 829.173 202.518 829.775 207.513C819.494 212.254 811.362 213.645 800.416 215.605C800.348 208.217 800.384 200.829 800.523 193.443C805.628 195.202 809.002 196.656 813.925 198.843Z"/>
<path fill="#4C7AA6" transform="scale(0.21875 0.21875)" d="M749.944 193.845C755.144 195.494 758.982 196.907 764.035 198.962C768.143 197.348 773.046 195.27 777.183 193.929L777.383 215.54C768.184 213.562 757.262 212.046 748.794 207.682C750.476 205.321 749.959 197.39 749.944 193.845Z"/>
<path fill="#4C7AA6" transform="scale(0.21875 0.21875)" d="M789.502 186.379L799.303 187.02C799.003 195.928 799.219 206.419 799.21 215.435C795.119 215.983 793.327 216.04 789.178 215.964C789.983 207.407 789.311 195.467 789.502 186.379Z"/>
<path fill="#4C7AA6" transform="scale(0.21875 0.21875)" d="M778.885 186.989L787.341 186.821C787.204 196.438 786.812 206.7 787.014 216.241C785.217 215.867 780.811 215.579 778.792 215.393C779.01 205.927 779.041 196.457 778.885 186.989Z"/>
<path fill="#384861" transform="scale(0.21875 0.21875)" d="M787.459 177.251L789.185 177.582C789.127 179.338 789.187 183.755 788.488 185.051C787.443 184.764 787.87 185.06 787.238 184.12L787.459 177.251Z"/>
<path fill="#4C7AA6" transform="scale(0.21875 0.21875)" d="M808.124 187.023C812.572 186.875 825.787 186.096 828.287 189.677L827.751 191.079C825.777 193.096 823.264 193.55 820.491 194.434C818.182 195.444 815.95 196.132 813.563 196.918C809.259 195.135 802.718 193.51 800.209 189.706C800.435 186.357 805.555 186.99 808.124 187.023Z"/>
<path fill="#4C7AA6" transform="scale(0.21875 0.21875)" d="M750.871 187.305C756.387 187.38 771.401 186.436 776.029 187.458C776.931 188.724 776.626 189.096 776.732 190.971C775.673 192.819 775.205 192.579 772.994 193.611C769.927 194.702 767.065 196.079 764.108 197.437C761.24 196.005 758.75 195.417 755.701 194.535C750.491 193.027 750.789 191.775 750.871 187.305Z"/>
<path fill="#4C7AA6" transform="scale(0.21875 0.21875)" d="M804.772 149.66C807.559 147.911 818.992 150.722 821.902 152.75C822.792 154.346 822.407 154.334 822.186 156.582C820.185 160.035 816.461 171.351 815.078 175.467C809.864 170.631 802.669 165.721 798.402 161.563C800.775 157.51 803.245 154.105 804.772 149.66Z"/>
<path fill="#2B5381" transform="scale(0.21875 0.21875)" d="M822.186 156.582L822.888 157.274C821.168 164.035 818.334 170.974 816.148 177.707C809.8 172.994 803.657 168.013 797.735 162.776L798.402 161.563C802.669 165.721 809.864 170.631 815.078 175.467C816.461 171.351 820.185 160.035 822.186 156.582Z"/>
<path fill="#4C7AA6" transform="scale(0.21875 0.21875)" d="M756.359 157.369C755.733 155.357 755.321 154.651 755.634 152.645C758.379 150.565 764.939 149.992 768.51 149.499C771.694 149.059 771.903 148.923 773.959 150.528C775.169 153.935 778.067 158.357 780.001 161.564L780.523 162.509C782.399 166.383 786.075 173.499 787.459 177.251L787.238 184.12L786.708 185.224C783.314 185.945 753.828 185.65 749.218 185.585C748.966 192.003 747.88 201.77 748.021 207.479C740.336 204.118 732.563 199.777 725.956 194.606C727.518 188.334 725.085 183.408 729.794 175.184C735.611 165.026 744.243 161.139 755.023 157.96L756.359 157.369Z"/>
<path fill="#4C7AA6" transform="scale(0.21875 0.21875)" d="M756.359 157.369C755.733 155.357 755.321 154.651 755.634 152.645C758.379 150.565 764.939 149.992 768.51 149.499C771.694 149.059 771.903 148.923 773.959 150.528C775.169 153.935 778.067 158.357 780.001 161.564C775.108 164.677 767.378 171.542 763.049 175.452L756.359 157.369Z"/>
<path fill="#2B5381" transform="scale(0.21875 0.21875)" d="M756.359 157.369L763.049 175.452C767.378 171.542 775.108 164.677 780.001 161.564L780.523 162.509C774.461 167.102 768.891 172.775 762.14 177.799C759.693 171.567 756.977 164.314 755.023 157.96L756.359 157.369Z"/>
<path fill="#15498D" transform="scale(0.21875 0.21875)" d="M273.699 195.292C250.706 177.904 236.246 154.836 232.267 126.031C228.431 99.3275 235.401 72.1959 251.633 50.6483C268.311 28.3413 293.201 13.6138 320.781 9.73402C348.771 5.86619 377.138 13.4472 399.468 30.7627C421 47.21 435.1 71.5539 438.651 98.4171C442.253 125.558 434.925 153.018 418.278 174.755C411.8 183.148 405.763 188.489 397.541 194.885C397.225 182.948 397.412 180.147 390.571 170.187C393.186 165.678 394.676 161.531 395.414 156.353C396.742 147.026 395.961 136.817 395.941 127.379C395.896 106.63 397.715 83.645 392.325 63.4532C388.481 49.0524 379.362 35.5882 366.212 28.1925C361.95 25.7954 357.145 23.9409 352.323 23.0763C345.572 21.866 320.769 22.2555 314.165 24.1226C301.182 27.7934 290.861 37.17 284.367 48.8164C280.365 55.9924 277.961 63.8524 276.701 71.9497C274.578 85.5803 273.318 151.993 276.862 163.976C277.567 166.362 278.548 168.82 279.738 171.009C273.594 180.548 273.992 183.96 273.699 195.292Z"/>
<path fill="#F87145" transform="scale(0.21875 0.21875)" d="M320.732 139.28C332.354 143.303 338.334 143.036 350.109 139.27C350.105 142.307 350.217 146.249 350.033 149.207C350.052 151.64 349.602 152.287 350.904 153.799L354.093 154.327C356.448 154.708 358.423 155.053 360.76 155.581C373.125 158.712 381.266 160.697 390.571 170.187C397.412 180.147 397.225 182.948 397.541 194.885C391.085 199.538 383.969 204.065 376.647 207.224L372.677 208.92C350.606 219.555 321.219 217.054 298.775 209.183L294.958 207.532C286.882 204.042 280.836 200.288 273.699 195.292C273.992 183.96 273.594 180.548 279.738 171.009C288.936 160.965 296.195 159.339 308.913 155.96C311.648 155.297 314.756 154.784 317.549 154.263L320.96 153.776C320.28 150.28 320.624 143.079 320.732 139.28Z"/>
<path fill="#15498D" transform="scale(0.21875 0.21875)" d="M298.278 188.368C298.712 195.443 298.561 202.169 298.775 209.183L294.958 207.532L298.278 188.368Z"/>
<path fill="#15498D" transform="scale(0.21875 0.21875)" d="M374.71 196.883C375.263 200.136 375.831 204.094 376.647 207.224L372.677 208.92L372.848 198.012L374.71 196.883Z"/>
<path fill="#384861" transform="scale(0.21875 0.21875)" d="M372.848 198.012C372.749 194.773 372.989 192.329 373.272 189.093L374.71 196.883L372.848 198.012Z"/>
<path fill="#F87145" transform="scale(0.21875 0.21875)" d="M331.413 108.114C330.772 108.327 338.115 107.758 341.014 107.056C339.039 112.031 334.436 112.209 331.413 108.114Z"/>
<path fill="#15498D" transform="scale(0.21875 0.21875)" d="M273.545 459.408C237.69 432.761 222.907 386.158 236.845 343.713C250.783 301.268 290.315 272.504 334.986 272.304C379.658 272.104 419.446 300.512 433.764 342.831C448.082 385.149 433.717 431.883 398.101 458.85C391.586 463.783 384.512 467.93 377.024 471.203C375.868 471.709 374.702 472.193 373.528 472.656C349.386 482.178 322.552 482.309 298.317 473.022C297.034 472.531 295.761 472.014 294.498 471.471C287.068 468.28 280.036 464.232 273.545 459.408Z"/>
<path fill="#15498D" transform="scale(0.21875 0.21875)" d="M351.496 289.917C355.728 291.174 357.76 291.968 361.714 293.977C359.117 295.154 356.251 295.939 353.619 294.842C352.408 293.024 352.174 291.964 351.496 289.917Z"/>
<path fill="#15498D" transform="scale(0.21875 0.21875)" d="M318.232 290.186C322.345 289.075 324.947 288.468 329.147 287.819C327.389 289.787 325.369 291.918 323.826 294.028L318.232 290.186Z"/>
<path fill="#F87145" transform="scale(0.21875 0.21875)" d="M331.503 372.625C335.242 373.649 339.652 373.13 340.874 373.714C337.345 376.865 333.83 377.12 331.503 372.625Z"/>
<path fill="#4C7AA6" transform="scale(0.21875 0.21875)" d="M312.766 352.344C319.023 352.886 317.295 358.975 314.78 362.622C309.068 361.29 310.304 356.146 312.766 352.344Z"/>
<path fill="#4C7AA6" transform="scale(0.21875 0.21875)" d="M356.159 352.259C362.493 352.911 361.247 358.606 358.673 362.638C353.104 360.384 354.101 356.807 356.159 352.259Z"/>
<path fill="#F87145" transform="scale(0.21875 0.21875)" d="M357.101 402.475C361.261 402.904 364.895 403.352 368.663 405.324C373.313 410.833 375.315 415.616 372.274 422.736L372.166 423.532C392.333 432.313 397.298 436.648 398.101 458.85C391.586 463.783 384.512 467.93 377.024 471.203C375.868 471.709 374.702 472.193 373.528 472.656C349.386 482.178 322.552 482.309 298.317 473.022C297.034 472.531 295.761 472.014 294.498 471.471C287.068 468.28 280.036 464.232 273.545 459.408C273.888 436.424 278.939 432.463 299.598 423.296L299.736 422.701C295.855 416.002 298.913 411.493 302.736 405.577C306.146 403.121 310.476 402.91 314.551 402.555C316.884 403.375 319.04 404.091 321.282 405.165C330.342 407.769 340.935 408.476 349.942 405.308L357.101 402.475Z"/>
<path fill="#15498D" transform="scale(0.21875 0.21875)" d="M298.412 451.815L298.317 473.022C297.034 472.531 295.761 472.014 294.498 471.471C295.88 464.935 297.185 458.382 298.412 451.815Z"/>
<path fill="#15498D" transform="scale(0.21875 0.21875)" d="M374.425 459.088C374.971 461.754 376.26 468.95 377.024 471.203C375.868 471.709 374.702 472.193 373.528 472.656L373.005 469.334C373.343 466.169 373.137 461.389 374.425 459.088Z"/>
<path fill="#384861" transform="scale(0.21875 0.21875)" d="M373.005 469.334C372.787 463.385 372.847 457.429 373.185 451.485C373.735 454.086 374.058 456.461 374.425 459.088C373.137 461.389 373.343 466.169 373.005 469.334Z"/>
<path fill="#F87145" transform="scale(0.21875 0.21875)" d="M279.399 342.32C279.088 324.725 282.284 311.481 294.761 298.245C315.658 276.076 354.91 276.105 376.238 297.577C388.353 309.695 392.784 325.391 392.92 342.115C395.693 344.725 396.184 345.264 398.215 348.47C398.476 363.007 401.805 374.84 384.274 378.694C384.126 368.417 384.587 352.002 384.607 341.288C384.602 340.128 386.907 339.738 386.958 339.057C388.397 320.019 376.75 302.534 361.714 293.977C357.76 291.968 355.728 291.174 351.496 289.917C344.141 287.361 336.819 287.135 329.147 287.819C324.947 288.468 322.345 289.075 318.232 290.186C305.734 294.43 295.445 303.486 289.647 315.344C286.085 322.55 284.441 331.269 284.615 339.28L285.238 340.117L286.988 340.214C287.829 342.81 288.01 374.287 287.659 378.522C280.902 377.215 277.628 375.594 274.141 369.345C273.895 363.281 273.567 354.275 274.037 348.264C276.141 345.272 276.643 344.729 279.399 342.32Z"/>
<path fill="#15498D" transform="scale(0.21875 0.21875)" d="M46.5293 195.073C39.4863 189.16 34.7506 185.363 28.7296 178.23C11.2074 157.253 2.61406 130.237 4.79676 102.99C7.43661 75.5306 20.862 50.2398 42.1267 32.6683C63.4707 14.8631 91.0929 6.41901 118.743 9.24659C146.467 11.9733 171.975 25.5911 189.667 47.1098C206.931 68.2679 215.055 95.4319 212.244 122.595C209.172 153.152 194.271 175.51 171.116 194.606C164.178 199.835 157.432 203.515 149.555 207.124L146.321 208.793C122.431 218.588 95.9493 218.073 71.8872 209.189L67.9889 207.385C62.5932 205.201 51.3548 198.525 46.5293 195.073Z"/>
<path fill="#E5E5E5" transform="scale(0.21875 0.21875)" d="M93.8503 139.714C105.715 142.686 111.168 143.673 123.176 139.379L123.186 149.005C123.253 151.263 122.891 152.199 124.023 153.818L125.494 154.116C128.386 154.075 130.233 154.72 133.015 155.472C145.819 157.746 157.511 161.877 165.469 172.632C172.604 182.273 169.255 190.134 171.116 194.606C164.178 199.835 157.432 203.515 149.555 207.124L146.321 208.793C122.431 218.588 95.9493 218.073 71.8872 209.189L67.9889 207.385C62.5932 205.201 51.3548 198.525 46.5293 195.073C48.3646 191.852 45.1686 182.955 50.5946 174.432C58.5286 161.969 70.4667 159.292 83.7576 155.585C86.3061 154.948 88.5547 154.185 91.152 154.339C92.3366 154.001 92.3343 153.954 93.452 153.412C94.5103 150.817 94.0057 146.668 93.8837 143.73L93.8503 139.714Z"/>
<path fill="#F87145" transform="scale(0.21875 0.21875)" d="M125.494 154.116C128.386 154.075 130.233 154.72 133.015 155.472C127.564 175.16 95.4411 176.584 85.1752 158.263C84.6841 157.38 84.2114 156.488 83.7576 155.585C86.3061 154.948 88.5547 154.185 91.152 154.339C98.6075 168.671 124.039 165.549 125.494 154.116Z"/>
<path fill="#2B5381" transform="scale(0.21875 0.21875)" d="M71.6565 187.969C71.8312 193.91 72.2671 203.368 71.8872 209.189L67.9889 207.385C69.3447 200.939 70.5675 194.466 71.6565 187.969Z"/>
<path fill="#15498D" transform="scale(0.21875 0.21875)" d="M146.07 208.16C146.086 204.489 145.946 199.328 146.485 195.818L147.216 195.407L149.555 207.124L146.321 208.793L146.07 208.16Z"/>
<path fill="#2B5381" transform="scale(0.21875 0.21875)" d="M146.07 208.16C145.166 205.072 145.727 192.661 145.895 188.913C146.597 191.145 146.846 193.109 147.216 195.407L146.485 195.818C145.946 199.328 146.086 204.489 146.07 208.16Z"/>
<path fill="#F87145" transform="scale(0.21875 0.21875)" d="M104.119 107.519C108.735 108.47 109.446 108.791 114.034 107.433C111.317 112.049 107.06 111.983 104.119 107.519Z"/>
<path fill="#15498D" transform="scale(0.21875 0.21875)" d="M47.0458 459.166C23.4837 440.753 8.93235 418.345 5.21217 388.197C1.92621 361.438 9.30825 334.461 25.7609 313.103C42.7516 291.245 67.7409 277.047 95.2143 273.643C124.096 270.113 150.873 277.83 173.695 295.79C194.992 312.442 208.751 336.916 211.913 363.766C215.236 390.681 207.671 417.808 190.898 439.117C184.709 446.92 178.449 452.751 170.537 458.761C164.514 462.977 156.282 468.223 149.45 470.992L145.891 472.841C117.151 482.469 100.054 481.568 71.4606 472.982L68.151 471.251C62.7646 469.231 51.7004 462.619 47.0458 459.166Z"/>
<path fill="#E5E5E5" transform="scale(0.21875 0.21875)" d="M94.0263 404.715C106.023 407.866 111.506 408.519 123.166 404.336L123.184 413.879C123.186 416.263 122.811 416.791 123.9 418.676L125.429 419.04C128.385 418.943 130.269 419.567 133.127 420.289C145.281 422.823 158.416 426.402 165.67 437.41C170.625 444.928 169.973 450.451 170.537 458.761C164.514 462.977 156.282 468.223 149.45 470.992L145.891 472.841C117.151 482.469 100.054 481.568 71.4606 472.982L68.151 471.251C62.7646 469.231 51.7004 462.619 47.0458 459.166C47.8323 451.127 46.5207 446.003 51.3652 438.061C58.3892 426.547 71.5454 423.587 83.6561 420.489L91.5346 418.767L94.3951 418.273C93.9131 414.848 94.0524 408.391 94.0263 404.715Z"/>
<path fill="#F87145" transform="scale(0.21875 0.21875)" d="M91.5346 418.767C98.0857 433.041 124.418 429.88 125.429 419.04C128.385 418.943 130.269 419.567 133.127 420.289C129.816 433.007 112.991 438.116 101.49 434.8C93.0665 432.372 88.2186 428.353 83.8822 420.885L83.6561 420.489L91.5346 418.767Z"/>
<path fill="#2B5381" transform="scale(0.21875 0.21875)" d="M70.4992 457.899L71.1484 457.826C71.9113 462.036 71.2933 466.491 71.9023 470.384C71.8188 471.783 71.9521 471.734 71.4606 472.982L68.151 471.251L70.4992 457.899Z"/>
<path fill="#2B5381" transform="scale(0.21875 0.21875)" d="M147.144 458.507L149.45 470.992L145.891 472.841C146.588 468.387 145.39 461.722 147.144 458.507Z"/>
<path fill="#4C7AA6" transform="scale(0.21875 0.21875)" d="M145.843 451.874C146.52 454.144 146.783 456.182 147.144 458.507C145.39 461.722 146.588 468.387 145.891 472.841C145.3 469.159 145.74 455.855 145.843 451.874Z"/>
<path fill="#15498D" transform="scale(0.21875 0.21875)" d="M500.463 195.053C493.355 189.117 488.62 185.352 482.452 178.224C464.872 157.741 456.188 131.09 458.323 104.181C460.359 76.3847 473.171 51.9967 494.22 33.846C515.151 15.7213 542.5 6.79055 570.093 9.06923C598.019 11.2227 623.897 24.5472 641.872 46.0285C672.705 82.3069 674.003 135.153 645.727 173.408C639.28 182.13 633.201 187.498 624.951 194.467C624.443 193.43 624.395 191.165 624.324 189.956C623.763 180.49 623.323 178.725 618.3 171.037C619.926 168.166 621.743 164.814 621.874 161.434C622.822 136.969 621.784 112.298 621.893 87.7888C621.909 84.0576 621.792 80.117 621.5 76.4184C621.143 71.5469 620.311 66.722 619.014 62.0127C609.765 28.5121 575.468 13.6071 543.318 22.9208C529.378 26.8879 517.654 36.3602 510.846 49.1562C507.31 55.8084 504.946 63.0195 503.855 70.4738C502.052 82.5501 500.914 158.551 503.661 166.733C504.272 168.553 505.233 170.002 506.446 171.468C498.924 182.818 502.544 184.514 500.463 195.053Z"/>
<path fill="#E5E5E5" transform="scale(0.21875 0.21875)" d="M547.401 139.213C558.459 142.496 565.563 142.932 576.72 139.215C576.82 143.884 577.07 148.964 576.607 153.576L580.588 153.548L587.873 155.414C600.121 158.513 609.968 160.832 618.3 171.037C623.323 178.725 623.763 180.49 624.324 189.956C624.395 191.165 624.443 193.43 624.951 194.467C618.445 198.705 610.692 203.858 603.641 206.892L600.172 208.65C573.992 218.321 551.54 218.438 525.351 209.133L521.727 207.38C515.988 205.192 505.534 198.624 500.463 195.053C502.544 184.514 498.924 182.818 506.446 171.468C515.053 161.103 524.41 158.951 536.816 155.537C539.027 155.064 541.552 154.354 543.771 153.781L547.703 153.447C547.152 149.768 547.382 143.14 547.401 139.213Z"/>
<path fill="#F87145" transform="scale(0.21875 0.21875)" d="M580.588 153.548L587.873 155.414C581.122 168.816 570.399 185.586 562.44 198.695C553.448 184.581 544.903 170.188 536.816 155.537C539.027 155.064 541.552 154.354 543.771 153.781C549.902 164.125 555.868 174.792 562.22 184.934C568.781 174.293 574.309 164.186 580.588 153.548Z"/>
<path fill="#2B5381" transform="scale(0.21875 0.21875)" d="M525.59 187.569C525.685 191.249 526.378 206.814 525.351 209.133L521.727 207.38C523.361 201.035 524.448 194.064 525.59 187.569Z"/>
<path fill="#15498D" transform="scale(0.21875 0.21875)" d="M599.863 187.661C601.056 194.084 602.316 200.495 603.641 206.892L600.172 208.65C599.123 206.23 599.777 191.383 599.863 187.661Z"/>
<path fill="#F87145" transform="scale(0.21875 0.21875)" d="M557.755 106.966C562.168 109.025 562.553 108.766 567.376 107.561C564.657 111.929 559.922 111.838 557.755 106.966Z"/>
<path fill="#4C7AA6" transform="scale(0.21875 0.21875)" d="M538.81 86.86C544.996 87.8609 544.366 93.5845 540.944 97.4949C535.077 95.8381 536.173 90.9539 538.81 86.86Z"/>
<path fill="#4C7AA6" transform="scale(0.21875 0.21875)" d="M583.439 86.7944C589.114 88.0531 588.568 93.4133 585.763 97.3513C579.642 96.3705 580.852 90.7748 583.439 86.7944Z"/>
<path fill="#15498D" transform="scale(0.21875 0.21875)" d="M273.34 803.252C237.684 776.57 223.057 730.092 237.006 687.797C250.955 645.502 290.361 616.846 334.894 616.613C379.426 616.381 419.129 644.624 433.518 686.772C447.907 728.919 433.766 775.547 398.39 802.6C397.278 799.756 398.354 793.1 396.193 787.578C392.031 776.94 385.589 772.818 375.747 768.14C378.488 758.954 375.582 753.025 368.776 746.88L362.876 742.257C366.222 738.371 373.09 731.476 374.596 727.029C376.427 721.621 378.103 725.943 384.262 722.549C384.063 711.519 383.814 695.896 384.286 685.086C384.954 684.723 385.628 684.372 386.307 684.03C387.129 678.672 385.49 670.186 383.881 665.031C380.109 652.944 372.538 643.98 361.264 638.212C357.471 636.387 355.026 635.396 351.053 633.991C344.326 631.453 335.558 631.039 328.523 632.458C325.56 633.097 322.715 633.677 319.802 634.529C298.147 641.99 284.293 660.713 286.786 684.03C288.558 686.553 288.316 717.831 288.135 722.625C291.496 726.383 296.019 723.192 296.42 726.688C297.054 732.214 304.156 737.677 308.619 742.084C298.421 750.71 294.483 753.936 296.248 767.999C277.603 776.382 273.736 783.447 273.34 803.252Z"/>
<path fill="#F87145" transform="scale(0.21875 0.21875)" d="M280.516 685.942C280.14 651.691 300.53 626.107 336.004 625.732C351.187 625.541 365.817 631.423 376.641 642.072C388.711 654.062 392.312 669.717 392.327 686.252C394.886 688.705 395.66 689.375 397.56 692.338C398.547 706.072 401.316 719.323 384.262 722.549C384.063 711.519 383.814 695.896 384.286 685.086C384.954 684.723 385.628 684.372 386.307 684.03C387.129 678.672 385.49 670.186 383.881 665.031C380.109 652.944 372.538 643.98 361.264 638.212C357.471 636.387 355.026 635.396 351.053 633.991C344.326 631.453 335.558 631.039 328.523 632.458C325.56 633.097 322.715 633.677 319.802 634.529C298.147 641.99 284.293 660.713 286.786 684.03C288.558 686.553 288.316 717.831 288.135 722.625C272.161 719.826 273.439 707.945 274.708 694.533C275.076 690.643 277.634 688.261 280.516 685.942Z"/>
<path fill="#F87145" transform="scale(0.21875 0.21875)" d="M357.897 746.072C361.893 747.169 363.631 747.577 367.258 749.463L368.776 746.88C375.582 753.025 378.488 758.954 375.747 768.14C385.589 772.818 392.031 776.94 396.193 787.578C398.354 793.1 397.278 799.756 398.39 802.6C391.815 807.628 384.662 811.85 377.083 815.176C375.837 815.723 374.58 816.245 373.313 816.743C349.258 826.188 322.542 826.306 298.405 817.072C297.23 816.623 296.064 816.152 294.907 815.66C287.246 812.405 280.005 808.239 273.34 803.252C273.736 783.447 277.603 776.382 296.248 767.999C298.241 772.798 300.051 774.379 304.208 777.504C304.366 776.121 304.895 772.759 304.252 771.741C298.75 763.042 296.844 760.342 303.356 750.989C306.998 754.932 314.816 759.786 316.336 761.7C317.632 762.264 319.584 763.035 320.758 763.703L321.323 762.628C321.064 758.946 321.241 753.273 321.241 749.445C331.079 752.12 340.026 752.647 349.877 749.405C352.517 748.415 355.286 747.181 357.897 746.072Z"/>
<path fill="#15498D" transform="scale(0.21875 0.21875)" d="M373.313 816.743C373.225 810.306 372.99 803.211 373.298 796.844C374.484 802.97 375.745 809.081 377.083 815.176C375.837 815.723 374.58 816.245 373.313 816.743Z"/>
<path fill="#15498D" transform="scale(0.21875 0.21875)" d="M298.298 796.735C298.467 802.62 298.726 811.341 298.405 817.072C297.23 816.623 296.064 816.152 294.907 815.66C296.132 809.369 297.262 803.06 298.298 796.735Z"/>
<path fill="#15498D" transform="scale(0.21875 0.21875)" d="M351.053 633.991C355.026 635.396 357.471 636.387 361.264 638.212C360.124 638.876 355.644 639.821 354.086 640.193C353.206 638.114 352.08 636.013 351.053 633.991Z"/>
<path fill="#15498D" transform="scale(0.21875 0.21875)" d="M319.802 634.529C322.715 633.677 325.56 633.097 328.523 632.458C326.796 634.8 325.851 636.948 323.362 637.486C321.488 636.51 321.275 636.123 319.802 634.529Z"/>
<path fill="#F87145" transform="scale(0.21875 0.21875)" d="M331.95 717.014C336.592 717.725 336.207 717.304 340.936 716.875C338.113 719.907 334.871 719.894 331.95 717.014Z"/>
<path fill="#4C7AA6" transform="scale(0.21875 0.21875)" d="M312.777 696.602C318.571 697.07 317.517 703.198 315.002 706.792C309.095 706.744 310.324 700.181 312.777 696.602Z"/>
<path fill="#4C7AA6" transform="scale(0.21875 0.21875)" d="M356.161 696.585C362.409 696.991 361.412 702.848 358.846 706.835C352.904 706.261 354.276 700.358 356.161 696.585Z"/>
<path fill="#15498D" transform="scale(0.21875 0.21875)" d="M47.0678 803.216C40.3572 798.364 34.2548 792.722 28.8923 786.413C11.0962 765.372 2.43668 738.097 4.83683 710.643C9.84246 653.378 62.4577 612.54 119.121 617.662C146.603 620.236 171.928 633.652 189.495 654.944C206.81 676.032 214.994 703.159 212.231 730.306C209.319 761.262 194.437 783.257 171.076 802.546C163.28 807.602 158.053 811.285 149.439 814.857L145.968 816.484C120.011 826.737 97.423 825.368 71.4669 816.624L68.1529 814.993C62.7935 813.068 51.659 806.664 47.0678 803.216Z"/>
<path fill="#F87145" transform="scale(0.21875 0.21875)" d="M104.272 716.584C110.29 718.53 109.004 717.211 114.09 716.746C110.943 720.444 107.067 721.053 104.272 716.584Z"/>
<path fill="#E5E5E5" transform="scale(0.21875 0.21875)" d="M93.9106 752.986L94.7747 753.206C99.4744 754.45 103.298 756.864 109.031 757.649C112.934 758.184 120.104 757.194 122.93 758.03L123.287 758.945C123.629 760.496 123.65 761.017 124.52 762.387L128.077 762.196L129.644 762.469L133.52 763.605C147.471 767.269 158.456 769.785 166.736 782.816C171.997 791.094 169.52 799.538 171.076 802.546C163.28 807.602 158.053 811.285 149.439 814.857L145.968 816.484C120.011 826.737 97.423 825.368 71.4669 816.624L68.1529 814.993C62.7935 813.068 51.659 806.664 47.0678 803.216C47.3558 775.245 57.9087 770.655 83.6416 763.661L88.0894 762.531L90.116 762.148L91.7561 762.247C92.9665 761.955 92.5235 762.115 93.5712 761.339C94.3334 758.698 94.0055 755.79 93.9106 752.986Z"/>
<path fill="#F87145" transform="scale(0.21875 0.21875)" d="M90.116 762.148L91.7561 762.247C92.1165 764.385 95.5503 768.504 97.3817 769.577C106.219 774.754 118.767 772.133 124.958 764.476L125.237 763.296L124.52 762.387L128.077 762.196C127.098 768.127 126.289 770.544 123.513 775.887C122.608 776.016 116.77 778.045 115.609 778.449C106.165 781.741 103.132 778.173 94.9525 775.963L94.2049 775.768C91.8462 771.894 90.7218 766.572 90.116 762.148Z"/>
<path fill="#E5E5E5" transform="scale(0.21875 0.21875)" d="M94.2049 775.768L94.9525 775.963C103.132 778.173 106.165 781.741 115.609 778.449C116.77 778.045 122.608 776.016 123.513 775.887C113.222 799.629 104.266 799.419 94.2049 775.768Z"/>
<path fill="#F87145" transform="scale(0.21875 0.21875)" d="M106.543 797.443C108.687 796.587 111.126 796.955 112.923 798.405C114.719 799.855 115.594 802.162 115.21 804.439C114.826 806.716 113.244 808.608 111.071 809.389C107.791 810.568 104.172 808.901 102.937 805.642C101.701 802.382 103.306 798.735 106.543 797.443Z"/>
<path fill="#2B5381" transform="scale(0.21875 0.21875)" d="M68.1529 814.993L71.5872 795.697C71.6842 799.353 72.3957 814.042 71.4669 816.624L68.1529 814.993Z"/>
<path fill="#15498D" transform="scale(0.21875 0.21875)" d="M147.172 803.247C147.949 807.069 148.812 811.019 149.439 814.857L145.968 816.484C146.488 812.449 145.157 806.047 147.172 803.247Z"/>
<path fill="#F87145" transform="scale(0.21875 0.21875)" d="M129.644 762.469L133.52 763.605C131.678 768.614 130.611 770.007 126.799 773.777C128.434 769.173 129.17 767.353 129.644 762.469Z"/>
<path fill="#F87145" transform="scale(0.21875 0.21875)" d="M83.6416 763.661L88.0894 762.531C88.86 765.955 89.6895 769.365 90.5777 772.759C87.7662 769.586 85.642 767.44 83.6416 763.661Z"/>
<path fill="#2B5381" transform="scale(0.21875 0.21875)" d="M145.837 797.079C146.633 799.399 146.793 800.853 147.172 803.247C145.157 806.047 146.488 812.449 145.968 816.484C145.291 812.986 145.682 801.037 145.837 797.079Z"/>
<path fill="#15498D" transform="scale(0.21875 0.21875)" d="M500.089 803.299C464.429 776.661 449.77 730.219 463.675 687.934C477.58 645.65 516.94 616.974 561.449 616.702C605.957 616.431 645.665 644.623 660.085 686.735C674.505 728.847 660.415 775.464 625.083 802.535C618.53 807.557 611.399 811.776 603.844 815.105C602.658 815.628 601.462 816.128 600.257 816.606C590.354 820.532 579.906 822.906 569.279 823.647C564.927 823.95 560.561 823.978 556.206 823.73C545.742 823.136 535.43 820.957 525.62 817.268C524.318 816.778 523.027 816.263 521.747 815.721C514.053 812.469 506.781 808.298 500.089 803.299Z"/>
<path fill="#F87145" transform="scale(0.21875 0.21875)" d="M547.406 748.545C558.402 752.242 565.985 752.493 577.217 748.858C577.266 751.154 577.481 755.525 577.32 757.651C577.462 758.937 577.579 760.775 577.961 761.935C581.751 760.427 583.695 762.581 587.95 763.749C607.412 768.999 623.962 774.209 624.825 797.691C624.858 798.591 624.879 801.8 625.083 802.535C618.53 807.557 611.399 811.776 603.844 815.105C602.658 815.628 601.462 816.128 600.257 816.606C590.354 820.532 579.906 822.906 569.279 823.647C564.927 823.95 560.561 823.978 556.206 823.73C545.742 823.136 535.43 820.957 525.62 817.268C524.318 816.778 523.027 816.263 521.747 815.721C514.053 812.469 506.781 808.298 500.089 803.299C500.353 795.742 500.175 789.399 504.05 782.65C510.958 770.615 523.83 767.394 536.174 763.971C538.822 763.09 543.739 760.992 546.12 762.02L547.744 761.564C547.34 758.399 547.447 751.961 547.406 748.545Z"/>
<path fill="#F87145" transform="scale(0.21875 0.21875)" d="M587.95 763.749C607.412 768.999 623.962 774.209 624.825 797.691C624.858 798.591 624.879 801.8 625.083 802.535C618.53 807.557 611.399 811.776 603.844 815.105C602.658 815.628 601.462 816.128 600.257 816.606C590.354 820.532 579.906 822.906 569.279 823.647C568.751 813.15 569.022 798.672 569.098 787.933C574.775 779.836 582.034 771.979 587.95 763.749Z"/>
<path fill="#15498D" transform="scale(0.21875 0.21875)" d="M600.257 816.606L599.926 795.908C601.091 802.234 602.191 808.913 603.844 815.105C602.658 815.628 601.462 816.128 600.257 816.606Z"/>
<path fill="#E5E5E5" transform="scale(0.21875 0.21875)" d="M547.406 748.545C558.402 752.242 565.985 752.493 577.217 748.858C577.266 751.154 577.481 755.525 577.32 757.651C577.462 758.937 577.579 760.775 577.961 761.935C581.751 760.427 583.695 762.581 587.95 763.749C582.034 771.979 574.775 779.836 569.098 787.933C569.022 798.672 568.751 813.15 569.279 823.647C564.927 823.95 560.561 823.978 556.206 823.73C556.332 812.144 556.357 800.557 556.284 788.971C550.191 780.9 542.601 771.938 536.174 763.971C538.822 763.09 543.739 760.992 546.12 762.02L547.744 761.564C547.34 758.399 547.447 751.961 547.406 748.545Z"/>
<path fill="#4C7AA6" transform="scale(0.21875 0.21875)" d="M562.365 786.018C563.219 785.512 564.282 785.512 565.136 786.019C565.99 786.526 566.5 787.459 566.465 788.451C566.431 789.444 565.857 790.339 564.97 790.785C563.661 791.442 562.067 790.945 561.365 789.66C560.663 788.375 561.105 786.765 562.365 786.018Z"/>
<path fill="#4C7AA6" transform="scale(0.21875 0.21875)" d="M562.224 796.731C563.508 796.012 565.131 796.446 565.885 797.71C566.639 798.975 566.249 800.609 565.005 801.397C564.171 801.925 563.115 801.959 562.248 801.485C561.381 801.011 560.84 800.103 560.835 799.115C560.83 798.127 561.362 797.214 562.224 796.731Z"/>
<path fill="#4C7AA6" transform="scale(0.21875 0.21875)" d="M563.017 806.987C564.39 806.594 565.822 807.386 566.219 808.759C566.616 810.131 565.828 811.566 564.457 811.967C563.08 812.37 561.638 811.578 561.239 810.199C560.841 808.821 561.637 807.381 563.017 806.987Z"/>
<path fill="#15498D" transform="scale(0.21875 0.21875)" d="M525.536 796.742C525.712 802.9 525.897 811.196 525.62 817.268C524.318 816.778 523.027 816.263 521.747 815.721C522.901 809.374 524.165 803.047 525.536 796.742Z"/>
<path fill="#F87145" transform="scale(0.21875 0.21875)" d="M609.75 659.455C614.073 662.884 614.57 674.944 612.244 679.489C609.731 679.422 602.279 678.929 600.275 680.108L599.904 681.562C599.704 680.818 599.519 680.464 599.217 679.757C574.895 678.754 549.248 680.888 524.309 679.606C520.834 679.386 515.837 679.499 512.241 679.465C510.422 674.775 510.551 663.084 514.35 659.351C545.889 659.366 578.307 658.945 609.75 659.455Z"/>
<path fill="#F87145" transform="scale(0.21875 0.21875)" d="M557.992 716.314C562.172 717.414 563.143 717.519 567.586 716.664C564.344 719.665 560.97 719.526 557.992 716.314Z"/>
<path fill="#2B5381" transform="scale(0.21875 0.21875)" d="M525.283 725.593C520.741 727.193 515.2 728.614 511.97 723.626C511.158 722.38 510.929 720.842 511.342 719.413C512.079 716.836 514.131 715.019 516.404 713.791C518.809 714.995 519.607 715.467 522.322 716.038C523.143 718.843 524.256 722.958 525.283 725.593Z"/>
<path fill="#2B5381" transform="scale(0.21875 0.21875)" d="M608.472 714.129C610.325 715.442 612.962 717.872 612.853 720.15C612.436 728.889 604.56 727.596 599.746 726.181C601.162 723.287 601.782 719.323 602.442 716.095C605.047 715.707 606.29 715.704 608.472 714.129Z"/>
<path fill="#E5E5E5" transform="scale(0.21875 0.21875)" d="M515.739 740.09L522.334 740.261C523.2 744.455 524.852 750.458 519.461 752.418C513.372 751.381 515.091 744.275 515.739 740.09Z"/>
<path fill="#E5E5E5" transform="scale(0.21875 0.21875)" d="M601.894 740.229L608.702 740.316C609.661 744.802 610.89 750.381 605.79 752.899C600.007 752.278 601.452 744.071 601.894 740.229Z"/>
<path fill="#F87145" transform="scale(0.21875 0.21875)" d="M607.671 729.879C608.599 733.798 608.58 736.34 608.702 740.316L601.894 740.229C602.096 737.365 602.182 732.79 603.299 730.346C605.393 730.789 605.564 730.619 607.671 729.879Z"/>
<path fill="#F87145" transform="scale(0.21875 0.21875)" d="M516.625 729.964C518.834 731.093 519.101 731.327 521.459 730.885C522.161 734.325 522.191 736.739 522.334 740.261L515.739 740.09L516.625 729.964Z"/>
<path fill="#15498D" transform="scale(0.21875 0.21875)" d="M273.248 1081.01C266.439 1076.46 258.747 1068.77 253.618 1062.41C236.668 1041.29 228.813 1014.3 231.786 987.381C234.891 959.486 248.413 936.053 270.257 918.631C292.218 901.122 320.287 893.161 348.169 896.532C375.588 899.904 400.574 913.945 417.713 935.612C434.587 957.169 442.098 984.6 438.561 1011.75C435.065 1040.14 420.541 1063.05 398.322 1080.42C397.005 1078.16 396.877 1068.89 395.966 1065.59C393.832 1057.89 386.582 1052.49 380.21 1048.58C385.282 1043.9 386.641 1040.27 387.102 1033.59C403.594 1029.13 405.983 1015.14 395.746 1002.72C397.418 1001.37 398.737 1000.22 400.114 998.572C403.29 994.816 404.814 989.936 404.338 985.04C403.718 979.234 400.666 975.223 396.302 971.712C407.358 957.984 403.482 944.44 386.283 939.776C386.828 936.53 386.791 933.224 385.838 930.057C384.555 925.677 381.518 922.022 377.448 919.958C372.392 917.382 367.374 917.411 362.074 919.046C354.385 907.73 344.313 903.919 332.964 913.379C320.526 905.123 307.197 907.331 302.929 922.737C286.267 921.479 275.617 931.052 280.462 948.066C269.065 954.496 265.392 964.313 273.22 975.506C264.605 985.278 264.873 995.743 275.15 1004.11C264.815 1017.2 268.555 1028.46 283.875 1034.6C283.979 1041.19 285.668 1044.78 290.834 1048.75C284.228 1052.83 277.408 1057.93 275.494 1065.99C274.676 1069.43 274.54 1078.8 273.248 1081.01Z"/>
<path fill="#4C7AA6" transform="scale(0.21875 0.21875)" d="M321.723 1026.85C331.541 1030.51 339.855 1030.82 349.837 1027.09L350.415 1028.54C353.782 1029.43 356.143 1029.82 359.653 1030.09L360.675 1030.93C360.967 1034.02 359.942 1038.81 359.366 1042.01C367.684 1043.95 372.313 1045.29 380.21 1048.58C386.582 1052.49 393.832 1057.89 395.966 1065.59C396.877 1068.89 397.005 1078.16 398.322 1080.42C392.013 1085.42 384.507 1089.81 377.188 1093.2L374.012 1094.54C365.522 1098.44 356.05 1100.1 346.924 1101.72C345.874 1102.22 325.935 1102.21 324.665 1101.74C315.726 1100.55 306.447 1098.67 298.135 1095.09L295.04 1093.86C288.109 1090.57 279.068 1086.01 273.248 1081.01C274.54 1078.8 274.676 1069.43 275.494 1065.99C277.408 1057.93 284.228 1052.83 290.834 1048.75C297.14 1045.77 305.446 1043.89 312.338 1042.12C311.807 1037.8 311.49 1035.36 311.626 1030.95C313.81 1031.08 318.91 1029.39 321.263 1028.7L321.723 1026.85Z"/>
<path fill="#E5E5E5" transform="scale(0.21875 0.21875)" d="M326.144 1054.58C333.535 1056.77 337.91 1057.37 345.406 1054.86C345.699 1062.44 344.658 1096.68 345.97 1101.15L346.924 1101.72C345.874 1102.22 325.935 1102.21 324.665 1101.74L325.905 1101.28C326.579 1098.47 326.291 1088.75 326.28 1085.42L326.144 1054.58Z"/>
<path fill="#2B5381" transform="scale(0.21875 0.21875)" d="M350.415 1028.54C353.782 1029.43 356.143 1029.82 359.653 1030.09C356.943 1032.68 352.747 1038.08 350.476 1039.33C350.247 1035.93 350.382 1031.98 350.415 1028.54Z"/>
<path fill="#2B5381" transform="scale(0.21875 0.21875)" d="M311.626 1030.95C313.81 1031.08 318.91 1029.39 321.263 1028.7C321.267 1032.03 321.147 1036.41 321.414 1039.65C319.05 1037.08 314.878 1032 311.626 1030.95Z"/>
<path fill="#15498D" transform="scale(0.21875 0.21875)" d="M374.012 1094.54C372.695 1091.84 373.582 1078.71 373.825 1074.81C374.53 1080.74 375.992 1087.28 377.188 1093.2L374.012 1094.54Z"/>
<path fill="#15498D" transform="scale(0.21875 0.21875)" d="M297.177 1081.35L297.865 1081.69C298.535 1085.36 297.982 1088.77 298.585 1091.99C298.565 1093.18 298.673 1094.03 298.135 1095.09L295.04 1093.86C295.36 1090.45 296.541 1084.88 297.177 1081.35Z"/>
<path fill="#2B5381" transform="scale(0.21875 0.21875)" d="M298.382 1072.96C298.67 1078.23 298.977 1086.75 298.585 1091.99C297.982 1088.77 298.535 1085.36 297.865 1081.69L297.177 1081.35L298.382 1072.96Z"/>
<path fill="#F87145" transform="scale(0.21875 0.21875)" d="M331.479 995.612L332.278 995.429C335.644 996.799 337.965 996.111 341.409 995.353C338.681 999.683 334.152 1000.27 331.479 995.612Z"/>
<path fill="#15498D" transform="scale(0.21875 0.21875)" d="M726.037 1081C719.665 1076.25 713.831 1070.82 708.636 1064.8C690.574 1043.68 682.453 1017.43 684.7 989.768C687.031 962.957 699.905 938.166 720.496 920.839C742.035 902.603 769.962 893.719 798.078 896.16C825.562 898.689 850.933 911.98 868.661 933.136C886.166 953.95 894.558 980.934 891.945 1008.01C889.269 1037.76 875.644 1060.55 853.038 1079.44C852.214 1065.11 851.398 1061.57 840.97 1051.71C842.55 1050.51 844.625 1049.02 846.043 1047.7C843.123 1042.37 836.694 1035.3 836.013 1030.48C834.95 1021.24 837.057 1011.2 837.832 1001.94C840.507 969.989 843.706 920.63 804.531 909.71C777.059 902.051 749.749 913.82 742.695 942.578C738.177 960.996 738.89 979.617 740.554 998.387C741.22 1006.72 745.698 1014.89 743.719 1023.27C742.778 1027.24 741.283 1030.12 739.82 1033.81C737.073 1040.75 728.792 1046.17 736.435 1052.59C725.001 1063.91 727.765 1067.84 726.037 1081Z"/>
<path fill="#4C7AA6" transform="scale(0.21875 0.21875)" d="M736.435 1052.59C747.415 1061.25 754.384 1063.97 767.703 1067.68C767.07 1078.38 766.746 1089.09 766.73 1099.81C760.47 1098.39 754.992 1096.47 749.032 1094.2L746.935 1093.23C739.534 1089.94 732.524 1085.84 726.037 1081C727.765 1067.84 725.001 1063.91 736.435 1052.59Z"/>
<path fill="#15498D" transform="scale(0.21875 0.21875)" d="M749.463 1079.52C751.028 1082.09 750.481 1090.21 750.381 1093.67L749.032 1094.2L746.935 1093.23L749.463 1079.52Z"/>
<path fill="#2B5381" transform="scale(0.21875 0.21875)" d="M749.463 1079.52C749.84 1076.75 750.131 1074.23 750.822 1071.51C750.863 1074.8 751.481 1091.83 750.381 1093.67C750.481 1090.21 751.028 1082.09 749.463 1079.52Z"/>
<path fill="#4C7AA6" transform="scale(0.21875 0.21875)" d="M840.97 1051.71C851.398 1061.57 852.214 1065.11 853.038 1079.44C846.562 1084.54 839.549 1088.91 832.124 1092.49L829.01 1093.92L825.25 1095.44C825.405 1083.87 824.748 1072.3 823.283 1060.81C830.416 1057.79 834.495 1055.63 840.97 1051.71Z"/>
<path fill="#15498D" transform="scale(0.21875 0.21875)" d="M828.527 1082.19L830.133 1082.57C830.75 1085.59 831.68 1089.52 832.124 1092.49L829.01 1093.92C828.175 1091.72 828.497 1084.89 828.527 1082.19Z"/>
<path fill="#2B5381" transform="scale(0.21875 0.21875)" d="M828.527 1082.19C828.46 1080.62 828.073 1077.09 828.722 1075.9C829.725 1078.24 829.823 1080.08 830.133 1082.57L828.527 1082.19Z"/>
<path fill="#15498D" transform="scale(0.21875 0.21875)" d="M47.0458 1081.82C23.9243 1064.4 9.25253 1040.66 5.26161 1011.81C1.73294 985.382 8.78067 958.629 24.872 937.37C41.5623 915.116 66.4814 900.488 94.0467 896.763C121.794 892.846 149.945 900.321 172.095 917.485C193.828 933.976 208.107 958.437 211.781 985.471C215.321 1012.33 207.973 1039.48 191.376 1060.88C185.335 1068.66 178.25 1075.57 170.321 1081.42C163.858 1086.2 156.914 1090.29 149.602 1093.63L145.72 1095.26C119.304 1103.8 99.0034 1104.81 72.2286 1095.47L68.0584 1093.76C60.6235 1090.59 53.5739 1086.59 47.0458 1081.82Z"/>
<path fill="#F87145" transform="scale(0.21875 0.21875)" d="M104.342 994.788C107.562 995.276 108.409 995.602 111.675 995.294C112.33 995.239 112.985 995.177 113.638 995.109C110.73 998.924 106.704 999.433 104.342 994.788Z"/>
<path fill="#F87145" transform="scale(0.21875 0.21875)" d="M94.3653 1032.56C97.7548 1032.11 105.444 1036.01 109.105 1036.27C113.404 1036.57 118.835 1036.27 123.188 1036.09C123.216 1037.81 122.997 1040.13 123.885 1041.47C126.961 1040.77 130.346 1041.94 133.434 1042.76C157.948 1048.74 170.32 1054.26 170.321 1081.42C163.858 1086.2 156.914 1090.29 149.602 1093.63L145.72 1095.26C119.304 1103.8 99.0034 1104.81 72.2286 1095.47L68.0584 1093.76C60.6235 1090.59 53.5739 1086.59 47.0458 1081.82C47.7885 1073.68 46.4975 1068.78 51.1318 1060.68C57.8116 1049.01 72.1085 1046.04 84.166 1042.72C86.9765 1041.97 91.064 1040.54 93.6667 1041.7C94.7204 1039.51 94.387 1035.17 94.3653 1032.56Z"/>
<path fill="#E5E5E5" transform="scale(0.21875 0.21875)" d="M123.885 1041.47C126.961 1040.77 130.346 1041.94 133.434 1042.76C121.572 1061.29 95.8158 1061.61 84.166 1042.72C86.9765 1041.97 91.064 1040.54 93.6667 1041.7C97.0142 1052.48 122.259 1052.1 123.885 1041.47Z"/>
<path fill="#15498D" transform="scale(0.21875 0.21875)" d="M145.72 1095.26C145.679 1088.25 145.656 1081.6 145.932 1074.6C147.072 1080.96 148.295 1087.3 149.602 1093.63L145.72 1095.26Z"/>
<path fill="#15498D" transform="scale(0.21875 0.21875)" d="M70.4497 1081.82L71.2107 1082.26C71.414 1083.92 71.6541 1087.12 71.9208 1088.58L72.2286 1095.47L68.0584 1093.76L70.4497 1081.82Z"/>
<path fill="#15498D" transform="scale(0.21875 0.21875)" d="M725.284 458.461C690.076 431.472 675.92 385.084 690.058 343.033C704.196 300.982 743.502 272.572 787.862 272.338C832.223 272.105 871.825 300.101 886.405 342C900.985 383.9 887.317 430.434 852.395 457.793C851.938 454.124 851.395 450.467 850.768 446.823C849.008 449.671 848.451 450.769 844.997 450.809C840.872 449.194 841.267 446.308 841.723 442.661L840.425 440.445C839.827 437.64 841.202 421.999 841.297 417.766C841.506 401.132 841.507 384.497 841.301 367.864C841.078 352.182 842.177 337.525 837.654 322.306C837.135 320.477 837.295 320.57 838.088 318.847C832.538 312.661 831.881 311.355 827.145 305.181L829.136 302.849C817.671 292.883 807.531 292.94 793.387 293.968C790.802 292.547 791.975 288.787 792.769 286.494C790.703 286.66 789.073 286.858 786.992 286.697C787.561 289.554 788.085 291.361 786.53 293.813C783.451 295.623 760.426 288.696 749.088 302.713C748.746 304.22 747.661 307.634 747.761 308.826C746.054 311.945 744.847 313.622 742.238 316.15C740.64 317.435 739.253 318.229 738.546 320.085C739.18 321.656 738.648 321.072 740.284 321.806C740.044 327.21 737.782 333.091 737.536 338.363C737.172 346.153 737.338 354.151 737.327 361.959L737.284 401.59C737.31 406.693 737.001 427.138 737.737 431.379C735.734 434.157 736.184 436.482 736.195 440.092L736.432 448.582C731.528 452.537 729.044 450.831 727.003 445.479C726.598 447.418 725.587 457.932 725.284 458.461Z"/>
<path fill="#F87145" transform="scale(0.21875 0.21875)" d="M802.573 438.66L801.922 449.933L801.514 452.904L801.436 462.45C793.372 462.522 785.308 462.515 777.244 462.428L776.829 453.27L776.5 447.598C776.127 444.682 775.937 441.788 775.717 438.857C782.082 439.939 796.124 439.387 802.573 438.66Z"/>
<path fill="#F87145" transform="scale(0.21875 0.21875)" d="M776.829 453.27C784.122 453.405 794.266 453.682 801.514 452.904L801.436 462.45C793.372 462.522 785.308 462.515 777.244 462.428L776.829 453.27Z"/>
<path fill="#E5E5E5" transform="scale(0.21875 0.21875)" d="M776.5 447.598C779.003 447.653 800.497 447.518 801.49 448.043L801.922 449.933L801.514 452.904C794.266 453.682 784.122 453.405 776.829 453.27L776.5 447.598Z"/>
<path fill="#F87145" transform="scale(0.21875 0.21875)" d="M773.948 423.232C783.357 428.732 788.455 430.565 798.586 425.997C800.344 425.205 803.034 423.324 804.511 422.922L803.374 432.11L802.573 438.66C796.124 439.387 782.082 439.939 775.717 438.857L775.085 432.734C774.792 429.557 774.413 426.388 773.948 423.232Z"/>
<path fill="#E5E5E5" transform="scale(0.21875 0.21875)" d="M775.085 432.734C787.647 435.277 791.338 435.496 803.374 432.11L802.573 438.66C796.124 439.387 782.082 439.939 775.717 438.857L775.085 432.734Z"/>
<path fill="#F87145" transform="scale(0.21875 0.21875)" d="M763.285 446.507L767.301 446.507L767.32 446.978C767.948 450.981 767.823 456.021 767.855 460.148L767.999 465.873C766.747 467.246 765.746 467.027 763.903 466.648L763.967 465.629L763.343 448.161L763.285 446.507Z"/>
<path fill="#E5E5E5" transform="scale(0.21875 0.21875)" d="M763.967 465.629C764.292 461.291 763.81 461.648 767.855 460.148L767.999 465.873C766.747 467.246 765.746 467.027 763.903 466.648L763.967 465.629Z"/>
<path fill="#E5E5E5" transform="scale(0.21875 0.21875)" d="M763.285 446.507L767.301 446.507L767.32 446.978C767.241 449.685 767.709 449.776 766.221 451.528L765.195 451.579C763.508 449.834 764.034 450.678 763.343 448.161L763.285 446.507Z"/>
<path fill="#F87145" transform="scale(0.21875 0.21875)" d="M762.763 436.431L766.331 436.666C766.824 440.217 767.09 442.925 767.301 446.507L763.285 446.507C763.232 443.309 762.942 439.661 762.763 436.431Z"/>
<path fill="#F87145" transform="scale(0.21875 0.21875)" d="M761.559 418.774L764.35 418.247C764.778 422.371 765.249 426.49 765.762 430.604L762.475 430.625C762.039 427.256 762.043 422.745 761.559 418.774Z"/>
<path fill="#15498D" transform="scale(0.21875 0.21875)" d="M772.122 403.723L774.215 404.786L774.579 408.303C774.619 410.984 775.045 416.545 773.664 418.579C772.487 414.441 772.245 408.104 772.122 403.723Z"/>
<path fill="#F87145" transform="scale(0.21875 0.21875)" d="M725.284 458.461C725.587 457.932 726.598 447.418 727.003 445.479C729.044 450.831 731.528 452.537 736.432 448.582C737.987 449.11 737.431 449.268 738.513 448.828C738.711 453.592 738.523 461.621 744.91 462.109C746.995 461.044 748.195 458.33 748.395 456.087L747.665 446.694C749.549 448.485 751.568 448.356 754.263 448.496C754.424 452.542 754.693 456.952 754.743 460.967L754.823 465.342L750.3 465.093L750.192 472.578C749.052 472.127 747.92 471.655 746.797 471.163C739.141 467.811 731.917 463.546 725.284 458.461Z"/>
<path fill="#2B5381" transform="scale(0.21875 0.21875)" d="M749.158 457.264L750.227 458.922L754.743 460.967L754.823 465.342L750.3 465.093L750.192 472.578C749.052 472.127 747.92 471.655 746.797 471.163C747.675 467.41 748.493 461.222 749.158 457.264Z"/>
<path fill="#E5E5E5" transform="scale(0.21875 0.21875)" d="M750.227 458.922L754.743 460.967L754.823 465.342L750.3 465.093L750.227 458.922Z"/>
<path fill="#F87145" transform="scale(0.21875 0.21875)" d="M754.264 434.821L754.238 443.377C751.641 442.495 750.087 442.666 747.391 442.702L746.583 438.637L747.164 437.913C750.007 437.296 750.417 437.194 752.988 435.745L754.264 434.821Z"/>
<path fill="#E5E5E5" transform="scale(0.21875 0.21875)" d="M747.391 442.702C750.087 442.666 751.641 442.495 754.238 443.377L754.263 448.496C751.568 448.356 749.549 448.485 747.665 446.694L747.391 442.702Z"/>
<path fill="#F87145" transform="scale(0.21875 0.21875)" d="M811.912 435.541C813.648 436.207 813.857 436.21 815.732 436.395C815.652 440.122 815.69 447.583 815.161 450.989L815.007 451.578L810.464 452.001C810.514 450.179 810.662 448.263 810.77 446.434C811.051 442.971 811.27 438.905 811.912 435.541Z"/>
<path fill="#E5E5E5" transform="scale(0.21875 0.21875)" d="M810.77 446.434C813.008 445.916 813.103 445.484 814.83 446.165C815.406 447.84 815.215 449.212 815.161 450.989L815.007 451.578L810.464 452.001C810.514 450.179 810.662 448.263 810.77 446.434Z"/>
<path fill="#F87145" transform="scale(0.21875 0.21875)" d="M810.464 452.001L815.007 451.578C814.886 454.505 814.843 458.324 814.59 461.169L810.514 461.913L810.464 452.001Z"/>
<path fill="#15498D" transform="scale(0.21875 0.21875)" d="M803.588 404.491L805.714 403.607C805.642 407.703 805.684 415.832 804.72 419.576C803.425 417.34 803.443 415.762 803.2 413.238C803.231 410.163 803.367 407.562 803.588 404.491Z"/>
<path fill="#E5E5E5" transform="scale(0.21875 0.21875)" d="M810.514 461.913L814.59 461.169L814.662 465.927L814.176 467.128C812.615 467.574 812.038 467.395 810.45 467.209L810.514 461.913Z"/>
<path fill="#F87145" transform="scale(0.21875 0.21875)" d="M840.425 440.445L841.723 442.661C841.267 446.308 840.872 449.194 844.997 450.809C848.451 450.769 849.008 449.671 850.768 446.823C851.395 450.467 851.938 454.124 852.395 457.793C845.814 462.949 838.634 467.29 831.011 470.723C830.203 471.087 829.391 471.44 828.574 471.783C827.636 470.44 827.583 467.305 827.409 465.508L827.255 459.469L823.523 459.836C823.708 455.296 823.975 450.76 824.324 446.23C824.697 448.297 824.279 447.771 825.637 448.725C827.449 448.699 828.436 448.584 830.24 448.345C830.227 451.078 830.408 454.367 829.639 456.893C830.783 460.058 834.679 464.135 837.374 460.61C840.477 456.55 840.132 445.826 840.425 440.445Z"/>
<path fill="#2B5381" transform="scale(0.21875 0.21875)" d="M827.255 459.469C827.334 457.664 827.509 456.619 827.806 454.828L828.253 455.061L828.56 457.17C829.282 461.964 829.864 465.997 831.011 470.723C830.203 471.087 829.391 471.44 828.574 471.783C827.636 470.44 827.583 467.305 827.409 465.508L827.255 459.469Z"/>
<path fill="#2B5381" transform="scale(0.21875 0.21875)" d="M815.153 397.656L815.956 397.478C816.199 405.057 816.142 413.374 816.517 420.786L813.722 420.708C814.454 413.042 814.931 405.354 815.153 397.656Z"/>
<path fill="#E5E5E5" transform="scale(0.21875 0.21875)" d="M824.479 442.894C826.772 442.41 828.843 441.765 831.083 441.102C830.821 443.317 830.403 446.174 830.24 448.345C828.436 448.584 827.449 448.699 825.637 448.725C824.279 447.771 824.697 448.297 824.324 446.23L824.479 442.894Z"/>
<path fill="#F87145" transform="scale(0.21875 0.21875)" d="M824.861 436.27C827.999 437.645 827.583 437.485 831.391 436.387C831.343 437.281 831.235 440.409 831.083 441.102C828.843 441.765 826.772 442.41 824.479 442.894C824.446 441.034 824.729 438.2 824.861 436.27Z"/>
<path fill="#F87145" transform="scale(0.21875 0.21875)" d="M813.722 420.708L816.517 420.786C816.563 424.339 816.516 426.642 816.198 430.17L812.484 431.263L813.722 420.708Z"/>
<path fill="#E5E5E5" transform="scale(0.21875 0.21875)" d="M812.484 431.263L816.198 430.17L815.732 436.395C813.857 436.21 813.648 436.207 811.912 435.541L812.484 431.263Z"/>
<path fill="#F87145" transform="scale(0.21875 0.21875)" d="M777.244 462.428C785.308 462.515 793.372 462.522 801.436 462.45L801.682 467.919C803.781 469.483 804.743 470.237 807.312 470.134C809.157 469.275 809.229 468.949 810.45 467.209C812.038 467.395 812.615 467.574 814.176 467.128L814.662 465.927C816.529 471.843 821.651 471.913 823.622 466.298L827.409 465.508C827.583 467.305 827.636 470.44 828.574 471.783C803.556 482.287 775.418 482.573 750.192 472.578L750.3 465.093L754.823 465.342C756.804 470.14 761.2 471.523 763.903 466.648C765.746 467.027 766.747 467.246 767.999 465.873C768.572 468.006 768.556 468.123 770.196 469.473C772.901 470.363 774.333 469.528 776.514 467.874L777.244 462.428Z"/>
<path fill="#E5E5E5" transform="scale(0.21875 0.21875)" d="M777.244 462.428C785.308 462.515 793.372 462.522 801.436 462.45L801.682 467.919C793.963 468.631 784.239 468.423 776.514 467.874L777.244 462.428Z"/></g></svg>