<svg xmlns="http://www.w3.org/2000/svg" viewBox="0 0 400 400"><defs><linearGradient id="gradient_0" gradientUnits="userSpaceOnUse" x1="740.69061" y1="319.18909" x2="737.78241" y2="316.71356"><stop offset="0" stop-color="#442310"/><stop offset="1" stop-color="#503835"/></linearGradient></defs><g transform="scale(2.0408)"><path fill="white" transform="scale(0.21875 0.21875)" d="M0 0L896 0L896 1152L0 1152L0 0Z"/>
<path fill="CLO2" transform="scale(0.21875 0.21875)" d="M500.852 459.559C491.181 451.991 484.176 445.533 476.921 435.441C461.057 413.169 454.745 385.483 459.387 358.535C467.886 306.734 517.269 268.906 569.35 272.923C576.099 273.444 582.005 274.318 588.712 275.443C587.465 278.516 586.767 280.28 585.933 283.478C583.673 284.965 583.443 285.302 581.854 287.513C566.402 282.904 548.836 282.612 534.349 290.464C524.334 295.949 516.933 305.216 513.797 316.196C510.759 326.586 510.899 343.123 514.626 353.261C508.527 359.355 508.756 364.065 514.241 370.592L514.072 370.907L514.755 372.113C517.4 372.213 520.305 373.629 522.81 374.649C523.69 377.31 524.638 379.948 525.653 382.561L526.378 384.144C531.585 392.288 537.765 401.041 547.49 404.317C559.273 407.934 564.766 408.386 576.897 404.528C576.912 407.468 577.072 411.66 576.938 414.495C577.008 415.852 576.961 418.133 577.535 419.26C581.686 416.438 583.618 418.567 588.008 420.545C605.299 424.309 622.028 430.438 624.095 450.545C624.365 453.17 624.232 455.987 624.52 458.555C618.553 463.221 610.721 468.027 603.69 470.945L599.746 472.705C588.356 477.01 581.417 478.287 569.3 479.781L556.697 479.842C544.266 478.664 537.803 477.275 525.991 473.217L522.021 471.571C514.518 468.412 507.413 464.38 500.852 459.559Z"/>
<path fill="CLO1" transform="scale(0.21875 0.21875)" d="M547.49 404.317C559.273 407.934 564.766 408.386 576.897 404.528C576.912 407.468 577.072 411.66 576.938 414.495C577.008 415.852 576.961 418.133 577.535 419.26C581.686 416.438 583.618 418.567 588.008 420.545C605.299 424.309 622.028 430.438 624.095 450.545C624.365 453.17 624.232 455.987 624.52 458.555C618.553 463.221 610.721 468.027 603.69 470.945L599.746 472.705C588.356 477.01 581.417 478.287 569.3 479.781L556.697 479.842C544.266 478.664 537.803 477.275 525.991 473.217L522.021 471.571C514.518 468.412 507.413 464.38 500.852 459.559C500.974 451.906 500.722 445.295 504.857 438.501C512.033 426.712 524.177 423.775 536.495 420.668C540.9 418.979 542.756 417.052 547.074 419.41C547.743 416.882 547.6 413.708 547.632 411.03C547.441 409.699 547.505 405.849 547.49 404.317Z"/>
<path fill="CLO1" transform="scale(0.21875 0.21875)" d="M588.008 420.545C605.299 424.309 622.028 430.438 624.095 450.545C624.365 453.17 624.232 455.987 624.52 458.555C618.553 463.221 610.721 468.027 603.69 470.945L599.746 472.705C588.356 477.01 581.417 478.287 569.3 479.781C568.61 472.812 569.138 452.317 569.114 444.341C574.658 436.724 581.93 427.721 588.008 420.545Z"/>
<path fill="CLO2" transform="scale(0.21875 0.21875)" d="M599.746 472.705C599.668 465.863 599.694 459.02 599.826 452.178C601.049 458.472 602.229 464.701 603.69 470.945L599.746 472.705Z"/>
<path fill="#E5E5E5" transform="scale(0.21875 0.21875)" d="M547.49 404.317C559.273 407.934 564.766 408.386 576.897 404.528C576.912 407.468 577.072 411.66 576.938 414.495C577.008 415.852 576.961 418.133 577.535 419.26C581.686 416.438 583.618 418.567 588.008 420.545C581.93 427.721 574.658 436.724 569.114 444.341C569.138 452.317 568.61 472.812 569.3 479.781L556.697 479.842C556.531 468.198 556.54 456.553 556.723 444.909C550.731 437.185 542.909 428.073 536.495 420.668C540.9 418.979 542.756 417.052 547.074 419.41C547.743 416.882 547.6 413.708 547.632 411.03C547.441 409.699 547.505 405.849 547.49 404.317Z"/>
<path fill="CLO3" transform="scale(0.21875 0.21875)" d="M562.753 442.308C563.656 441.971 564.671 442.154 565.4 442.784C566.129 443.414 566.458 444.391 566.256 445.334C566.054 446.276 565.355 447.034 564.432 447.31C563.068 447.719 561.625 446.972 561.172 445.622C560.719 444.271 561.419 442.805 562.753 442.308Z"/>
<path fill="CLO3" transform="scale(0.21875 0.21875)" d="M562.559 463.262C563.429 462.881 564.437 463.008 565.186 463.591C565.936 464.174 566.306 465.121 566.15 466.057C565.995 466.994 565.339 467.771 564.442 468.081C563.128 468.535 561.691 467.871 561.185 466.576C560.679 465.282 561.286 463.819 562.559 463.262Z"/>
<path fill="CLO3" transform="scale(0.21875 0.21875)" d="M562.338 453.103C563.154 452.603 564.179 452.595 565.002 453.083C565.825 453.571 566.31 454.474 566.263 455.43C566.215 456.385 565.643 457.236 564.775 457.64C563.536 458.217 562.062 457.727 561.415 456.522C560.768 455.318 561.173 453.818 562.338 453.103Z"/>
<path fill="CLO2" transform="scale(0.21875 0.21875)" d="M525.635 452.624C525.834 459.448 525.729 466.502 525.991 473.217L522.021 471.571C523.277 465.265 524.482 458.949 525.635 452.624Z"/>
<path fill="CLO1" transform="scale(0.21875 0.21875)" d="M516.094 387.379L521.201 387.614C522.403 392.258 524.636 406.561 518.534 408.474C512.574 405.94 515.356 392.731 516.094 387.379Z"/>
<path fill="CLO2" transform="scale(0.21875 0.21875)" d="M514.755 372.113C517.4 372.213 520.305 373.629 522.81 374.649C523.69 377.31 524.638 379.948 525.653 382.561C516.89 389.538 506.592 382.444 514.755 372.113Z"/>
<path fill="CLO2" transform="scale(0.21875 0.21875)" d="M588.712 275.443C593.789 267.679 600.647 263.106 609.637 261.157C629.395 256.873 646.49 270.205 649.942 289.592C651.786 299.95 650.674 309.001 648.404 319.12C664.11 344.349 670.025 369.973 663.217 399.486C657.889 423.209 644.14 444.196 624.52 458.555C624.232 455.987 624.365 453.17 624.095 450.545C622.028 430.438 605.299 424.309 588.008 420.545C583.618 418.567 581.686 416.438 577.535 419.26C576.961 418.133 577.008 415.852 576.938 414.495C577.072 411.66 576.912 407.468 576.897 404.528C582.881 401.847 589.521 397.441 593.342 392.002C594.695 390.075 596.869 386.412 598.339 384.906L601.892 386.394L602.129 385.699C600.973 384.712 600.619 384.377 599.609 383.246C599.051 380.029 600.755 377.306 602.092 374.136C604.106 373.341 606.49 372.727 608.916 371.755L609.261 370.844C616.895 366.489 615.442 358.386 609.623 353.088C614.069 339.274 613.65 318.607 605.968 306.18C604.469 303.756 601.272 300.407 599.334 298.094L600.983 294.581C596.848 288.752 592.554 285.786 585.933 283.478C586.767 280.28 587.465 278.516 588.712 275.443Z"/>
<path fill="CLO1" transform="scale(0.21875 0.21875)" d="M603.165 387.6L608.025 387.521C608.944 392.475 611.6 407.068 604.949 408.236C599.09 405.814 601.866 392.514 603.165 387.6Z"/>
<path fill="CLO4" transform="scale(0.21875 0.21875)" d="M602.092 374.136C604.106 373.341 606.49 372.727 608.916 371.755C612.03 375.281 614.935 379.528 610.617 383.337C607.146 386.398 605.557 384.493 602.129 385.699C600.973 384.712 600.619 384.377 599.609 383.246C599.051 380.029 600.755 377.306 602.092 374.136Z"/>
<path fill="white" transform="scale(0.21875 0.21875)" d="M548.987 382.604C557.534 382.28 566.598 382.388 575.188 382.353C574.023 385.341 573.742 385.899 571.891 388.55C563.588 394.102 553.028 392.622 548.987 382.604Z"/>
<path fill="CLO1" transform="scale(0.21875 0.21875)" d="M558.021 373.597C559.676 373.141 563.785 373.703 566.743 373.173L567.554 373.537C564.257 377.247 561.376 377.324 558.021 373.597Z"/>
<path fill="CLO2" transform="scale(0.21875 0.21875)" d="M725.956 194.606C719.246 189.54 713.123 183.74 707.702 177.312C690.281 156.214 681.981 129.046 684.638 101.813C687.087 74.982 700.193 50.2536 721.02 33.1633C742.773 14.9884 770.955 6.39098 799.148 9.32882C826.449 11.9646 851.572 25.3794 868.95 46.6009C886.435 67.9527 894.671 95.403 891.828 122.855C888.827 151.406 874.917 175.338 852.804 193.318C846.464 198.356 839.6 202.695 832.33 206.261L829.775 207.513C819.494 212.254 811.362 213.645 800.416 215.605L799.21 215.435C795.119 215.983 793.327 216.04 789.178 215.964L787.014 216.241C785.217 215.867 780.811 215.579 778.792 215.393L777.383 215.54C768.184 213.562 757.262 212.046 748.794 207.682L748.021 207.479C740.336 204.118 732.563 199.777 725.956 194.606Z"/>
<path fill="white" transform="scale(0.21875 0.21875)" d="M776.182 116.603C784.232 116.301 793.5 116.537 801.639 116.552C800.411 119.657 800.202 120.164 798.119 122.787C790.284 128.612 779.071 126.855 776.182 116.603Z"/>
<path fill="CLO3" transform="scale(0.21875 0.21875)" d="M774.393 139.012C785.468 142.62 792.319 143.517 803.615 138.99C803.63 141.907 803.477 145.788 804.152 148.52L804.772 149.66C807.559 147.911 818.992 150.722 821.902 152.75C822.792 154.346 822.407 154.334 822.186 156.582L822.888 157.274C833.615 160.07 842.719 164.616 848.831 174.218C853.545 181.624 851.241 189.393 852.804 193.318C846.464 198.356 839.6 202.695 832.33 206.261L829.775 207.513C819.494 212.254 811.362 213.645 800.416 215.605L799.21 215.435C795.119 215.983 793.327 216.04 789.178 215.964L787.014 216.241C785.217 215.867 780.811 215.579 778.792 215.393L777.383 215.54C768.184 213.562 757.262 212.046 748.794 207.682L748.021 207.479C747.88 201.77 748.966 192.003 749.218 185.585C753.828 185.65 783.314 185.945 786.708 185.224L787.238 184.12L787.459 177.251C786.075 173.499 782.399 166.383 780.523 162.509L780.001 161.564C778.067 158.357 775.169 153.935 773.959 150.528C774.588 148.367 774.436 145.65 774.454 143.34L774.393 139.012Z"/>
<path fill="CLO4" transform="scale(0.21875 0.21875)" d="M787.459 177.251L789.185 177.582L789.762 177.039C789.539 180.152 789.427 182.425 789.474 185.539L830.107 185.528C830.145 192.334 831.344 199.492 832.33 206.261L829.775 207.513C819.494 212.254 811.362 213.645 800.416 215.605L799.21 215.435C795.119 215.983 793.327 216.04 789.178 215.964L787.014 216.241C785.217 215.867 780.811 215.579 778.792 215.393L777.383 215.54C768.184 213.562 757.262 212.046 748.794 207.682L748.021 207.479C747.88 201.77 748.966 192.003 749.218 185.585C753.828 185.65 783.314 185.945 786.708 185.224L787.238 184.12L787.459 177.251Z"/>
<path fill="CLO3" transform="scale(0.21875 0.21875)" d="M813.925 198.843C818.716 197.211 824.123 195.028 828.911 193.218C829.069 198.232 829.173 202.518 829.775 207.513C819.494 212.254 811.362 213.645 800.416 215.605C800.348 208.217 800.384 200.829 800.523 193.443C805.628 195.202 809.002 196.656 813.925 198.843Z"/>
<path fill="CLO3" transform="scale(0.21875 0.21875)" d="M749.944 193.845C755.144 195.494 758.982 196.907 764.035 198.962C768.143 197.348 773.046 195.27 777.183 193.929L777.383 215.54C768.184 213.562 757.262 212.046 748.794 207.682C750.476 205.321 749.959 197.39 749.944 193.845Z"/>
<path fill="CLO3" transform="scale(0.21875 0.21875)" d="M789.502 186.379L799.303 187.02C799.003 195.928 799.219 206.419 799.21 215.435C795.119 215.983 793.327 216.04 789.178 215.964C789.983 207.407 789.311 195.467 789.502 186.379Z"/>
<path fill="CLO3" transform="scale(0.21875 0.21875)" d="M778.885 186.989L787.341 186.821C787.204 196.438 786.812 206.7 787.014 216.241C785.217 215.867 780.811 215.579 778.792 215.393C779.01 205.927 779.041 196.457 778.885 186.989Z"/>
<path fill="CLO5" transform="scale(0.21875 0.21875)" d="M787.459 177.251L789.185 177.582C789.127 179.338 789.187 183.755 788.488 185.051C787.443 184.764 787.87 185.06 787.238 184.12L787.459 177.251Z"/>
<path fill="CLO3" transform="scale(0.21875 0.21875)" d="M808.124 187.023C812.572 186.875 825.787 186.096 828.287 189.677L827.751 191.079C825.777 193.096 823.264 193.55 820.491 194.434C818.182 195.444 815.95 196.132 813.563 196.918C809.259 195.135 802.718 193.51 800.209 189.706C800.435 186.357 805.555 186.99 808.124 187.023Z"/>
<path fill="CLO3" transform="scale(0.21875 0.21875)" d="M750.871 187.305C756.387 187.38 771.401 186.436 776.029 187.458C776.931 188.724 776.626 189.096 776.732 190.971C775.673 192.819 775.205 192.579 772.994 193.611C769.927 194.702 767.065 196.079 764.108 197.437C761.24 196.005 758.75 195.417 755.701 194.535C750.491 193.027 750.789 191.775 750.871 187.305Z"/>
<path fill="CLO3" transform="scale(0.21875 0.21875)" d="M804.772 149.66C807.559 147.911 818.992 150.722 821.902 152.75C822.792 154.346 822.407 154.334 822.186 156.582C820.185 160.035 816.461 171.351 815.078 175.467C809.864 170.631 802.669 165.721 798.402 161.563C800.775 157.51 803.245 154.105 804.772 149.66Z"/>
<path fill="CLO4" transform="scale(0.21875 0.21875)" d="M822.186 156.582L822.888 157.274C821.168 164.035 818.334 170.974 816.148 177.707C809.8 172.994 803.657 168.013 797.735 162.776L798.402 161.563C802.669 165.721 809.864 170.631 815.078 175.467C816.461 171.351 820.185 160.035 822.186 156.582Z"/>
<path fill="CLO3" transform="scale(0.21875 0.21875)" d="M756.359 157.369C755.733 155.357 755.321 154.651 755.634 152.645C758.379 150.565 764.939 149.992 768.51 149.499C771.694 149.059 771.903 148.923 773.959 150.528C775.169 153.935 778.067 158.357 780.001 161.564L780.523 162.509C782.399 166.383 786.075 173.499 787.459 177.251L787.238 184.12L786.708 185.224C783.314 185.945 753.828 185.65 749.218 185.585C748.966 192.003 747.88 201.77 748.021 207.479C740.336 204.118 732.563 199.777 725.956 194.606C727.518 188.334 725.085 183.408 729.794 175.184C735.611 165.026 744.243 161.139 755.023 157.96L756.359 157.369Z"/>
<path fill="CLO3" transform="scale(0.21875 0.21875)" d="M756.359 157.369C755.733 155.357 755.321 154.651 755.634 152.645C758.379 150.565 764.939 149.992 768.51 149.499C771.694 149.059 771.903 148.923 773.959 150.528C775.169 153.935 778.067 158.357 780.001 161.564C775.108 164.677 767.378 171.542 763.049 175.452L756.359 157.369Z"/>
<path fill="CLO4" transform="scale(0.21875 0.21875)" d="M756.359 157.369L763.049 175.452C767.378 171.542 775.108 164.677 780.001 161.564L780.523 162.509C774.461 167.102 768.891 172.775 762.14 177.799C759.693 171.567 756.977 164.314 755.023 157.96L756.359 157.369Z"/>
<path fill="CLO2" transform="scale(0.21875 0.21875)" d="M273.699 195.292C250.706 177.904 236.246 154.836 232.267 126.031C228.431 99.3275 235.401 72.1959 251.633 50.6483C268.311 28.3413 293.201 13.6138 320.781 9.73402C348.771 5.86619 377.138 13.4472 399.468 30.7627C421 47.21 435.1 71.5539 438.651 98.4171C442.253 125.558 434.925 153.018 418.278 174.755C411.8 183.148 405.763 188.489 397.541 194.885C397.225 182.948 397.412 180.147 390.571 170.187C393.186 165.678 394.676 161.531 395.414 156.353C396.742 147.026 395.961 136.817 395.941 127.379C395.896 106.63 397.715 83.645 392.325 63.4532C388.481 49.0524 379.362 35.5882 366.212 28.1925C361.95 25.7954 357.145 23.9409 352.323 23.0763C345.572 21.866 320.769 22.2555 314.165 24.1226C301.182 27.7934 290.861 37.17 284.367 48.8164C280.365 55.9924 277.961 63.8524 276.701 71.9497C274.578 85.5803 273.318 151.993 276.862 163.976C277.567 166.362 278.548 168.82 279.738 171.009C273.594 180.548 273.992 183.96 273.699 195.292Z"/>
<path fill="CLO1" transform="scale(0.21875 0.21875)" d="M320.732 139.28C332.354 143.303 338.334 143.036 350.109 139.27C350.105 142.307 350.217 146.249 350.033 149.207C350.052 151.64 349.602 152.287 350.904 153.799L354.093 154.327C356.448 154.708 358.423 155.053 360.76 155.581C373.125 158.712 381.266 160.697 390.571 170.187C397.412 180.147 397.225 182.948 397.541 194.885C391.085 199.538 383.969 204.065 376.647 207.224L372.677 208.92C350.606 219.555 321.219 217.054 298.775 209.183L294.958 207.532C286.882 204.042 280.836 200.288 273.699 195.292C273.992 183.96 273.594 180.548 279.738 171.009C288.936 160.965 296.195 159.339 308.913 155.96C311.648 155.297 314.756 154.784 317.549 154.263L320.96 153.776C320.28 150.28 320.624 143.079 320.732 139.28Z"/>
<path fill="CLO2" transform="scale(0.21875 0.21875)" d="M298.278 188.368C298.712 195.443 298.561 202.169 298.775 209.183L294.958 207.532L298.278 188.368Z"/>
<path fill="CLO2" transform="scale(0.21875 0.21875)" d="M374.71 196.883C375.263 200.136 375.831 204.094 376.647 207.224L372.677 208.92L372.848 198.012L374.71 196.883Z"/>
<path fill="CLO5" transform="scale(0.21875 0.21875)" d="M372.848 198.012C372.749 194.773 372.989 192.329 373.272 189.093L374.71 196.883L372.848 198.012Z"/>
<path fill="white" transform="scale(0.21875 0.21875)" d="M324.245 116.691C332.394 116.632 340.541 116.517 348.687 116.346C346.941 120.105 346.648 120.649 343.792 123.414C336.646 127.774 322.291 125.306 323.065 117.177L324.245 116.691Z"/>
<path fill="CLO1" transform="scale(0.21875 0.21875)" d="M331.413 108.114C330.772 108.327 338.115 107.758 341.014 107.056C339.039 112.031 334.436 112.209 331.413 108.114Z"/>
<path fill="CLO2" transform="scale(0.21875 0.21875)" d="M273.545 459.408C237.69 432.761 222.907 386.158 236.845 343.713C250.783 301.268 290.315 272.504 334.986 272.304C379.658 272.104 419.446 300.512 433.764 342.831C448.082 385.149 433.717 431.883 398.101 458.85C391.586 463.783 384.512 467.93 377.024 471.203C375.868 471.709 374.702 472.193 373.528 472.656C349.386 482.178 322.552 482.309 298.317 473.022C297.034 472.531 295.761 472.014 294.498 471.471C287.068 468.28 280.036 464.232 273.545 459.408Z"/>
<path fill="CLO2" transform="scale(0.21875 0.21875)" d="M351.496 289.917C355.728 291.174 357.76 291.968 361.714 293.977C359.117 295.154 356.251 295.939 353.619 294.842C352.408 293.024 352.174 291.964 351.496 289.917Z"/>
<path fill="CLO2" transform="scale(0.21875 0.21875)" d="M318.232 290.186C322.345 289.075 324.947 288.468 329.147 287.819C327.389 289.787 325.369 291.918 323.826 294.028L318.232 290.186Z"/>
<path fill="CLO1" transform="scale(0.21875 0.21875)" d="M331.503 372.625C335.242 373.649 339.652 373.13 340.874 373.714C337.345 376.865 333.83 377.12 331.503 372.625Z"/>
<path fill="CLO3" transform="scale(0.21875 0.21875)" d="M312.766 352.344C319.023 352.886 317.295 358.975 314.78 362.622C309.068 361.29 310.304 356.146 312.766 352.344Z"/>
<path fill="CLO3" transform="scale(0.21875 0.21875)" d="M356.159 352.259C362.493 352.911 361.247 358.606 358.673 362.638C353.104 360.384 354.101 356.807 356.159 352.259Z"/>
<path fill="CLO1" transform="scale(0.21875 0.21875)" d="M357.101 402.475C361.261 402.904 364.895 403.352 368.663 405.324C373.313 410.833 375.315 415.616 372.274 422.736L372.166 423.532C392.333 432.313 397.298 436.648 398.101 458.85C391.586 463.783 384.512 467.93 377.024 471.203C375.868 471.709 374.702 472.193 373.528 472.656C349.386 482.178 322.552 482.309 298.317 473.022C297.034 472.531 295.761 472.014 294.498 471.471C287.068 468.28 280.036 464.232 273.545 459.408C273.888 436.424 278.939 432.463 299.598 423.296L299.736 422.701C295.855 416.002 298.913 411.493 302.736 405.577C306.146 403.121 310.476 402.91 314.551 402.555C316.884 403.375 319.04 404.091 321.282 405.165C330.342 407.769 340.935 408.476 349.942 405.308L357.101 402.475Z"/>
<path fill="CLO2" transform="scale(0.21875 0.21875)" d="M298.412 451.815L298.317 473.022C297.034 472.531 295.761 472.014 294.498 471.471C295.88 464.935 297.185 458.382 298.412 451.815Z"/>
<path fill="CLO2" transform="scale(0.21875 0.21875)" d="M374.425 459.088C374.971 461.754 376.26 468.95 377.024 471.203C375.868 471.709 374.702 472.193 373.528 472.656L373.005 469.334C373.343 466.169 373.137 461.389 374.425 459.088Z"/>
<path fill="CLO5" transform="scale(0.21875 0.21875)" d="M373.005 469.334C372.787 463.385 372.847 457.429 373.185 451.485C373.735 454.086 374.058 456.461 374.425 459.088C373.137 461.389 373.343 466.169 373.005 469.334Z"/>
<path fill="CLO1" transform="scale(0.21875 0.21875)" d="M279.399 342.32C279.088 324.725 282.284 311.481 294.761 298.245C315.658 276.076 354.91 276.105 376.238 297.577C388.353 309.695 392.784 325.391 392.92 342.115C395.693 344.725 396.184 345.264 398.215 348.47C398.476 363.007 401.805 374.84 384.274 378.694C384.126 368.417 384.587 352.002 384.607 341.288C384.602 340.128 386.907 339.738 386.958 339.057C388.397 320.019 376.75 302.534 361.714 293.977C357.76 291.968 355.728 291.174 351.496 289.917C344.141 287.361 336.819 287.135 329.147 287.819C324.947 288.468 322.345 289.075 318.232 290.186C305.734 294.43 295.445 303.486 289.647 315.344C286.085 322.55 284.441 331.269 284.615 339.28L285.238 340.117L286.988 340.214C287.829 342.81 288.01 374.287 287.659 378.522C280.902 377.215 277.628 375.594 274.141 369.345C273.895 363.281 273.567 354.275 274.037 348.264C276.141 345.272 276.643 344.729 279.399 342.32Z"/>
<path fill="CLO2" transform="scale(0.21875 0.21875)" d="M46.5293 195.073C39.4863 189.16 34.7506 185.363 28.7296 178.23C11.2074 157.253 2.61406 130.237 4.79676 102.99C7.43661 75.5306 20.862 50.2398 42.1267 32.6683C63.4707 14.8631 91.0929 6.41901 118.743 9.24659C146.467 11.9733 171.975 25.5911 189.667 47.1098C206.931 68.2679 215.055 95.4319 212.244 122.595C209.172 153.152 194.271 175.51 171.116 194.606C164.178 199.835 157.432 203.515 149.555 207.124L146.321 208.793C122.431 218.588 95.9493 218.073 71.8872 209.189L67.9889 207.385C62.5932 205.201 51.3548 198.525 46.5293 195.073Z"/>
<path fill="#E5E5E5" transform="scale(0.21875 0.21875)" d="M93.8503 139.714C105.715 142.686 111.168 143.673 123.176 139.379L123.186 149.005C123.253 151.263 122.891 152.199 124.023 153.818L125.494 154.116C128.386 154.075 130.233 154.72 133.015 155.472C145.819 157.746 157.511 161.877 165.469 172.632C172.604 182.273 169.255 190.134 171.116 194.606C164.178 199.835 157.432 203.515 149.555 207.124L146.321 208.793C122.431 218.588 95.9493 218.073 71.8872 209.189L67.9889 207.385C62.5932 205.201 51.3548 198.525 46.5293 195.073C48.3646 191.852 45.1686 182.955 50.5946 174.432C58.5286 161.969 70.4667 159.292 83.7576 155.585C86.3061 154.948 88.5547 154.185 91.152 154.339C92.3366 154.001 92.3343 153.954 93.452 153.412C94.5103 150.817 94.0057 146.668 93.8837 143.73L93.8503 139.714Z"/>
<path fill="CLO1" transform="scale(0.21875 0.21875)" d="M125.494 154.116C128.386 154.075 130.233 154.72 133.015 155.472C127.564 175.16 95.4411 176.584 85.1752 158.263C84.6841 157.38 84.2114 156.488 83.7576 155.585C86.3061 154.948 88.5547 154.185 91.152 154.339C98.6075 168.671 124.039 165.549 125.494 154.116Z"/>
<path fill="CLO4" transform="scale(0.21875 0.21875)" d="M71.6565 187.969C71.8312 193.91 72.2671 203.368 71.8872 209.189L67.9889 207.385C69.3447 200.939 70.5675 194.466 71.6565 187.969Z"/>
<path fill="CLO2" transform="scale(0.21875 0.21875)" d="M146.07 208.16C146.086 204.489 145.946 199.328 146.485 195.818L147.216 195.407L149.555 207.124L146.321 208.793L146.07 208.16Z"/>
<path fill="CLO4" transform="scale(0.21875 0.21875)" d="M146.07 208.16C145.166 205.072 145.727 192.661 145.895 188.913C146.597 191.145 146.846 193.109 147.216 195.407L146.485 195.818C145.946 199.328 146.086 204.489 146.07 208.16Z"/>
<path fill="white" transform="scale(0.21875 0.21875)" d="M97.9941 116.727C101.375 116.697 119.379 115.994 120.773 117.268C120.733 119.997 118.523 121.979 116.682 123.86C113.421 125.627 110.016 126.424 106.301 125.926C102.4 125.404 95.4236 121.95 96.211 117.212L97.9941 116.727Z"/>
<path fill="CLO1" transform="scale(0.21875 0.21875)" d="M104.119 107.519C108.735 108.47 109.446 108.791 114.034 107.433C111.317 112.049 107.06 111.983 104.119 107.519Z"/>
<path fill="CLO2" transform="scale(0.21875 0.21875)" d="M47.0458 459.166C23.4837 440.753 8.93235 418.345 5.21217 388.197C1.92621 361.438 9.30825 334.461 25.7609 313.103C42.7516 291.245 67.7409 277.047 95.2143 273.643C124.096 270.113 150.873 277.83 173.695 295.79C194.992 312.442 208.751 336.916 211.913 363.766C215.236 390.681 207.671 417.808 190.898 439.117C184.709 446.92 178.449 452.751 170.537 458.761C164.514 462.977 156.282 468.223 149.45 470.992L145.891 472.841C117.151 482.469 100.054 481.568 71.4606 472.982L68.151 471.251C62.7646 469.231 51.7004 462.619 47.0458 459.166Z"/>
<path fill="white" transform="scale(0.21875 0.21875)" d="M95.7806 382.144C103.215 381.727 113.661 382.066 121.321 382.078C119.998 385.025 119.71 385.666 117.719 388.209C110.37 393.489 98.0858 392.258 95.7806 382.144Z"/>
<path fill="#E5E5E5" transform="scale(0.21875 0.21875)" d="M94.0263 404.715C106.023 407.866 111.506 408.519 123.166 404.336L123.184 413.879C123.186 416.263 122.811 416.791 123.9 418.676L125.429 419.04C128.385 418.943 130.269 419.567 133.127 420.289C145.281 422.823 158.416 426.402 165.67 437.41C170.625 444.928 169.973 450.451 170.537 458.761C164.514 462.977 156.282 468.223 149.45 470.992L145.891 472.841C117.151 482.469 100.054 481.568 71.4606 472.982L68.151 471.251C62.7646 469.231 51.7004 462.619 47.0458 459.166C47.8323 451.127 46.5207 446.003 51.3652 438.061C58.3892 426.547 71.5454 423.587 83.6561 420.489L91.5346 418.767L94.3951 418.273C93.9131 414.848 94.0524 408.391 94.0263 404.715Z"/>
<path fill="CLO1" transform="scale(0.21875 0.21875)" d="M91.5346 418.767C98.0857 433.041 124.418 429.88 125.429 419.04C128.385 418.943 130.269 419.567 133.127 420.289C129.816 433.007 112.991 438.116 101.49 434.8C93.0665 432.372 88.2186 428.353 83.8822 420.885L83.6561 420.489L91.5346 418.767Z"/>
<path fill="CLO4" transform="scale(0.21875 0.21875)" d="M70.4992 457.899L71.1484 457.826C71.9113 462.036 71.2933 466.491 71.9023 470.384C71.8188 471.783 71.9521 471.734 71.4606 472.982L68.151 471.251L70.4992 457.899Z"/>
<path fill="CLO4" transform="scale(0.21875 0.21875)" d="M147.144 458.507L149.45 470.992L145.891 472.841C146.588 468.387 145.39 461.722 147.144 458.507Z"/>
<path fill="CLO3" transform="scale(0.21875 0.21875)" d="M145.843 451.874C146.52 454.144 146.783 456.182 147.144 458.507C145.39 461.722 146.588 468.387 145.891 472.841C145.3 469.159 145.74 455.855 145.843 451.874Z"/>
<path fill="CLO2" transform="scale(0.21875 0.21875)" d="M500.463 195.053C493.355 189.117 488.62 185.352 482.452 178.224C464.872 157.741 456.188 131.09 458.323 104.181C460.359 76.3847 473.171 51.9967 494.22 33.846C515.151 15.7213 542.5 6.79055 570.093 9.06923C598.019 11.2227 623.897 24.5472 641.872 46.0285C672.705 82.3069 674.003 135.153 645.727 173.408C639.28 182.13 633.201 187.498 624.951 194.467C624.443 193.43 624.395 191.165 624.324 189.956C623.763 180.49 623.323 178.725 618.3 171.037C619.926 168.166 621.743 164.814 621.874 161.434C622.822 136.969 621.784 112.298 621.893 87.7888C621.909 84.0576 621.792 80.117 621.5 76.4184C621.143 71.5469 620.311 66.722 619.014 62.0127C609.765 28.5121 575.468 13.6071 543.318 22.9208C529.378 26.8879 517.654 36.3602 510.846 49.1562C507.31 55.8084 504.946 63.0195 503.855 70.4738C502.052 82.5501 500.914 158.551 503.661 166.733C504.272 168.553 505.233 170.002 506.446 171.468C498.924 182.818 502.544 184.514 500.463 195.053Z"/>
<path fill="#E5E5E5" transform="scale(0.21875 0.21875)" d="M547.401 139.213C558.459 142.496 565.563 142.932 576.72 139.215C576.82 143.884 577.07 148.964 576.607 153.576L580.588 153.548L587.873 155.414C600.121 158.513 609.968 160.832 618.3 171.037C623.323 178.725 623.763 180.49 624.324 189.956C624.395 191.165 624.443 193.43 624.951 194.467C618.445 198.705 610.692 203.858 603.641 206.892L600.172 208.65C573.992 218.321 551.54 218.438 525.351 209.133L521.727 207.38C515.988 205.192 505.534 198.624 500.463 195.053C502.544 184.514 498.924 182.818 506.446 171.468C515.053 161.103 524.41 158.951 536.816 155.537C539.027 155.064 541.552 154.354 543.771 153.781L547.703 153.447C547.152 149.768 547.382 143.14 547.401 139.213Z"/>
<path fill="CLO1" transform="scale(0.21875 0.21875)" d="M580.588 153.548L587.873 155.414C581.122 168.816 570.399 185.586 562.44 198.695C553.448 184.581 544.903 170.188 536.816 155.537C539.027 155.064 541.552 154.354 543.771 153.781C549.902 164.125 555.868 174.792 562.22 184.934C568.781 174.293 574.309 164.186 580.588 153.548Z"/>
<path fill="CLO4" transform="scale(0.21875 0.21875)" d="M525.59 187.569C525.685 191.249 526.378 206.814 525.351 209.133L521.727 207.38C523.361 201.035 524.448 194.064 525.59 187.569Z"/>
<path fill="CLO2" transform="scale(0.21875 0.21875)" d="M599.863 187.661C601.056 194.084 602.316 200.495 603.641 206.892L600.172 208.65C599.123 206.23 599.777 191.383 599.863 187.661Z"/>
<path fill="white" transform="scale(0.21875 0.21875)" d="M548.94 116.587L575.443 116.429C573.913 119.436 573.511 120.201 571.381 122.817C563.743 128.271 551.909 126.834 548.94 116.587Z"/>
<path fill="CLO1" transform="scale(0.21875 0.21875)" d="M557.755 106.966C562.168 109.025 562.553 108.766 567.376 107.561C564.657 111.929 559.922 111.838 557.755 106.966Z"/>
<path fill="CLO3" transform="scale(0.21875 0.21875)" d="M538.81 86.86C544.996 87.8609 544.366 93.5845 540.944 97.4949C535.077 95.8381 536.173 90.9539 538.81 86.86Z"/>
<path fill="CLO3" transform="scale(0.21875 0.21875)" d="M583.439 86.7944C589.114 88.0531 588.568 93.4133 585.763 97.3513C579.642 96.3705 580.852 90.7748 583.439 86.7944Z"/>
<path fill="CLO2" transform="scale(0.21875 0.21875)" d="M725.284 458.461C690.076 431.472 675.92 385.084 690.058 343.033C704.196 300.982 743.502 272.572 787.862 272.338C832.223 272.105 871.825 300.101 886.405 342C900.985 383.9 887.317 430.434 852.395 457.793C851.938 454.124 851.395 450.467 850.768 446.823C849.008 449.671 848.451 450.769 844.997 450.809C840.872 449.194 841.267 446.308 841.723 442.661L840.425 440.445C839.827 437.64 841.202 421.999 841.297 417.766C841.506 401.132 841.507 384.497 841.301 367.864C841.078 352.182 842.177 337.525 837.654 322.306C837.135 320.477 837.295 320.57 838.088 318.847C832.538 312.661 831.881 311.355 827.145 305.181L829.136 302.849C817.671 292.883 807.531 292.94 793.387 293.968C790.802 292.547 791.975 288.787 792.769 286.494C790.703 286.66 789.073 286.858 786.992 286.697C787.561 289.554 788.085 291.361 786.53 293.813C783.451 295.623 760.426 288.696 749.088 302.713C748.746 304.22 747.661 307.634 747.761 308.826C746.054 311.945 744.847 313.622 742.238 316.15C740.64 317.435 739.253 318.229 738.546 320.085C739.18 321.656 738.648 321.072 740.284 321.806C740.044 327.21 737.782 333.091 737.536 338.363C737.172 346.153 737.338 354.151 737.327 361.959L737.284 401.59C737.31 406.693 737.001 427.138 737.737 431.379C735.734 434.157 736.184 436.482 736.195 440.092L736.432 448.582C731.528 452.537 729.044 450.831 727.003 445.479C726.598 447.418 725.587 457.932 725.284 458.461Z"/>
<path fill="CLO1" transform="scale(0.21875 0.21875)" d="M802.573 438.66L801.922 449.933L801.514 452.904L801.436 462.45C793.372 462.522 785.308 462.515 777.244 462.428L776.829 453.27L776.5 447.598C776.127 444.682 775.937 441.788 775.717 438.857C782.082 439.939 796.124 439.387 802.573 438.66Z"/>
<path fill="CLO1" transform="scale(0.21875 0.21875)" d="M776.829 453.27C784.122 453.405 794.266 453.682 801.514 452.904L801.436 462.45C793.372 462.522 785.308 462.515 777.244 462.428L776.829 453.27Z"/>
<path fill="#E5E5E5" transform="scale(0.21875 0.21875)" d="M776.5 447.598C779.003 447.653 800.497 447.518 801.49 448.043L801.922 449.933L801.514 452.904C794.266 453.682 784.122 453.405 776.829 453.27L776.5 447.598Z"/>
<path fill="CLO1" transform="scale(0.21875 0.21875)" d="M773.948 423.232C783.357 428.732 788.455 430.565 798.586 425.997C800.344 425.205 803.034 423.324 804.511 422.922L803.374 432.11L802.573 438.66C796.124 439.387 782.082 439.939 775.717 438.857L775.085 432.734C774.792 429.557 774.413 426.388 773.948 423.232Z"/>
<path fill="#E5E5E5" transform="scale(0.21875 0.21875)" d="M775.085 432.734C787.647 435.277 791.338 435.496 803.374 432.11L802.573 438.66C796.124 439.387 782.082 439.939 775.717 438.857L775.085 432.734Z"/>
<path fill="CLO1" transform="scale(0.21875 0.21875)" d="M763.285 446.507L767.301 446.507L767.32 446.978C767.948 450.981 767.823 456.021 767.855 460.148L767.999 465.873C766.747 467.246 765.746 467.027 763.903 466.648L763.967 465.629L763.343 448.161L763.285 446.507Z"/>
<path fill="#E5E5E5" transform="scale(0.21875 0.21875)" d="M763.967 465.629C764.292 461.291 763.81 461.648 767.855 460.148L767.999 465.873C766.747 467.246 765.746 467.027 763.903 466.648L763.967 465.629Z"/>
<path fill="#E5E5E5" transform="scale(0.21875 0.21875)" d="M763.285 446.507L767.301 446.507L767.32 446.978C767.241 449.685 767.709 449.776 766.221 451.528L765.195 451.579C763.508 449.834 764.034 450.678 763.343 448.161L763.285 446.507Z"/>
<path fill="CLO1" transform="scale(0.21875 0.21875)" d="M762.763 436.431L766.331 436.666C766.824 440.217 767.09 442.925 767.301 446.507L763.285 446.507C763.232 443.309 762.942 439.661 762.763 436.431Z"/>
<path fill="CLO1" transform="scale(0.21875 0.21875)" d="M761.559 418.774L764.35 418.247C764.778 422.371 765.249 426.49 765.762 430.604L762.475 430.625C762.039 427.256 762.043 422.745 761.559 418.774Z"/>
<path fill="CLO2" transform="scale(0.21875 0.21875)" d="M772.122 403.723L774.215 404.786L774.579 408.303C774.619 410.984 775.045 416.545 773.664 418.579C772.487 414.441 772.245 408.104 772.122 403.723Z"/>
<path fill="white" transform="scale(0.21875 0.21875)" d="M762.475 430.625L765.762 430.604L766.331 436.666L762.763 436.431L762.475 430.625Z"/>
<path fill="CLO1" transform="scale(0.21875 0.21875)" d="M725.284 458.461C725.587 457.932 726.598 447.418 727.003 445.479C729.044 450.831 731.528 452.537 736.432 448.582C737.987 449.11 737.431 449.268 738.513 448.828C738.711 453.592 738.523 461.621 744.91 462.109C746.995 461.044 748.195 458.33 748.395 456.087L747.665 446.694C749.549 448.485 751.568 448.356 754.263 448.496C754.424 452.542 754.693 456.952 754.743 460.967L754.823 465.342L750.3 465.093L750.192 472.578C749.052 472.127 747.92 471.655 746.797 471.163C739.141 467.811 731.917 463.546 725.284 458.461Z"/>
<path fill="CLO4" transform="scale(0.21875 0.21875)" d="M749.158 457.264L750.227 458.922L754.743 460.967L754.823 465.342L750.3 465.093L750.192 472.578C749.052 472.127 747.92 471.655 746.797 471.163C747.675 467.41 748.493 461.222 749.158 457.264Z"/>
<path fill="#E5E5E5" transform="scale(0.21875 0.21875)" d="M750.227 458.922L754.743 460.967L754.823 465.342L750.3 465.093L750.227 458.922Z"/>
<path fill="CLO1" transform="scale(0.21875 0.21875)" d="M754.264 434.821L754.238 443.377C751.641 442.495 750.087 442.666 747.391 442.702L746.583 438.637L747.164 437.913C750.007 437.296 750.417 437.194 752.988 435.745L754.264 434.821Z"/>
<path fill="#E5E5E5" transform="scale(0.21875 0.21875)" d="M747.391 442.702C750.087 442.666 751.641 442.495 754.238 443.377L754.263 448.496C751.568 448.356 749.549 448.485 747.665 446.694L747.391 442.702Z"/>
<path fill="CLO1" transform="scale(0.21875 0.21875)" d="M811.912 435.541C813.648 436.207 813.857 436.21 815.732 436.395C815.652 440.122 815.69 447.583 815.161 450.989L815.007 451.578L810.464 452.001C810.514 450.179 810.662 448.263 810.77 446.434C811.051 442.971 811.27 438.905 811.912 435.541Z"/>
<path fill="#E5E5E5" transform="scale(0.21875 0.21875)" d="M810.77 446.434C813.008 445.916 813.103 445.484 814.83 446.165C815.406 447.84 815.215 449.212 815.161 450.989L815.007 451.578L810.464 452.001C810.514 450.179 810.662 448.263 810.77 446.434Z"/>
<path fill="CLO1" transform="scale(0.21875 0.21875)" d="M810.464 452.001L815.007 451.578C814.886 454.505 814.843 458.324 814.59 461.169L810.514 461.913L810.464 452.001Z"/>
<path fill="CLO2" transform="scale(0.21875 0.21875)" d="M803.588 404.491L805.714 403.607C805.642 407.703 805.684 415.832 804.72 419.576C803.425 417.34 803.443 415.762 803.2 413.238C803.231 410.163 803.367 407.562 803.588 404.491Z"/>
<path fill="#E5E5E5" transform="scale(0.21875 0.21875)" d="M810.514 461.913L814.59 461.169L814.662 465.927L814.176 467.128C812.615 467.574 812.038 467.395 810.45 467.209L810.514 461.913Z"/>
<path fill="CLO1" transform="scale(0.21875 0.21875)" d="M840.425 440.445L841.723 442.661C841.267 446.308 840.872 449.194 844.997 450.809C848.451 450.769 849.008 449.671 850.768 446.823C851.395 450.467 851.938 454.124 852.395 457.793C845.814 462.949 838.634 467.29 831.011 470.723C830.203 471.087 829.391 471.44 828.574 471.783C827.636 470.44 827.583 467.305 827.409 465.508L827.255 459.469L823.523 459.836C823.708 455.296 823.975 450.76 824.324 446.23C824.697 448.297 824.279 447.771 825.637 448.725C827.449 448.699 828.436 448.584 830.24 448.345C830.227 451.078 830.408 454.367 829.639 456.893C830.783 460.058 834.679 464.135 837.374 460.61C840.477 456.55 840.132 445.826 840.425 440.445Z"/>
<path fill="CLO4" transform="scale(0.21875 0.21875)" d="M827.255 459.469C827.334 457.664 827.509 456.619 827.806 454.828L828.253 455.061L828.56 457.17C829.282 461.964 829.864 465.997 831.011 470.723C830.203 471.087 829.391 471.44 828.574 471.783C827.636 470.44 827.583 467.305 827.409 465.508L827.255 459.469Z"/>
<path fill="CLO4" transform="scale(0.21875 0.21875)" d="M815.153 397.656L815.956 397.478C816.199 405.057 816.142 413.374 816.517 420.786L813.722 420.708C814.454 413.042 814.931 405.354 815.153 397.656Z"/>
<path fill="#E5E5E5" transform="scale(0.21875 0.21875)" d="M824.479 442.894C826.772 442.41 828.843 441.765 831.083 441.102C830.821 443.317 830.403 446.174 830.24 448.345C828.436 448.584 827.449 448.699 825.637 448.725C824.279 447.771 824.697 448.297 824.324 446.23L824.479 442.894Z"/>
<path fill="CLO1" transform="scale(0.21875 0.21875)" d="M824.861 436.27C827.999 437.645 827.583 437.485 831.391 436.387C831.343 437.281 831.235 440.409 831.083 441.102C828.843 441.765 826.772 442.41 824.479 442.894C824.446 441.034 824.729 438.2 824.861 436.27Z"/>
<path fill="CLO1" transform="scale(0.21875 0.21875)" d="M813.722 420.708L816.517 420.786C816.563 424.339 816.516 426.642 816.198 430.17L812.484 431.263L813.722 420.708Z"/>
<path fill="white" transform="scale(0.21875 0.21875)" d="M823.523 459.836L827.255 459.469L827.409 465.508L823.622 466.298C823.502 464.258 823.541 461.906 823.523 459.836Z"/>
<path fill="#E5E5E5" transform="scale(0.21875 0.21875)" d="M812.484 431.263L816.198 430.17L815.732 436.395C813.857 436.21 813.648 436.207 811.912 435.541L812.484 431.263Z"/>
<path fill="white" transform="scale(0.21875 0.21875)" d="M789.088 331.16C792.471 333.934 792.427 336.928 789.963 340.05C787.768 339.016 787.347 338.638 786.592 336.392C786.881 334.164 787.855 333.057 789.088 331.16Z"/>
<path fill="CLO1" transform="scale(0.21875 0.21875)" d="M777.244 462.428C785.308 462.515 793.372 462.522 801.436 462.45L801.682 467.919C803.781 469.483 804.743 470.237 807.312 470.134C809.157 469.275 809.229 468.949 810.45 467.209C812.038 467.395 812.615 467.574 814.176 467.128L814.662 465.927C816.529 471.843 821.651 471.913 823.622 466.298L827.409 465.508C827.583 467.305 827.636 470.44 828.574 471.783C803.556 482.287 775.418 482.573 750.192 472.578L750.3 465.093L754.823 465.342C756.804 470.14 761.2 471.523 763.903 466.648C765.746 467.027 766.747 467.246 767.999 465.873C768.572 468.006 768.556 468.123 770.196 469.473C772.901 470.363 774.333 469.528 776.514 467.874L777.244 462.428Z"/>
<path fill="#E5E5E5" transform="scale(0.21875 0.21875)" d="M777.244 462.428C785.308 462.515 793.372 462.522 801.436 462.45L801.682 467.919C793.963 468.631 784.239 468.423 776.514 467.874L777.244 462.428Z"/></g></svg>