<svg xmlns="http://www.w3.org/2000/svg" viewBox="0 0 400 400"><defs><linearGradient id="gradient_0" gradientUnits="userSpaceOnUse" x1="740.69061" y1="319.18909" x2="737.78241" y2="316.71356"><stop offset="0" stop-color="#442310"/><stop offset="1" stop-color="#503835"/></linearGradient></defs><g transform="scale(2.0408)"><path fill="SKIN2" transform="scale(0.21875 0.21875)" d="M588.712 275.443C593.789 267.679 600.647 263.106 609.637 261.157C629.395 256.873 646.49 270.205 649.942 289.592C651.786 299.95 650.674 309.001 648.404 319.12C664.11 344.349 670.025 369.973 663.217 399.486C657.889 423.209 644.14 444.196 624.52 458.555C618.553 463.221 610.721 468.027 603.69 470.945L599.746 472.705C588.356 477.01 581.417 478.287 569.3 479.781L556.697 479.842C544.266 478.664 537.803 477.275 525.991 473.217L522.021 471.571C514.518 468.412 507.413 464.38 500.852 459.559C491.181 451.991 484.176 445.533 476.921 435.441C461.057 413.169 454.745 385.483 459.387 358.535C467.886 306.734 517.269 268.906 569.35 272.923C576.099 273.444 582.005 274.318 588.712 275.443Z"/>
<path fill="SKIN2" transform="scale(0.21875 0.21875)" d="M547.49 404.317C559.273 407.934 564.766 408.386 576.897 404.528C576.912 407.468 577.072 411.66 576.938 414.495C577.008 415.852 576.961 418.133 577.535 419.26C576.97 421.577 565.089 434.522 562.754 437.059C559.722 434.258 548.321 422.498 547.074 419.41C547.743 416.882 547.6 413.708 547.632 411.03C547.441 409.699 547.505 405.849 547.49 404.317Z"/>
<path fill="SKIN1" transform="scale(0.21875 0.21875)" d="M547.49 404.317C559.273 407.934 564.766 408.386 576.897 404.528C576.912 407.468 577.072 411.66 576.938 414.495C575.914 413.055 563.387 414.301 560.448 413.535C557.066 412.654 551.304 409.838 548.264 409.74L547.632 411.03C547.441 409.699 547.505 405.849 547.49 404.317Z"/>
<path fill="SKIN6" transform="scale(0.21875 0.21875)" d="M514.072 370.907L514.755 372.113C506.592 382.444 516.89 389.538 525.653 382.561L526.378 384.144C524.659 385.31 522.933 386.466 521.201 387.614L516.094 387.379C515.481 386.974 514.886 386.542 514.311 386.084C508.135 381.133 509.505 376.194 514.072 370.907Z"/>
<path fill="SKIN6" transform="scale(0.21875 0.21875)" d="M609.261 370.844C616.957 376.665 615.241 382.538 608.025 387.521L603.165 387.6L601.892 386.394L602.129 385.699C605.557 384.493 607.146 386.398 610.617 383.337C614.935 379.528 612.03 375.281 608.916 371.755L609.261 370.844Z"/>
<path fill="#E61D29" transform="scale(0.21875 0.21875)" d="M585.933 283.478C592.554 285.786 596.848 288.752 600.983 294.581L599.334 298.094C598.14 297.886 593.847 294.459 592.512 293.483C588.682 290.685 586.178 289.439 581.854 287.513C583.443 285.302 583.673 284.965 585.933 283.478Z"/>
<path fill="SKIN1" transform="scale(0.21875 0.21875)" d="M538.171 364.756C542.461 363.926 546.621 366.702 547.5 370.983C548.38 375.264 545.653 379.456 541.383 380.385C538.576 380.996 535.658 380.051 533.742 377.911C531.826 375.771 531.208 372.766 532.125 370.043C533.041 367.321 535.351 365.302 538.171 364.756Z"/>
<path fill="SKIN1" transform="scale(0.21875 0.21875)" d="M584.453 364.669C588.756 364.069 592.746 367.026 593.425 371.318C594.103 375.61 591.218 379.654 586.94 380.41C584.102 380.911 581.216 379.841 579.39 377.612C577.564 375.383 577.083 372.342 578.133 369.659C579.183 366.975 581.599 365.068 584.453 364.669Z"/>
<path fill="SKIN1" transform="scale(0.21875 0.21875)" d="M558.021 373.597C558.341 365.887 560.163 359.09 562.839 351.885C565.422 358.119 567.56 366.733 567.554 373.537C564.257 377.247 561.376 377.324 558.021 373.597Z"/>
<path fill="SKIN5" transform="scale(0.21875 0.21875)" d="M749.611 71.1841L750.023 70.6445C751.935 68.106 751.966 67.1366 752.661 64.4693C754.635 56.8997 757.984 56.1886 764.272 59.7672C765.682 60.5702 771.03 56.6719 773.561 59.8547C780.67 64.7331 785.42 52.2536 792.867 56.5868C796.117 58.3298 798.481 61.2886 802.517 60.4617C804.418 60.0722 807.759 57.0654 808.793 57.9493C814.568 62.8901 816.952 55.3717 821.707 57.511C826.393 59.6195 824.512 66.5613 827.746 69.5465C827.973 69.8341 828.199 70.1217 828.426 70.4093L828.927 71.0266C829.428 76.5276 829.749 81.2838 829.512 86.8346L830.979 87.0149C835.418 86.4376 838.278 89.6825 840.968 92.6828C842.839 99.173 840.697 102.059 836.248 106.428C834.804 112.957 832.985 114.85 826.416 117.042C819.865 128.075 815.685 133.761 803.615 138.99C792.319 143.517 785.468 142.62 774.393 139.012C763.102 133.832 758.262 126.814 752.503 116.416C745.659 114.634 743.678 112.397 742.107 105.837C738.836 101.485 737.082 99.0981 737.634 93.5506C739.46 90.6312 743.096 86.3565 746.903 86.7977L747.671 87.8278L749.159 85.9361C749.224 81.6254 749.155 75.2455 749.611 71.1841Z"/>
<path fill="SKIN4" transform="scale(0.21875 0.21875)" d="M764.496 99.688C768.662 98.6361 772.903 101.113 774.034 105.258C775.165 109.403 772.769 113.691 768.647 114.901C765.909 115.704 762.951 114.966 760.912 112.971C758.873 110.975 758.071 108.034 758.814 105.279C759.557 102.525 761.73 100.386 764.496 99.688Z"/>
<path fill="SKIN4" transform="scale(0.21875 0.21875)" d="M812.439 99.5486C816.594 99.4512 820.096 102.626 820.406 106.771C820.716 110.916 817.724 114.577 813.601 115.098C810.74 115.46 807.912 114.214 806.247 111.859C804.582 109.503 804.352 106.422 805.648 103.845C806.944 101.268 809.555 99.6162 812.439 99.5486Z"/>
<path fill="SKIN4" transform="scale(0.21875 0.21875)" d="M790.001 86.1642C792 92.0847 795.483 102.571 794.234 108.698C791.084 111.306 788.085 111.173 785.246 108.226C785.085 101.453 787.815 92.6569 790.001 86.1642Z"/>
<path fill="SKIN5" transform="scale(0.21875 0.21875)" d="M774.393 139.012C785.468 142.62 792.319 143.517 803.615 138.99C803.63 141.907 803.477 145.788 804.152 148.52L804.772 149.66C803.245 154.105 800.775 157.51 798.402 161.563L797.735 162.776C796.233 165.739 791.776 174.913 789.762 177.039L789.185 177.582L787.459 177.251C786.075 173.499 782.399 166.383 780.523 162.509L780.001 161.564C778.067 158.357 775.169 153.935 773.959 150.528C774.588 148.367 774.436 145.65 774.454 143.34L774.393 139.012Z"/>
<path fill="SKIN4" transform="scale(0.21875 0.21875)" d="M774.393 139.012C785.468 142.62 792.319 143.517 803.615 138.99C803.63 141.907 803.477 145.788 804.152 148.52C792.889 149.645 784.471 148.684 774.454 143.34L774.393 139.012Z"/>
<path fill="SKIN2" transform="scale(0.21875 0.21875)" d="M320.732 139.28C332.354 143.303 338.334 143.036 350.109 139.27C350.105 142.307 350.217 146.249 350.033 149.207C350.052 151.64 349.602 152.287 350.904 153.799L354.093 154.327C352.581 156.869 349.959 158.999 347.436 160.506C342.043 163.694 335.611 164.626 329.535 163.099C324.255 161.735 320.336 158.921 317.549 154.263L320.96 153.776C320.28 150.28 320.624 143.079 320.732 139.28Z"/>
<path fill="SKIN1" transform="scale(0.21875 0.21875)" d="M320.732 139.28C332.354 143.303 338.334 143.036 350.109 139.27C350.105 142.307 350.217 146.249 350.033 149.207C338.48 149.501 331.805 149.628 320.962 144.522C321.026 146.643 321.317 151.984 320.96 153.776C320.28 150.28 320.624 143.079 320.732 139.28Z"/>
<path fill="SKIN3" transform="scale(0.21875 0.21875)" d="M354.093 154.327C356.448 154.708 358.423 155.053 360.76 155.581C357.831 162.232 353.524 166.251 346.662 168.899C338.878 171.9 330.216 171.664 322.607 168.242C313.549 164.208 314.017 160.421 308.913 155.96C311.648 155.297 314.756 154.784 317.549 154.263C320.336 158.921 324.255 161.735 329.535 163.099C335.611 164.626 342.043 163.694 347.436 160.506C349.959 158.999 352.581 156.869 354.093 154.327Z"/>
<path fill="SKIN2" transform="scale(0.21875 0.21875)" d="M295.37 74.7462C317.416 73.6801 333.67 67.1749 344.189 46.8681C351.928 60.7952 359.808 69.3961 375.727 74.1434C375.9 76.6563 376.088 85.6981 376.754 87.378C385.824 85.1483 390.665 96.3209 386.431 102.862C384.732 105.459 382.043 107.247 378.991 107.807C377.917 108.014 376.392 108.157 375.27 108.254C371.756 121.527 363.858 134.691 350.109 139.27C338.334 143.036 332.354 143.303 320.732 139.28C306.721 134.354 299.483 121.741 295.593 108.235C284.339 107.198 277.603 96.2459 284.805 90.5556C294.684 82.7499 294.345 93.2185 295.37 74.7462Z"/>
<path fill="SKIN1" transform="scale(0.21875 0.21875)" d="M309.827 99.7738C313.874 98.1971 318.435 100.172 320.055 104.202C321.675 108.231 319.75 112.814 315.738 114.477C313.104 115.569 310.087 115.162 307.837 113.411C305.587 111.659 304.451 108.834 304.863 106.013C305.275 103.192 307.171 100.809 309.827 99.7738Z"/>
<path fill="SKIN1" transform="scale(0.21875 0.21875)" d="M356.706 99.7227C359.485 98.985 362.446 99.818 364.433 101.897C366.421 103.976 367.12 106.971 366.258 109.715C365.396 112.459 363.109 114.517 360.29 115.086C356.109 115.929 352.015 113.297 351.045 109.143C350.076 104.989 352.583 100.817 356.706 99.7227Z"/>
<path fill="SKIN1" transform="scale(0.21875 0.21875)" d="M336.181 86.1889C338.445 92.0278 340.868 100.905 341.014 107.056C339.039 112.031 334.436 112.209 331.413 108.114C330.45 103.629 334.773 90.7509 336.181 86.1889Z"/>
<path fill="SKIN2" transform="scale(0.21875 0.21875)" d="M343.671 325.92C348.575 335.399 357.23 337.817 365.938 331.189L366.179 331.609C370.457 338.83 374.38 337.368 373.5 345.918C372.935 351.416 372.842 358.349 373.287 363.91C371.964 366.54 369.744 369.817 368.105 372.375C365.591 376.192 363.538 378.632 359.941 381.51C358.453 382.705 358.305 382.942 356.518 383.433C354.399 382.76 354.107 380.818 351.466 378.53L351.04 378.168C344.984 377.357 325.557 376.856 319.709 378.188C317.823 379.8 316.717 381.829 315.403 383.924C310.229 380.795 307.543 377.974 303.95 373.213C301.994 370.71 300.076 367.421 298.378 364.676C298.366 357.346 297.967 349.434 298.27 342.112C298.275 341.991 298.572 340.605 298.603 340.6C302.753 340.265 303.579 340.237 307.137 338.056C311.925 335.12 311.054 331.084 312.557 328.445C320.487 335.054 326.123 340.162 337.231 332.848C340.29 330.834 341.534 328.912 343.671 325.92Z"/>
<path fill="SKIN1" transform="scale(0.21875 0.21875)" d="M303.95 373.213C306.298 368.09 310.235 363.205 317.412 365.431C319.38 366.041 320.638 369.544 321.074 371.23C321.902 373.892 319.804 375.982 319.709 378.188C317.823 379.8 316.717 381.829 315.403 383.924C310.229 380.795 307.543 377.974 303.95 373.213Z"/>
<path fill="SKIN1" transform="scale(0.21875 0.21875)" d="M352.483 377.178C351.148 375.089 350.809 373.195 351.25 370.721C351.6 368.835 352.752 367.195 354.408 366.227C360.699 362.511 365.331 367.212 368.105 372.375C365.591 376.192 363.538 378.632 359.941 381.51C359.637 381.169 353.857 378.079 352.483 377.178Z"/>
<path fill="SKIN1" transform="scale(0.21875 0.21875)" d="M336.588 351.857C338.784 358.464 341.341 366.72 340.874 373.714C337.345 376.865 333.83 377.12 331.503 372.625C331.208 366.748 334.564 357.56 336.588 351.857Z"/>
<path fill="SKIN1" transform="scale(0.21875 0.21875)" d="M323.284 383.661C330.325 383.272 340.47 383.596 347.748 383.596C346.505 386.011 345.801 386.964 344.233 389.088C336.919 393.851 326.589 392.734 323.284 383.661Z"/>
<path fill="SKIN2" transform="scale(0.21875 0.21875)" d="M321.282 405.165C330.342 407.769 340.935 408.476 349.942 405.308C349.958 407.564 350.055 410.489 349.941 412.679L349.859 419.536L336.202 428.415C333.023 426.763 322.707 420.56 321.625 417.495L321.297 417.476C321.095 413.408 321.221 409.245 321.282 405.165Z"/>
<path fill="SKIN1" transform="scale(0.21875 0.21875)" d="M321.282 405.165C330.342 407.769 340.935 408.476 349.942 405.308C349.958 407.564 350.055 410.489 349.941 412.679C338.274 414.358 332.309 413.824 321.695 408.508C321.711 410.712 321.862 415.521 321.625 417.495L321.297 417.476C321.095 413.408 321.221 409.245 321.282 405.165Z"/>
<path fill="SKIN3" transform="scale(0.21875 0.21875)" d="M357.101 402.475C361.261 402.904 364.895 403.352 368.663 405.324C366.759 409.2 353.872 418.703 349.859 419.536L349.941 412.679C350.055 410.489 349.958 407.564 349.942 405.308L357.101 402.475Z"/>
<path fill="SKIN3" transform="scale(0.21875 0.21875)" d="M314.551 402.555C316.884 403.375 319.04 404.091 321.282 405.165C321.221 409.245 321.095 413.408 321.297 417.476L320.853 418.661C316.829 417.957 305.938 408.717 302.736 405.577C306.146 403.121 310.476 402.91 314.551 402.555Z"/>
<path fill="SKIN3" transform="scale(0.21875 0.21875)" d="M299.736 422.701C307.356 426.096 316.33 429.111 323.136 433.526C315.732 431.167 305.722 427.986 299.598 423.296L299.736 422.701Z"/>
<path fill="SKIN3" transform="scale(0.21875 0.21875)" d="M349.674 433.05C357.033 428.772 364.745 426.595 372.274 422.736L372.166 423.532L371.73 423.839C364.74 428.6 357.714 430.795 349.674 433.05Z"/>
<path fill="SKIN2" transform="scale(0.21875 0.21875)" d="M93.8503 139.714C105.715 142.686 111.168 143.673 123.176 139.379L123.186 149.005C123.253 151.263 122.891 152.199 124.023 153.818L125.494 154.116C124.039 165.549 98.6075 168.671 91.152 154.339C92.3366 154.001 92.3343 153.954 93.452 153.412C94.5103 150.817 94.0057 146.668 93.8837 143.73L93.8503 139.714Z"/>
<path fill="SKIN1" transform="scale(0.21875 0.21875)" d="M93.8503 139.714C105.715 142.686 111.168 143.673 123.176 139.379L123.186 149.005C110.911 149.738 104.791 149.887 93.8837 143.73L93.8503 139.714Z"/>
<path fill="SKIN2" transform="scale(0.21875 0.21875)" d="M73.7171 55.0027C100.101 65.03 116.068 65.7749 142.769 54.9805C146.993 63.9113 148.463 71.4123 148.885 81.3329C148.979 83.5359 148.861 89.8349 149.486 91.5586C151.226 88.9827 148.142 84.7809 155.658 88.0229C168.21 97.0083 160.308 105.901 148.47 109.17C144.222 122.969 137.222 133.969 123.176 139.379C111.168 143.673 105.715 142.686 93.8503 139.714C93.0285 139.395 92.2229 139.035 91.4364 138.636C78.008 131.853 72.4766 121.846 67.9124 108.23C56.2808 107.679 49.8305 96.7749 60.8055 88.0989C63.171 87.0761 64.1019 86.5398 66.3238 87.3701L67.6045 87.2682C67.641 76.7511 68.3918 64.2424 73.7171 55.0027Z"/>
<path fill="SKIN4" transform="scale(0.21875 0.21875)" d="M67.6045 87.2682C67.6239 88.9257 67.7825 89.6667 67.0159 91.1446C66.1344 90.0063 66.34 88.8721 66.3238 87.3701L67.6045 87.2682Z"/>
<path fill="SKIN1" transform="scale(0.21875 0.21875)" d="M109.42 85.9552C111.306 91.9397 114.303 101.252 114.034 107.433C111.317 112.049 107.06 111.983 104.119 107.519C104.615 100.156 106.714 92.7984 109.42 85.9552Z"/>
<path fill="SKIN2" transform="scale(0.21875 0.21875)" d="M67.4115 356.96C67.8959 344.345 67.5257 329.382 74.267 318.516C74.5733 318.65 74.8804 318.783 75.1883 318.913C99.361 329.14 118.483 328.698 142.616 318.979C149.282 332.497 148.132 341.116 149.349 355.215L149.74 355.009C150.021 353.396 149.976 352.634 151.109 351.467C153.303 351.184 153.493 351.653 155.712 352.542C166.358 361.253 160.783 371.947 148.59 373.3C143.901 388.62 138.412 397.715 123.166 404.336C111.506 408.519 106.023 407.866 94.0263 404.715C78.8418 398.441 72.7259 387.777 67.9955 372.856C55.5831 371.089 51.0692 361.321 61.2386 352.603C63.0877 351.849 63.9531 351.237 65.8053 351.613C67.0217 352.884 67.1118 355.121 67.4115 356.96Z"/>
<path fill="SKIN1" transform="scale(0.21875 0.21875)" d="M84.1696 364.078C88.4734 363.302 92.588 366.172 93.3455 370.48C94.103 374.787 91.2147 378.89 86.9044 379.628C82.6203 380.363 78.5486 377.496 77.7957 373.215C77.0428 368.934 79.8921 364.849 84.1696 364.078Z"/>
<path fill="SKIN1" transform="scale(0.21875 0.21875)" d="M128.718 364.75C131.373 363.741 134.366 364.248 136.54 366.075C138.715 367.902 139.731 370.762 139.195 373.552C138.659 376.341 136.656 378.622 133.96 379.513C129.915 380.85 125.544 378.71 124.118 374.696C122.693 370.682 124.736 366.264 128.718 364.75Z"/>
<path fill="SKIN1" transform="scale(0.21875 0.21875)" d="M108.874 352.456C111.88 354.807 114.387 368.744 113.626 372.785C113.345 374.281 111.785 375.149 110.626 375.899C108.904 375.718 105.745 375.365 105.043 373.509C102.839 367.681 107.062 358.035 108.874 352.456Z"/>
<path fill="SKIN2" transform="scale(0.21875 0.21875)" d="M94.0263 404.715C106.023 407.866 111.506 408.519 123.166 404.336L123.184 413.879C123.186 416.263 122.811 416.791 123.9 418.676L125.429 419.04C124.418 429.88 98.0857 433.041 91.5346 418.767L94.3951 418.273C93.9131 414.848 94.0524 408.391 94.0263 404.715Z"/>
<path fill="SKIN1" transform="scale(0.21875 0.21875)" d="M94.0263 404.715C106.023 407.866 111.506 408.519 123.166 404.336L123.184 413.879C111.007 414.842 105.936 414.807 94.6209 409.459C94.6136 411.472 94.7043 416.555 94.3951 418.273C93.9131 414.848 94.0524 408.391 94.0263 404.715Z"/>
<path fill="#6E8FB9" transform="scale(0.21875 0.21875)" d="M70.4992 457.899C70.8701 454.76 71.087 453.252 71.8771 450.193C71.9952 456.539 72.2678 464.065 71.9023 470.384C71.2933 466.491 71.9113 462.036 71.1484 457.826L70.4992 457.899Z"/>
<path fill="SKIN2" transform="scale(0.21875 0.21875)" d="M547.401 139.213C558.459 142.496 565.563 142.932 576.72 139.215C576.82 143.884 577.07 148.964 576.607 153.576L580.588 153.548C574.309 164.186 568.781 174.293 562.22 184.934C555.868 174.792 549.902 164.125 543.771 153.781L547.703 153.447C547.152 149.768 547.382 143.14 547.401 139.213Z"/>
<path fill="SKIN1" transform="scale(0.21875 0.21875)" d="M547.401 139.213C558.459 142.496 565.563 142.932 576.72 139.215C576.82 143.884 577.07 148.964 576.607 153.576C576.567 153.098 576.333 148.888 575.759 148.881C572.454 148.84 569.126 148.909 565.822 149.01C559.592 149.198 553.526 146.475 547.984 143.933C548.011 147.353 548.066 150.052 547.703 153.447C547.152 149.768 547.382 143.14 547.401 139.213Z"/>
<path fill="SKIN2" transform="scale(0.21875 0.21875)" d="M549.87 75.1627C550.4 68.4021 550.824 63.5416 552.359 56.8259C552.655 62.9817 552.853 69.1508 553.593 75.2667C561.912 75.2835 572.378 75.6048 580.524 75.2197C580.534 69.7048 580.352 62.5911 580.649 57.2085C582.408 63.0433 584.071 68.9065 585.638 74.7959C591.36 74.9327 597.081 75.142 602.799 75.4237C602.812 77.7497 602.683 85.6157 603.399 87.1994C605.516 86.4731 608.784 87.2884 610.39 88.62C619.788 96.4118 613.057 107.856 602.239 108.196C598.524 121.423 590.648 134.811 576.72 139.215C565.563 142.932 558.459 142.496 547.401 139.213C546.112 138.727 544.859 138.152 543.65 137.493C531.592 131.003 526.385 121.52 522.518 108.82C507.96 104.996 502.518 92.3298 519.148 86.6201C519.593 86.4673 519.653 87.2603 521.223 86.8532C522.129 84.2153 522.014 78.4045 522.082 75.3723C525.554 75.3801 536.9 75.5878 539.652 74.7961L540.322 76.9152L542.119 76.633C542.705 76.3364 543.036 75.9793 543.556 75.5426C545.924 74.9389 547.447 75.1104 549.87 75.1627Z"/>
<path fill="SKIN1" transform="scale(0.21875 0.21875)" d="M583.017 99.7226C585.734 98.7703 588.753 99.3542 590.918 101.251C593.084 103.148 594.061 106.063 593.475 108.882C592.889 111.7 590.832 113.985 588.09 114.862C583.931 116.192 579.475 113.934 578.088 109.794C576.701 105.654 578.897 101.167 583.017 99.7226Z"/>
<path fill="SKIN1" transform="scale(0.21875 0.21875)" d="M536.711 99.7554C540.767 98.3309 545.218 100.409 546.73 104.433C548.243 108.458 546.262 112.953 542.272 114.552C539.612 115.618 536.584 115.162 534.357 113.359C532.13 111.556 531.053 108.69 531.541 105.866C532.03 103.043 534.008 100.705 536.711 99.7554Z"/>
<path fill="SKIN1" transform="scale(0.21875 0.21875)" d="M562.733 85.8612C564.707 91.0093 567.883 101.864 567.376 107.561C564.657 111.929 559.922 111.838 557.755 106.966C558.99 98.4387 559.984 94.1111 562.733 85.8612Z"/>
<path fill="SKIN2" transform="scale(0.21875 0.21875)" d="M544.02 54.6011C543.304 62.3569 543.067 67.6772 543.556 75.5426C543.036 75.9793 542.705 76.3364 542.119 76.633L540.322 76.9152L539.652 74.7961C540.77 67.2301 541.516 61.9252 544.02 54.6011Z"/>
<path fill="SKIN5" transform="scale(0.21875 0.21875)" d="M725.284 458.461C690.076 431.472 675.92 385.084 690.058 343.033C704.196 300.982 743.502 272.572 787.862 272.338C832.223 272.105 871.825 300.101 886.405 342C900.985 383.9 887.317 430.434 852.395 457.793C845.814 462.949 838.634 467.29 831.011 470.723C830.203 471.087 829.391 471.44 828.574 471.783C827.636 470.44 827.583 467.305 827.409 465.508L823.622 466.298C821.651 471.913 816.529 471.843 814.662 465.927L814.176 467.128C812.615 467.574 812.038 467.395 810.45 467.209C809.229 468.949 809.157 469.275 807.312 470.134C804.743 470.237 803.781 469.483 801.682 467.919L801.436 462.45C793.372 462.522 785.308 462.515 777.244 462.428L776.514 467.874C774.333 469.528 772.901 470.363 770.196 469.473C768.556 468.123 768.572 468.006 767.999 465.873C766.747 467.246 765.746 467.027 763.903 466.648C761.2 471.523 756.804 470.14 754.823 465.342L750.3 465.093L750.192 472.578C749.052 472.127 747.92 471.655 746.797 471.163C739.141 467.811 731.917 463.546 725.284 458.461Z"/>
<path fill="SKIN5" transform="scale(0.21875 0.21875)" d="M837.654 322.306C839.01 322.573 839.887 322.433 840.371 323.4C842.495 327.649 841.84 332.653 843.073 337.829C843.319 348.262 843.735 436.798 841.723 442.661L840.425 440.445C839.827 437.64 841.202 421.999 841.297 417.766C841.506 401.132 841.507 384.497 841.301 367.864C841.078 352.182 842.177 337.525 837.654 322.306Z"/>
<path fill="SKIN4" transform="scale(0.21875 0.21875)" d="M829.136 302.849C839.761 311.054 843.491 324.88 843.073 337.829C841.84 332.653 842.495 327.649 840.371 323.4C839.887 322.433 839.01 322.573 837.654 322.306C837.135 320.477 837.295 320.57 838.088 318.847C832.538 312.661 831.881 311.355 827.145 305.181L829.136 302.849Z"/>
<path fill="SKIN4" transform="scale(0.21875 0.21875)" d="M740.284 321.806C740.044 327.21 737.782 333.091 737.536 338.363C737.172 346.153 737.338 354.151 737.327 361.959L737.284 401.59C737.31 406.693 737.001 427.138 737.737 431.379C735.734 434.157 736.184 436.482 736.195 440.092C735.43 436.852 735.57 427.203 735.535 423.323C735.387 411.645 735.365 399.966 735.471 388.288C735.621 366.124 734.627 347.444 736.12 325.202C737.539 324.383 739.033 322.922 740.284 321.806Z"/>
<path fill="SKIN4" transform="scale(0.21875 0.21875)" d="M740.974 312.073C742.439 308.564 746.072 304.964 749.088 302.713C748.746 304.22 747.661 307.634 747.761 308.826C746.054 311.945 744.847 313.622 742.238 316.15C742.193 315.142 742.154 314.134 742.121 313.126L740.974 312.073Z"/>
<path fill="url(#gradient_0)" transform="scale(0.21875 0.21875)" d="M740.974 312.073L742.121 313.126C742.154 314.134 742.193 315.142 742.238 316.15C740.64 317.435 739.253 318.229 738.546 320.085C739.18 321.656 738.648 321.072 740.284 321.806C739.033 322.922 737.539 324.383 736.12 325.202C736.486 320.577 738.64 316.001 740.974 312.073Z"/>
<path fill="SKIN5" transform="scale(0.21875 0.21875)" d="M774.579 408.303C783.81 413.173 792.774 415.828 803.2 413.238C803.443 415.762 803.425 417.34 804.72 419.576C804.706 420.394 804.773 422.282 804.511 422.922L803.374 432.11L802.573 438.66L801.922 449.933L801.514 452.904L801.436 462.45C793.372 462.522 785.308 462.515 777.244 462.428L776.829 453.27L776.5 447.598C776.127 444.682 775.937 441.788 775.717 438.857L775.085 432.734C774.792 429.557 774.413 426.388 773.948 423.232C773.922 421.483 773.866 420.315 773.664 418.579C775.045 416.545 774.619 410.984 774.579 408.303Z"/>
<path fill="#474252" transform="scale(0.21875 0.21875)" d="M760.901 395.592L762.042 396.514C762.785 403.327 764.007 411.581 764.35 418.247L761.559 418.774C761.586 411.041 761.367 403.31 760.901 395.592Z"/>
<path fill="SKIN4" transform="scale(0.21875 0.21875)" d="M748.737 358.061C749.765 372.494 748.523 415.866 754.097 427.884C754.19 429.984 754.4 432.783 754.264 434.821L752.988 435.745C750.417 437.194 750.007 437.296 747.164 437.913L746.583 438.637C746.592 438.653 745.683 378.884 745.616 373.598L747.806 372.89C749.364 370.78 748.597 361.592 748.737 358.061Z"/>
<path fill="SKIN5" transform="scale(0.21875 0.21875)" d="M752.988 435.745C753.156 432.533 753.132 430.964 754.097 427.884C754.19 429.984 754.4 432.783 754.264 434.821L752.988 435.745Z"/>
<path fill="SKIN5" transform="scale(0.21875 0.21875)" d="M745.616 373.598C745.39 372.376 745.221 369.553 745.253 368.308C745.521 357.692 743.181 330.236 750.248 322.747L751.277 322.779C753.763 326.598 750.077 330.266 749.515 335.751C748.716 343.533 748.681 350.273 748.737 358.061C748.597 361.592 749.364 370.78 747.806 372.89L745.616 373.598Z"/>
<path fill="SKIN3" transform="scale(0.21875 0.21875)" d="M737.737 431.379C738.134 437.13 738.684 443.081 738.513 448.828C737.431 449.268 737.987 449.11 736.432 448.582L736.195 440.092C736.184 436.482 735.734 434.157 737.737 431.379Z"/>
<path fill="SKIN4" transform="scale(0.21875 0.21875)" d="M829.396 372.695L832.693 371.926C832.56 379.007 832.504 434.712 831.391 436.387C827.583 437.485 827.999 437.645 824.861 436.27C825.664 430.121 828.755 418.526 828.926 414.905C829.571 401.242 829.061 386.458 829.396 372.695Z"/>
<path fill="SKIN5" transform="scale(0.21875 0.21875)" d="M829.396 372.695C830.398 357.689 830.184 339.083 826.013 324.597C827.112 323.017 826.408 323.43 827.95 322.97C833.48 326.913 832.601 363.357 832.693 371.926L829.396 372.695Z"/>
<path fill="SKIN4" transform="scale(0.21875 0.21875)" d="M819.673 347.315L820.887 347.671C821.652 351.463 821.382 387.029 820.706 390.968C820.313 386.505 821.322 379.225 820.502 375.34L819.839 375.21C812.065 386.719 799.089 374.786 806.802 366.377C810.649 362.183 817.283 365.767 820.783 369.532C820.758 365.582 821.201 349.595 819.673 347.315Z"/>
<path fill="SKIN4" transform="scale(0.21875 0.21875)" d="M774.215 404.786C785.965 408.293 791.96 408.162 803.588 404.491C803.367 407.562 803.231 410.163 803.2 413.238C792.774 415.828 783.81 413.173 774.579 408.303L774.215 404.786Z"/>
<path fill="SKIN4" transform="scale(0.21875 0.21875)" d="M763.987 364.785C767.988 363.411 772.357 365.461 773.858 369.416C775.359 373.371 773.45 377.804 769.545 379.431C766.905 380.531 763.876 380.105 761.642 378.321C759.407 376.536 758.322 373.676 758.81 370.859C759.298 368.041 761.282 365.713 763.987 364.785Z"/>
<path fill="SKIN4" transform="scale(0.21875 0.21875)" d="M776.683 383.146C784.168 382.843 793.714 383.135 801.395 383.105C800.286 385.307 799.251 386.597 797.799 388.546C790.064 394.154 780.277 392.507 776.683 383.146Z"/>
<path fill="SKIN4" transform="scale(0.21875 0.21875)" d="M789.733 351.491C791.33 356.321 795.757 369.313 794.052 373.659C790.876 376.856 788.497 376.485 785.292 373.621C784.537 368.157 788.009 357.145 789.733 351.491Z"/></g></svg>