<svg xmlns="http://www.w3.org/2000/svg" viewBox="0 0 400 400"><defs><linearGradient id="gradient_0" gradientUnits="userSpaceOnUse" x1="740.69061" y1="319.18909" x2="737.78241" y2="316.71356"><stop offset="0" stop-color="#442310"/><stop offset="1" stop-color="#503835"/></linearGradient></defs><g transform="scale(2.0408)"><path fill="HAIR1" transform="scale(0.21875 0.21875)" d="M764.755 603.707C767.597 601.703 770.39 599.233 773.952 600.221C780.534 602.045 781.365 598.005 786.514 596.041C791.011 594.326 795.63 598.865 799.148 600.727C802.164 600.615 804.187 598.606 807.323 599.444C809.355 599.987 812.735 603.442 813.673 603.295C819.604 602.364 823.514 599.512 828.679 604.93C830.189 606.515 830.647 610.176 832.472 611.57L833.118 611.502C841.287 610.718 839.232 614.983 843.934 619.447C844.732 620.205 850.732 620.807 853.532 622.76C858.843 626.463 855.424 634.467 858.926 636.457C866.18 640.578 869.575 643.691 866.529 652.82C884.823 673.399 894.106 698.544 892.359 726.151C890.654 753.833 877.906 779.671 856.976 797.865C855.492 799.16 853.965 800.404 852.398 801.597C846.125 806.378 839.411 810.553 832.348 814.064L829.452 815.444C820.169 819.44 810.373 822.12 800.349 823.405C791.389 824.222 787.007 823.851 777.912 823.366C769.461 821.85 757.462 819.776 749.694 815.857L748.078 815.536C740.099 810.478 734.033 809.435 725.465 802.003C680.462 766.536 669.759 705.438 705.155 657.898C707 655.419 709.641 652.946 711.277 650.51L711.751 649.79C711.116 639.148 714.969 641.248 721.038 635.094C721.419 634.708 721.29 626.183 724.123 623.465C730.246 617.593 734.439 624.229 737.356 614.696C737.906 612.898 744.348 611.622 746.054 611.246C751.087 603.592 754.041 598.648 764.755 603.707Z"/>
<path fill="HAIR1" transform="scale(0.21875 0.21875)" d="M784.987 717.065C785.53 717.095 795.855 717.977 795.142 718.097C804.283 719.195 802.805 723.19 809.682 726.806C811.315 727.665 813.721 724.959 814.922 726.108C813.507 733.935 804.974 732.019 799.693 729.685C793.331 736.416 784.572 736.525 777.755 730.253C773.485 732.095 766.712 732.876 763.331 729.012C763.221 727.018 763.044 727.977 764.108 726.087C766.061 725.017 766.464 728 768.562 726.716C776.432 721.903 774.673 717.951 784.987 717.065Z"/>
<path fill="HAIR1" transform="scale(0.21875 0.21875)" d="M765.306 687.014C768.698 686.687 773.052 686.089 775.379 689.171L775.031 690.11C773.271 691.111 771.516 690.493 769.377 690.154C764.703 690.019 761.182 691.12 757.865 690.942L757.52 689.773L758.316 688.605C760.608 687.369 762.738 687.304 765.306 687.014Z"/>
<path fill="HAIR1" transform="scale(0.21875 0.21875)" d="M803.124 687.523C807.006 687.184 820.384 685.783 821.021 690.998C816.02 690.206 811.424 689.946 806.355 690.824C805.097 691.042 805.42 691.188 803.941 690.982L803.124 687.523Z"/>
<path fill="HAIR1" transform="scale(0.21875 0.21875)" d="M810.707 695.436C816.347 696.645 815.305 702.365 812.455 706.007C806.869 704.932 808.098 698.972 810.707 695.436Z"/>
<path fill="HAIR1" transform="scale(0.21875 0.21875)" d="M766.272 695.393L768.16 696.02C771.511 699.216 770.448 701.99 768.571 705.679C762.305 705.579 763.932 699.016 766.272 695.393Z"/>
<path fill="HAIR1" transform="scale(0.21875 0.21875)" d="M588.712 275.443C593.789 267.679 600.647 263.106 609.637 261.157C629.395 256.873 646.49 270.205 649.942 289.592C651.786 299.95 650.674 309.001 648.404 319.12C644.996 333.744 640.947 356.849 659.823 361.874C651.014 368.817 641.211 369.915 631.192 364.495C607.404 351.628 623.005 320.814 611.001 302.314C608.599 298.613 604.756 296.58 600.983 294.581C596.848 288.752 592.554 285.786 585.933 283.478C586.767 280.28 587.465 278.516 588.712 275.443Z"/>
<path fill="HAIR1" transform="scale(0.21875 0.21875)" d="M585.933 283.478C592.554 285.786 596.848 288.752 600.983 294.581L599.334 298.094C601.272 300.407 604.469 303.756 605.968 306.18C613.65 318.607 614.069 339.274 609.623 353.088L609.052 352.793C607.409 351.961 606.94 351.519 605.216 351.656C603.623 352.859 603.595 352.938 602.611 354.715C602.384 354.229 598.988 332.787 598.214 329.648L597.686 337.809C592.914 337.767 587.636 337.623 582.903 337.728C582.161 333.213 581.363 327.232 580.093 322.955C579.603 327.919 579.439 332.856 578.965 337.669C574.147 337.729 568.597 337.916 563.847 337.787C563.335 331.557 562.711 325.337 561.976 319.129C560.756 325.839 560.479 331.054 559.871 337.81C555.228 337.771 550.363 337.662 545.741 337.716C544.839 332.847 544.516 326.916 544.408 321.941C542.494 327.397 542.279 331.874 541.982 337.623L526.595 337.737L526.2 328.118C524.242 334.854 523.235 340.912 522.483 347.884C522.358 349.049 521.84 354.841 521.587 355.484C521.477 353.562 521.777 352.942 520.868 351.609C518.831 351.02 516.485 352.283 514.626 353.261C510.899 343.123 510.759 326.586 513.797 316.196C516.933 305.216 524.334 295.949 534.349 290.464C548.836 282.612 566.402 282.904 581.854 287.513C583.443 285.302 583.673 284.965 585.933 283.478Z"/>
<path fill="HAIR1" transform="scale(0.21875 0.21875)" d="M536.42 343.807C540.353 343.613 546.172 342.608 548.732 346.198L548.192 347.106C545.965 347.902 545.711 347.475 543.203 347.077C538.959 346.865 535.173 347.665 531.122 346.849L530.811 346.208C532.763 344.692 534.06 344.501 536.42 343.807Z"/>
<path fill="HAIR2" transform="scale(0.21875 0.21875)" d="M576.649 343.96C581.329 343.582 590.04 343.246 594.065 346.005L594.25 347.077L593.295 347.673C588.109 346.784 577.641 347.612 576.033 346.529C575.912 344.699 575.71 345.525 576.649 343.96Z"/>
<path fill="HAIR2" transform="scale(0.21875 0.21875)" d="M538.919 351.843C545.23 352.619 544.419 358.481 541.602 362.632C534.999 361.772 536.435 356.031 538.919 351.843Z"/>
<path fill="HAIR2" transform="scale(0.21875 0.21875)" d="M583.36 351.8C589.177 353.084 588.694 358.628 585.521 362.553C579.505 361.619 580.818 355.605 583.36 351.8Z"/>
<path fill="HAIR1" transform="scale(0.21875 0.21875)" d="M588.558 898.575C593.636 890.82 600.484 885.854 609.662 883.995C618.308 882.163 627.328 883.866 634.711 888.726C652.615 900.69 653.077 922.789 648.653 941.738C646.081 951.408 643.661 967.895 648.627 976.721C651.603 982.009 654.315 983.2 659.596 984.811C657.03 986.828 654.13 988.38 651.029 989.395C637.437 993.797 624.199 985.801 619.36 972.897C611.483 951.893 624.54 930.478 601.199 918.07C597.91 912.009 592.072 908.692 585.782 906.557C586.596 904.755 587.868 900.612 588.558 898.575Z"/>
<path fill="HAIR1" transform="scale(0.21875 0.21875)" d="M600.078 958.32C604.416 958.387 608.02 958.54 612.352 957.946C611.89 963.468 611.45 969.423 609.977 974.761C618.578 984.091 613.801 991.87 602.675 994.838C599.217 1010.45 592.24 1021.9 576.665 1027.95L576.744 1035.68L576.515 1039.68C574.438 1043.37 573.373 1045.04 570.781 1048.39C564.496 1051.18 560.468 1051.38 554.039 1048.8C553.71 1047.12 548.411 1039.07 547.129 1037.03C547.659 1034.73 547.659 1032.68 547.768 1030.32L547.435 1027.8C532.676 1022.19 524.61 1009.9 521.998 994.745C510.621 992.446 504.514 983.683 514.384 974.838C513.202 970.284 512.53 963.151 511.898 958.283C516.028 958.32 520.159 958.332 524.29 958.319C549.553 958.49 574.816 958.491 600.078 958.32Z"/>
<path fill="HAIR1" transform="scale(0.21875 0.21875)" d="M557.991 994.861C562.269 996.443 563.075 996.513 567.525 995.26C564.217 998.74 560.812 998.812 557.991 994.861Z"/>
<path fill="HAIR1" transform="scale(0.21875 0.21875)" d="M536.43 965.911C540.379 965.754 546.322 964.905 548.819 968.689L548.391 969.268C545.943 970.253 545.679 969.786 542.859 969.429C539.083 969.039 533.614 970.151 530.785 969.141L531.013 968.29C532.881 966.589 534.026 966.491 536.43 965.911Z"/>
<path fill="HAIR1" transform="scale(0.21875 0.21875)" d="M577.212 966.112C580.688 965.845 592.393 964.901 593.894 968.85L593.218 969.698C588.314 968.953 578.492 970.319 576.602 968.904C576.329 967.01 576.199 967.922 577.212 966.112Z"/>
<path fill="HAIR1" transform="scale(0.21875 0.21875)" d="M585.782 906.557C592.072 908.692 597.91 912.009 601.199 918.07L599.473 921.776C604.825 927.31 606.702 931.032 609.676 938.177C614.305 942.475 613.437 952.265 612.352 957.946C608.02 958.54 604.416 958.387 600.078 958.32C574.816 958.491 549.553 958.49 524.29 958.319C520.159 958.332 516.028 958.32 511.898 958.283C509.972 953.53 510.664 942.229 513.788 938.089C515.415 935.625 516.675 931.759 518.226 929.069C530.964 906.981 560.133 903.266 582.243 910.614C583.605 908.499 583.827 908.111 585.782 906.557Z"/>
<path fill="HAIR1" transform="scale(0.21875 0.21875)" d="M742.107 105.837C744.657 106.546 747.481 107.399 750.028 108.006C750.767 111.342 751.353 113.181 752.503 116.416C745.659 114.634 743.678 112.397 742.107 105.837Z"/>
<path fill="HAIR1" transform="scale(0.21875 0.21875)" d="M828.921 108.571C831.477 108.009 833.765 107.226 836.248 106.428C834.804 112.957 832.985 114.85 826.416 117.042L828.921 108.571Z"/>
<path fill="HAIR2" transform="scale(0.21875 0.21875)" d="M747.671 87.8278L749.159 85.9361C749.234 87.9179 749.515 89.5303 748.717 91.2915C747.806 89.8251 747.867 89.6006 747.671 87.8278Z"/>
<path fill="HAIR1" transform="scale(0.21875 0.21875)" d="M829.512 86.8346L830.979 87.0149C830.919 89.0139 831.015 89.3252 830.168 91.0652C829.371 90.0377 829.544 88.2425 829.512 86.8346Z"/>
<path fill="HAIR1" transform="scale(0.21875 0.21875)" d="M785.246 108.226C789.904 109.027 789.689 108.648 794.234 108.698C791.084 111.306 788.085 111.173 785.246 108.226Z"/>
<path fill="HAIR1" transform="scale(0.21875 0.21875)" d="M766.408 77.2898C769.754 77.2253 773.363 76.6252 775.34 79.6662L774.733 80.6137C772.679 81.5862 770.184 80.8624 767.782 80.5067C764.64 80.4746 759.704 81.9212 757.833 80.8063L757.832 79.6216C759.678 77.4596 763.572 77.518 766.408 77.2898Z"/>
<path fill="HAIR1" transform="scale(0.21875 0.21875)" d="M810.875 77.3166C814.547 77.0497 817.539 77.6311 820.631 79.5712L820.707 80.4083C819.144 81.2853 817.159 80.7103 815.286 80.4498C812.34 80.4083 805.492 81.5655 803.98 81.0621C803.57 79.0798 803.454 79.9884 804.187 78.2273C805.96 77.1455 808.657 77.3756 810.875 77.3166Z"/>
<path fill="HAIR1" transform="scale(0.21875 0.21875)" d="M810.713 86.7868C816.186 87.9027 815.369 93.3502 812.932 97.0585C806.665 96.8138 808.01 90.5201 810.713 86.7868Z"/>
<path fill="HAIR1" transform="scale(0.21875 0.21875)" d="M766.783 86.8454C767.556 87.0509 767.896 87.233 768.508 87.7441C769.683 88.7222 770.4 90.143 770.49 91.6693C770.623 94.3366 769.66 95.6652 768.051 97.5922C762.45 95.9433 763.795 90.431 766.783 86.8454Z"/>
<path fill="HAIR1" transform="scale(0.21875 0.21875)" d="M752.694 30.885C758.45 23.1311 760.034 24.8486 768.479 21.526C769.912 20.9624 771.274 18.2868 774.042 17.6065C777.311 16.8031 778.654 18.6508 781.734 19.0283C789.409 15.1923 789.17 15.6948 796.708 18.9218C797.103 19.0909 801.321 17.0178 803.019 17.5875C810.43 20.0742 807.241 22.5125 815.856 22.5664C818.005 23.8641 819.343 25.402 821.493 26.9107C826.237 30.2385 832.627 32.882 836.338 37.324C837.124 38.2656 836.887 42.247 837.753 43.3123C843.425 50.2902 843.297 49.7015 845.704 58.1148C842.759 65.7923 844.078 64.6427 845.383 72.4139C845.944 75.7563 842.355 79.0358 842.453 80.2245C843.043 87.3443 844.69 86.2556 840.968 92.6828C838.278 89.6825 835.418 86.4376 830.979 87.0149L829.512 86.8346C829.749 81.2838 829.428 76.5276 828.927 71.0266L828.426 70.4093C828.199 70.1217 827.973 69.8341 827.746 69.5465C824.512 66.5613 826.393 59.6195 821.707 57.511C816.952 55.3717 814.568 62.8901 808.793 57.9493C807.759 57.0654 804.418 60.0722 802.517 60.4617C798.481 61.2886 796.117 58.3298 792.867 56.5868C785.42 52.2536 780.67 64.7331 773.561 59.8547C771.03 56.6719 765.682 60.5702 764.272 59.7672C757.984 56.1886 754.635 56.8997 752.661 64.4693C751.966 67.1366 751.935 68.106 750.023 70.6445L749.611 71.1841C749.155 75.2455 749.224 81.6254 749.159 85.9361L747.671 87.8278L746.903 86.7977C743.096 86.3565 739.46 90.6312 737.634 93.5506C736.609 91.9616 735.2 89.9953 734.814 88.0575C734.555 86.7582 736.038 81.0428 735.624 79.9592C734.698 77.5377 731.856 74.8911 732.102 71.4303C732.239 69.5102 734.485 66.8252 734.314 64.746C729.321 57.4299 734.471 48.8423 741.021 43.0466C742.398 34.3612 744.963 33.5805 752.694 30.885Z"/>
<path fill="HAIR1" transform="scale(0.21875 0.21875)" d="M273.699 195.292C250.706 177.904 236.246 154.836 232.267 126.031C228.431 99.3275 235.401 72.1959 251.633 50.6483C268.311 28.3413 293.201 13.6138 320.781 9.73402C348.771 5.86619 377.138 13.4472 399.468 30.7627C421 47.21 435.1 71.5539 438.651 98.4171C442.253 125.558 434.925 153.018 418.278 174.755C411.8 183.148 405.763 188.489 397.541 194.885C391.085 199.538 383.969 204.065 376.647 207.224L372.677 208.92C350.606 219.555 321.219 217.054 298.775 209.183L294.958 207.532C286.882 204.042 280.836 200.288 273.699 195.292Z"/>
<path fill="HAIR1" transform="scale(0.21875 0.21875)" d="M354.418 76.7227C359.07 76.2597 362.711 76.451 366.725 79.1769L366.816 80.1331C364.757 80.9355 364.034 80.427 361.623 80.0537C357.926 79.7978 350.246 81.9388 348.518 79.1749L348.831 77.8552C350.327 76.8556 352.548 76.8897 354.418 76.7227Z"/>
<path fill="HAIR1" transform="scale(0.21875 0.21875)" d="M309.377 76.5736C312.853 76.3628 320.553 75.7268 322.172 79.5076C320.502 81.2427 318.123 80.4174 315.936 80.0687C311.662 79.6061 306.447 81.1909 303.597 79.8916L303.741 78.9344C305.491 77.162 306.908 77.1277 309.377 76.5736Z"/>
<path fill="HAIR1" transform="scale(0.21875 0.21875)" d="M312.711 86.7792C318.055 89.2053 317.722 93.0041 314.49 97.3011C308.69 95.8025 309.607 90.6523 312.711 86.7792Z"/>
<path fill="HAIR1" transform="scale(0.21875 0.21875)" d="M357.148 86.8579C362.32 89.3891 361.579 93.9791 357.839 97.5455C357.226 97.2147 356.69 96.8575 356.163 96.4011C355.035 95.4342 354.369 94.0343 354.33 92.5485C354.242 89.9741 355.458 88.5409 357.148 86.8579Z"/>
<path fill="HAIR1" transform="scale(0.21875 0.21875)" d="M329.147 287.819C336.819 287.135 344.141 287.361 351.496 289.917C355.728 291.174 357.76 291.968 361.714 293.977C376.75 302.534 388.397 320.019 386.958 339.057C386.907 339.738 384.602 340.128 384.607 341.288C384.587 352.002 384.126 368.417 384.274 378.694L383.723 379.075C378.257 382.793 375.735 379.193 375.229 381.756C373.74 389.308 362.901 397.58 357.101 402.475L349.942 405.308C340.935 408.476 330.342 407.769 321.282 405.165C319.04 404.091 316.884 403.375 314.551 402.555C310.051 397.94 297.48 389.583 296.408 382.4C295.892 378.945 292.051 383.063 287.659 378.522C288.01 374.287 287.829 342.81 286.988 340.214L285.238 340.117L284.615 339.28C284.441 331.269 286.085 322.55 289.647 315.344C295.445 303.486 305.734 294.43 318.232 290.186C322.345 289.075 324.947 288.468 329.147 287.819Z"/>
<path fill="HAIR1" transform="scale(0.21875 0.21875)" d="M313.643 343.913C316.703 343.999 320.425 343.464 322.13 346.276L321.058 347.258C318.636 348.235 315.78 347.546 313.136 347.184C310.612 347.249 305.731 348.547 304.332 346.377C306.981 344.321 310.423 344.174 313.643 343.913Z"/>
<path fill="HAIR1" transform="scale(0.21875 0.21875)" d="M350.168 343.905C353.617 343.713 365.542 342.948 367.046 346.977L366.159 347.814C360.998 346.87 351.489 347.93 349.476 346.728L349.243 345.137L350.168 343.905Z"/>
<path fill="HAIR1" transform="scale(0.21875 0.21875)" d="M346.387 428.291C347.857 428.528 347.821 428.435 349.005 429.299C349.475 431.289 349.267 433.52 349.304 435.569C349.432 442.741 349.089 449.998 350.478 457.07C350.478 457.07 349.411 458.849 349.306 459.023C347.205 458.721 346.797 458.733 345.556 457.4C346.101 449.889 345.601 433.498 346.387 428.291Z"/>
<path fill="HAIR1" transform="scale(0.21875 0.21875)" d="M323.885 428.369C326.744 430.56 325.692 435.715 325.83 439.387C326.054 445.391 325.676 451.203 327.026 457.157L325.102 459.347C322.896 458.423 323.055 458.863 321.76 457.225C323.268 449.941 321.963 430.996 323.885 428.369Z"/>
<path fill="HAIR1" transform="scale(0.21875 0.21875)" d="M84.6661 76.6573C88.2558 76.4355 92.1156 75.9099 94.4126 79.1021L93.8537 80.0493C91.8177 81.0346 89.3929 80.3409 87.0038 80.0023C83.7985 80.0685 79.2353 81.1922 76.8216 80.8504C76.4342 79.348 76.3769 80.0842 77.1845 78.5921C79.5832 77.2074 81.8982 77.0891 84.6661 76.6573Z"/>
<path fill="HAIR1" transform="scale(0.21875 0.21875)" d="M127.443 76.7008C132.058 76.3069 135.879 76.6202 139.895 79.1616L140.04 80.0336C138.156 80.9155 137.46 80.4514 135.149 80.1931C130.907 79.7263 127.3 80.2601 123.032 80.5964C122.121 78.8798 122.037 79.3813 122.415 77.9565C123.921 76.8156 125.493 76.9024 127.443 76.7008Z"/>
<path fill="HAIR1" transform="scale(0.21875 0.21875)" d="M129.932 86.8574C135.538 88.3247 134.133 93.9605 131.366 97.5327C125.866 95.8109 126.58 90.4787 129.932 86.8574Z"/>
<path fill="HAIR1" transform="scale(0.21875 0.21875)" d="M85.6109 86.7634C86.4234 87.0977 86.8772 87.329 87.5498 87.8933C88.6851 88.835 89.3825 90.2027 89.478 91.6747C89.662 94.3143 88.6214 95.7491 87.043 97.656C81.3981 96.3475 82.8378 90.2871 85.6109 86.7634Z"/>
<path fill="HAIR1" transform="scale(0.21875 0.21875)" d="M60.8055 88.0989C54.2453 59.3531 60.6675 30.3973 93.1527 23.3166C119.693 17.5318 151.015 26.5618 156.56 56.489C158.028 64.5189 158.162 80.0178 155.658 88.0229C148.142 84.7809 151.226 88.9827 149.486 91.5586C148.861 89.8349 148.979 83.5359 148.885 81.3329C148.463 71.4123 146.993 63.9113 142.769 54.9805C116.068 65.7749 100.101 65.03 73.7171 55.0027C68.3918 64.2424 67.641 76.7511 67.6045 87.2682L66.3238 87.3701C64.1019 86.5398 63.171 87.0761 60.8055 88.0989Z"/>
<path fill="HAIR1" transform="scale(0.21875 0.21875)" d="M83.5684 341.563C87.3053 341.45 92.4914 340.732 94.7631 344.331L94.198 345.051C92.2863 345.837 90.8593 345.271 88.7621 344.848C84.803 344.681 79.0359 346.283 76.4268 344.543L76.9781 343.531C78.9297 342.069 81.0952 341.982 83.5684 341.563Z"/>
<path fill="HAIR1" transform="scale(0.21875 0.21875)" d="M122.983 341.705C127.276 341.264 137.449 340.871 140.299 344.305L139.772 345.343L138.806 345.284C133.87 344.529 124.495 345.696 122.277 344.365C122.035 342.392 121.791 343.246 122.983 341.705Z"/>
<path fill="HAIR1" transform="scale(0.21875 0.21875)" d="M129.511 351.794C135.4 352.568 134.316 358.129 132.124 362.028C125.807 361.507 126.713 355.844 129.511 351.794Z"/>
<path fill="HAIR1" transform="scale(0.21875 0.21875)" d="M85.4933 351.805C86.2714 351.976 87.0026 352.315 87.6356 352.799C90.9025 355.25 89.366 359.37 87.2485 361.985C81.4163 361.019 82.6571 355.378 85.4933 351.805Z"/>
<path fill="HAIR1" transform="scale(0.21875 0.21875)" d="M61.2386 352.603C58.1771 343.009 58.3368 329.475 60.2428 319.343C67.8339 278.987 131.824 274.126 151.399 306.653C158.351 318.204 159.204 339.096 155.712 352.542C153.493 351.653 153.303 351.184 151.109 351.467C149.976 352.634 150.021 353.396 149.74 355.009L149.349 355.215C148.132 341.116 149.282 332.497 142.616 318.979C118.483 328.698 99.361 329.14 75.1883 318.913C74.8804 318.783 74.5733 318.65 74.267 318.516C67.5257 329.382 67.8959 344.345 67.4115 356.96C67.1118 355.121 67.0217 352.884 65.8053 351.613C63.9531 351.237 63.0877 351.849 61.2386 352.603Z"/>
<path fill="HAIR1" transform="scale(0.21875 0.21875)" d="M500.463 195.053C493.355 189.117 488.62 185.352 482.452 178.224C464.872 157.741 456.188 131.09 458.323 104.181C460.359 76.3847 473.171 51.9967 494.22 33.846C515.151 15.7213 542.5 6.79055 570.093 9.06923C598.019 11.2227 623.897 24.5472 641.872 46.0285C672.705 82.3069 674.003 135.153 645.727 173.408C639.28 182.13 633.201 187.498 624.951 194.467C618.445 198.705 610.692 203.858 603.641 206.892L600.172 208.65C573.992 218.321 551.54 218.438 525.351 209.133L521.727 207.38C515.988 205.192 505.534 198.624 500.463 195.053Z"/>
<path fill="HAIR1" transform="scale(0.21875 0.21875)" d="M540.322 76.9152L542.119 76.633C543.132 77.0181 545.77 77.1089 546.996 77.2051C548.823 78.4083 548.427 77.7753 549.057 79.5744C547.785 80.6326 530.93 81.1516 530.44 80.9088C530.465 76.6084 537.092 76.7112 540.322 76.9152Z"/>
<path fill="HAIR1" transform="scale(0.21875 0.21875)" d="M578.207 76.7772C581.633 76.5336 592.746 75.9755 593.816 80.2917L593.208 80.8131L591.695 80.5459C585.905 79.529 579.541 81.1176 576.434 79.9433C575.739 78.215 575.735 79.0565 576.448 77.3363L578.207 76.7772Z"/>
<path fill="HAIR1" transform="scale(0.21875 0.21875)" d="M273.34 803.252C237.684 776.57 223.057 730.092 237.006 687.797C250.955 645.502 290.361 616.846 334.894 616.613C379.426 616.381 419.129 644.624 433.518 686.772C447.907 728.919 433.766 775.547 398.39 802.6C391.815 807.628 384.662 811.85 377.083 815.176C375.837 815.723 374.58 816.245 373.313 816.743C349.258 826.188 322.542 826.306 298.405 817.072C297.23 816.623 296.064 816.152 294.907 815.66C287.246 812.405 280.005 808.239 273.34 803.252Z"/>
<path fill="HAIR1" transform="scale(0.21875 0.21875)" d="M354.572 761.919C356.501 762.581 358.025 762.827 359.242 764.372C359.783 768.918 356.711 785.676 355.304 790.123C353.459 792.036 352.281 792.01 349.473 792.301C347.939 798.347 352.876 799.195 348.83 802.39C346.667 802.589 347.471 802.808 345.691 801.774C345.326 800.541 345.157 800.831 345.439 799.884C347.376 793.384 345.17 784.78 346.012 777.964C346.941 770.449 348.931 774.033 349.968 764.869C351.186 763.664 353.044 762.772 354.572 761.919Z"/>
<path fill="HAIR1" transform="scale(0.21875 0.21875)" d="M316.336 761.7C317.632 762.264 319.584 763.035 320.758 763.703C321.734 766.661 322.298 772.274 322.913 773.318L325.085 773.126C327.533 778.295 324.036 792.311 327.211 800.7C326.442 802.06 324.769 803.264 323.164 803.176C320.509 800.457 323.833 795.338 322.391 791.876C320.942 791.911 318.496 792.094 317.178 791.736C316.063 786.811 311.933 768.597 312.387 764.677C313.302 763.037 314.625 762.607 316.336 761.7Z"/>
<path fill="HAIR1" transform="scale(0.21875 0.21875)" d="M368.776 746.88C375.582 753.025 378.488 758.954 375.747 768.14C373.192 773.306 371.37 774.657 366.733 778.022C366.711 775.699 366.497 773.454 366.311 771.141C375.606 764.255 375.177 759.807 368.595 750.928L367.258 749.463L368.776 746.88Z"/>
<path fill="HAIR1" transform="scale(0.21875 0.21875)" d="M349.6 688.172C353.877 687.89 365.037 686.635 367.069 691.332L366.334 692.118C360.204 690.986 352.387 692.403 349.741 691.539C349.055 689.729 349.257 690.318 349.6 688.172Z"/>
<path fill="HAIR1" transform="scale(0.21875 0.21875)" d="M310.69 688.055C314.019 687.923 320.443 687.153 322.351 690.637L321.785 691.481C319.788 692.467 318.35 691.903 316.078 691.494C311.554 691.047 308.504 692.236 304.219 691.107L304.031 690.387C306.849 688.645 307.48 688.609 310.69 688.055Z"/>
<path fill="HAIR1" transform="scale(0.21875 0.21875)" d="M103.344 739.252C107.03 739.228 110.871 739.261 114.542 739.159C114.568 742.876 114.473 747.484 114.736 751.124C114.584 751.564 114.179 751.886 113.812 752.283C110.656 752.791 106.72 752.411 103.461 752.228C103.503 747.902 103.464 743.576 103.344 739.252Z"/>
<path fill="HAIR1" transform="scale(0.21875 0.21875)" d="M85.1535 687.027C88.4279 686.867 92.4486 686.528 94.4888 689.451L93.7537 690.388C91.2569 691.514 88.8735 690.837 86.0434 690.465C82.8685 690.375 78.739 691.669 76.7636 690.991L76.3594 689.741C78.5111 687.394 81.9677 687.38 85.1535 687.027Z"/>
<path fill="HAIR1" transform="scale(0.21875 0.21875)" d="M127.158 687.028C131.857 686.646 135.348 686.734 139.474 689.37L139.522 690.294C138.043 691.149 136.353 690.603 134.584 690.329C131.051 690.13 123.82 691.899 121.845 689.563L122.13 688.336C123.772 687.015 124.789 687.303 127.158 687.028Z"/>
<path fill="HAIR1" transform="scale(0.21875 0.21875)" d="M129.438 696C135.385 696.757 134.273 702.686 131.82 706.49C125.834 705.913 126.87 699.762 129.438 696Z"/>
<path fill="HAIR1" transform="scale(0.21875 0.21875)" d="M85.4806 696.041C91.1673 697.277 89.938 703.095 86.9614 706.662C86.1331 706.419 85.3629 706.01 84.6973 705.46C81.5727 702.877 83.4068 698.604 85.4806 696.041Z"/>
<path fill="HAIR1" transform="scale(0.21875 0.21875)" d="M93.9106 752.986L94.7747 753.206C99.4744 754.45 103.298 756.864 109.031 757.649C112.934 758.184 120.104 757.194 122.93 758.03L123.287 758.945C123.629 760.496 123.65 761.017 124.52 762.387L128.077 762.196L129.644 762.469C129.17 767.353 128.434 769.173 126.799 773.777C122.067 783.24 119.614 787.887 111.928 795.27C116.589 798.588 120.068 805.025 114.954 809.172C104.911 817.316 93.7626 804.336 105.357 795.231C98.4926 788.811 94.2416 781.268 90.5777 772.759C89.6895 769.365 88.86 765.955 88.0894 762.531L90.116 762.148L91.7561 762.247C92.9665 761.955 92.5235 762.115 93.5712 761.339C94.3334 758.698 94.0055 755.79 93.9106 752.986Z"/>
<path fill="HAIR1" transform="scale(0.21875 0.21875)" d="M514.35 659.351C517.303 653.573 520.271 647.474 524.944 642.806C544.768 623.005 589.781 624.643 604.825 649.748C606.641 652.779 608.269 656.212 609.75 659.455C614.073 662.884 614.57 674.944 612.244 679.489C609.731 679.422 602.279 678.929 600.275 680.108L599.904 681.562C599.704 680.818 599.519 680.464 599.217 679.757C574.895 678.754 549.248 680.888 524.309 679.606C520.834 679.386 515.837 679.499 512.241 679.465C510.422 674.775 510.551 663.084 514.35 659.351Z"/>
<path fill="HAIR1" transform="scale(0.21875 0.21875)" d="M535.013 687.551C538.611 687.261 546.191 686.132 548.71 689.314L548.478 690.47C546.643 691.43 547.124 691.098 544.604 690.724C539.518 690.149 535.972 691.079 530.95 690.532L530.533 689.79C531.868 688.32 533.102 688.154 535.013 687.551Z"/>
<path fill="HAIR1" transform="scale(0.21875 0.21875)" d="M575.946 687.61C580.082 687.3 591.791 686.214 594.285 690.311L593.777 691.431C587.488 689.848 582.983 690.64 576.644 691.22C575.631 690.029 576.004 689.648 575.946 687.61Z"/>
<path fill="HAIR1" transform="scale(0.21875 0.21875)" d="M512.241 679.465C515.837 679.499 520.834 679.386 524.309 679.606C524.053 697.614 523 719.273 542.24 727.765C547.309 719.205 552.733 720.172 561.94 720.211C569.052 720.241 574.191 719.427 580.084 723.986C580.3 723.644 581.079 722.9 581.397 722.574C583.417 722.811 588.233 722.8 589.379 723.543C591.32 722.164 592.996 719.901 594.278 717.935C600.452 708.666 600.782 692.5 599.904 681.562L600.275 680.108C602.279 678.929 609.731 679.422 612.244 679.489C611.811 684.398 611.416 691.135 609.93 695.71C615.975 701.324 616.953 708.449 609.319 713.246L608.472 714.129C606.29 715.704 605.047 715.707 602.442 716.095C601.782 719.323 601.162 723.287 599.746 726.181L599.389 727.346C592.738 738.259 588.739 743.304 577.217 748.858C565.985 752.493 558.402 752.242 547.406 748.545C536.243 743.651 530.986 738.096 525.596 727.15L525.283 725.593C524.256 722.958 523.143 718.843 522.322 716.038C521.839 712.907 520.411 695.3 519.7 693.898C518.125 693.633 516.548 694.528 515.005 695.171C513.37 690.67 512.805 684.325 512.241 679.465Z"/>
<path fill="HAIR1" transform="scale(0.21875 0.21875)" d="M273.248 1081.01C266.439 1076.46 258.747 1068.77 253.618 1062.41C236.668 1041.29 228.813 1014.3 231.786 987.381C234.891 959.486 248.413 936.053 270.257 918.631C292.218 901.122 320.287 893.161 348.169 896.532C375.588 899.904 400.574 913.945 417.713 935.612C434.587 957.169 442.098 984.6 438.561 1011.75C435.065 1040.14 420.541 1063.05 398.322 1080.42C392.013 1085.42 384.507 1089.81 377.188 1093.2L374.012 1094.54C365.522 1098.44 356.05 1100.1 346.924 1101.72C345.874 1102.22 325.935 1102.21 324.665 1101.74C315.726 1100.55 306.447 1098.67 298.135 1095.09L295.04 1093.86C288.109 1090.57 279.068 1086.01 273.248 1081.01Z"/>
<path fill="HAIR1" transform="scale(0.21875 0.21875)" d="M353.487 966.535C357.045 966.334 365.032 966.341 366.867 969.791L366.069 970.331L363.174 969.747C358.687 969.548 355.279 970.011 350.866 970.462C349.781 970.573 349.558 969.903 348.897 969.089L349.14 968.231C350.78 966.684 351.108 966.801 353.487 966.535Z"/>
<path fill="HAIR1" transform="scale(0.21875 0.21875)" d="M310.275 966.466C311.778 966.365 313.285 966.32 314.791 966.33C317.318 966.345 320.316 966.697 322.185 968.581L322.053 969.473C319.873 970.413 319.891 970.035 317.369 969.765C313.522 969.65 308.329 970.119 304.876 969.511L304.666 968.862C306.488 967.448 308.068 967.151 310.275 966.466Z"/>
<path fill="HAIR1" transform="scale(0.21875 0.21875)" d="M357.149 974.544C362.565 975.965 361.509 981.894 358.304 985.256C352.792 983.643 353.794 977.979 357.149 974.544Z"/>
<path fill="HAIR1" transform="scale(0.21875 0.21875)" d="M312.983 974.421C318.256 976.312 317.562 981.565 314.442 985.228C308.51 984.102 310.102 977.978 312.983 974.421Z"/>
<path fill="HAIR1" transform="scale(0.21875 0.21875)" d="M806.011 962.704C809.774 962.446 819.492 961.645 821.275 965.923L820.455 966.492L819.049 966.103C814.518 965.608 806.078 966.613 803.86 965.733C803.303 964.151 803.341 964.96 803.955 963.227L806.011 962.704Z"/>
<path fill="HAIR1" transform="scale(0.21875 0.21875)" d="M762.302 963.119C765.965 962.853 772.794 962.083 775.398 965.278L775.083 966.145C772.936 966.962 772.648 966.546 770.2 966.208C765.87 965.837 761.648 966.73 757.694 966.124L757.54 965.43C759.244 964.043 760.265 963.835 762.302 963.119Z"/>
<path fill="HAIR1" transform="scale(0.21875 0.21875)" d="M766.639 971.137C772.375 972.471 771.046 978.666 767.916 982.201C762.613 979.824 763.178 975.002 766.639 971.137Z"/>
<path fill="HAIR1" transform="scale(0.21875 0.21875)" d="M810.538 971.097C816.663 972.536 816.017 977.78 812.401 981.69C806.906 980.029 808.012 974.911 810.538 971.097Z"/>
<path fill="HAIR1" transform="scale(0.21875 0.21875)" d="M788.202 957.242C789.828 956.749 791.547 957.661 792.05 959.284C792.553 960.907 791.651 962.631 790.031 963.144C788.398 963.662 786.655 962.75 786.148 961.113C785.641 959.477 786.562 957.739 788.202 957.242Z"/>
<path fill="HAIR1" transform="scale(0.21875 0.21875)" d="M87.653 916.925C96.2966 907.301 101.235 905.823 114.006 902.79C110.006 905.802 107.899 907.513 104.207 911.024C116.082 906.47 121.875 906.527 134.432 907.459C131.668 908.905 128.127 910.639 125.521 912.221C143.099 912.851 156.082 916.315 168.555 929.309C161.754 927.233 157.707 926.831 150.586 926.248C162.327 931.838 167.376 935.547 173.433 947.41C169.97 945.334 166.3 943.038 162.763 941.14C172.613 952.368 174.682 959.17 177.208 973.593L171.285 964.973C174.664 976.655 175.638 984.715 169.992 995.787C166.071 1003.48 150.178 1028.12 141.046 1027.78C140.868 1026.36 141.302 1025.56 141.783 1024.22C140.273 1023.87 129.627 1032.3 123.179 1033.03L123.188 1036.09C118.835 1036.27 113.404 1036.57 109.105 1036.27C105.444 1036.01 97.7548 1032.11 94.3653 1032.56L94.1493 1032.41C87.0975 1030.98 85.9363 1030.13 79.8009 1026.2C78.5143 1025.38 77.4075 1024.33 76.1306 1024.48L76.4658 1027.08L75.9187 1027.41C65.2963 1021.61 60.3915 1014.74 54.0431 1004.96C43.9051 989.348 43.0468 984.063 47.1517 966.181C45.5329 968.818 43.9313 971.465 42.347 974.122C43.7695 961.058 45.4672 956.288 53.0636 945.57C49.8757 948.068 46.7314 950.622 43.6319 953.229C48.0196 940.636 53.4124 934.036 65.074 927.202C61.3603 928.028 57.2574 928.85 53.6286 929.889C64.4937 919.774 72.6641 917.214 87.653 916.925Z"/>
<path fill="HAIR1" transform="scale(0.21875 0.21875)" d="M102.554 1017.07L114.745 1016.99L114.865 1023.98C115.202 1032.84 110.276 1030.57 102.965 1030.04C102.976 1025.61 103.072 1021.48 102.554 1017.07Z"/>
<path fill="HAIR1" transform="scale(0.21875 0.21875)" d="M122.617 965.523C126.545 965.299 137.727 964.657 140.051 968.307L139.404 969.249C132.899 967.887 128.018 969.832 122.971 968.708C122.059 967.335 122.381 967.651 122.617 965.523Z"/>
<path fill="HAIR1" transform="scale(0.21875 0.21875)" d="M80.8167 965.983C82.724 965.82 84.634 965.69 86.5459 965.593C88.7727 965.484 94.8332 965.727 94.6745 968.801C92.7053 969.84 93.219 969.485 90.5402 969.151C87.3895 968.736 78.3485 969.727 76.9885 968.52C77.8715 967.068 79.2314 966.696 80.8167 965.983Z"/>
<path fill="HAIR1" transform="scale(0.21875 0.21875)" d="M130.15 973.929C135.74 975.496 134.752 981.063 131.657 984.696C125.6 983.275 126.865 977.696 130.15 973.929Z"/>
<path fill="HAIR1" transform="scale(0.21875 0.21875)" d="M85.6474 973.968C91.0276 975.817 90.1625 981.047 87.234 984.802C81.2467 983.398 82.4863 977.736 85.6474 973.968Z"/>
<path fill="HAIR1" transform="scale(0.21875 0.21875)" d="M792.769 286.494C814.21 279.736 843.177 295.191 849.297 317.099C851.793 326.033 851.719 335.195 851.796 344.398C852.008 369.89 851.939 395.394 851.84 420.884C851.81 428.64 850.213 439.566 850.768 446.823C849.008 449.671 848.451 450.769 844.997 450.809C840.872 449.194 841.267 446.308 841.723 442.661L840.425 440.445C839.827 437.64 841.202 421.999 841.297 417.766C841.506 401.132 841.507 384.497 841.301 367.864C841.078 352.182 842.177 337.525 837.654 322.306C837.135 320.477 837.295 320.57 838.088 318.847C832.538 312.661 831.881 311.355 827.145 305.181L829.136 302.849C817.671 292.883 807.531 292.94 793.387 293.968C790.802 292.547 791.975 288.787 792.769 286.494Z"/>
<path fill="HAIR1" transform="scale(0.21875 0.21875)" d="M727.003 445.479C727.716 442.14 726.783 426.114 726.735 421.244L726.523 363.394C726.518 336.592 721.978 307.477 749.397 291.858C761.893 284.74 773.1 283.283 786.992 286.697C787.561 289.554 788.085 291.361 786.53 293.813C783.451 295.623 760.426 288.696 749.088 302.713C748.746 304.22 747.661 307.634 747.761 308.826C746.054 311.945 744.847 313.622 742.238 316.15C740.64 317.435 739.253 318.229 738.546 320.085C739.18 321.656 738.648 321.072 740.284 321.806C740.044 327.21 737.782 333.091 737.536 338.363C737.172 346.153 737.338 354.151 737.327 361.959L737.284 401.59C737.31 406.693 737.001 427.138 737.737 431.379C735.734 434.157 736.184 436.482 736.195 440.092L736.432 448.582C731.528 452.537 729.044 450.831 727.003 445.479Z"/>
<path fill="HAIR1" transform="scale(0.21875 0.21875)" d="M747.761 308.826C755.328 301.045 763.734 295.438 774.887 295.29C778.965 295.235 786.095 295.105 787.422 299.729C786.957 301.66 786.972 301.556 785.671 303.086C782.874 303.608 779.987 302.962 777.064 302.799C770.218 302.417 763.104 306.61 758.302 311.167C764.48 307.868 780.295 301.762 786.128 307.463C786.952 309.634 786.946 308.8 786.603 310.965C782.892 315.108 771.737 310.696 767.088 316.398L767.676 316.782L768.377 316.629C773.001 315.649 785.544 313.611 787.317 319.374C785.79 326.537 779.27 323.866 775.582 323.894C773.204 323.913 761.502 326.651 760.797 327.788C754.802 337.455 757.005 382.528 757.482 391.081C758.22 392.038 760.384 394.701 760.901 395.592L762.042 396.514C765.16 399.085 768.507 401.892 772.122 403.723L774.215 404.786L774.579 408.303C783.81 413.173 792.774 415.828 803.2 413.238C803.443 415.762 803.425 417.34 804.72 419.576C804.706 420.394 804.773 422.282 804.511 422.922L803.374 432.11L802.573 438.66L801.922 449.933L801.514 452.904L801.436 462.45C793.372 462.522 785.308 462.515 777.244 462.428L776.514 467.874C774.333 469.528 772.901 470.363 770.196 469.473C768.556 468.123 768.572 468.006 767.999 465.873C766.747 467.246 765.746 467.027 763.903 466.648C761.2 471.523 756.804 470.14 754.823 465.342L750.3 465.093L750.192 472.578C749.052 472.127 747.92 471.655 746.797 471.163C739.141 467.811 731.917 463.546 725.284 458.461C725.587 457.932 726.598 447.418 727.003 445.479C729.044 450.831 731.528 452.537 736.432 448.582L736.195 440.092C736.184 436.482 735.734 434.157 737.737 431.379C737.001 427.138 737.31 406.693 737.284 401.59L737.327 361.959C737.338 354.151 737.172 346.153 737.536 338.363C737.782 333.091 740.044 327.21 740.284 321.806C738.648 321.072 739.18 321.656 738.546 320.085C739.253 318.229 740.64 317.435 742.238 316.15C744.847 313.622 746.054 311.945 747.761 308.826Z"/>
<path fill="HAIR1" transform="scale(0.21875 0.21875)" d="M760.901 395.592L762.042 396.514C765.16 399.085 768.507 401.892 772.122 403.723L774.215 404.786L774.579 408.303C774.619 410.984 775.045 416.545 773.664 418.579C773.866 420.315 773.922 421.483 773.948 423.232C774.413 426.388 774.792 429.557 775.085 432.734L775.717 438.857C775.937 441.788 776.127 444.682 776.5 447.598L776.829 453.27L777.244 462.428L776.514 467.874C774.333 469.528 772.901 470.363 770.196 469.473C768.556 468.123 768.572 468.006 767.999 465.873C766.747 467.246 765.746 467.027 763.903 466.648L763.967 465.629L763.343 448.161L763.285 446.507C763.232 443.309 762.942 439.661 762.763 436.431L762.475 430.625C762.039 427.256 762.043 422.745 761.559 418.774C761.586 411.041 761.367 403.31 760.901 395.592Z"/>
<path fill="HAIR1" transform="scale(0.21875 0.21875)" d="M820.253 310.677C815.994 307.583 811.552 304.324 806.249 303.366C802.271 302.647 797.878 304.429 793.965 303.052C792.569 302.56 792.537 301.756 792.133 300.506C792.632 296.075 795.051 295.714 799.047 295.491C810.288 294.861 818.446 298.558 827.145 305.181C831.881 311.355 832.538 312.661 838.088 318.847C837.295 320.57 837.135 320.477 837.654 322.306C842.177 337.525 841.078 352.182 841.301 367.864C841.507 384.497 841.506 401.132 841.297 417.766C841.202 421.999 839.827 437.64 840.425 440.445L841.723 442.661C841.267 446.308 840.872 449.194 844.997 450.809C848.451 450.769 849.008 449.671 850.768 446.823C851.395 450.467 851.938 454.124 852.395 457.793C845.814 462.949 838.634 467.29 831.011 470.723C830.203 471.087 829.391 471.44 828.574 471.783C827.636 470.44 827.583 467.305 827.409 465.508L823.622 466.298C821.651 471.913 816.529 471.843 814.662 465.927L814.176 467.128C812.615 467.574 812.038 467.395 810.45 467.209C809.229 468.949 809.157 469.275 807.312 470.134C804.743 470.237 803.781 469.483 801.682 467.919L801.436 462.45L801.514 452.904L801.922 449.933L802.573 438.66L803.374 432.11L804.511 422.922C804.773 422.282 804.706 420.394 804.72 419.576C803.425 417.34 803.443 415.762 803.2 413.238C803.231 410.163 803.367 407.562 803.588 404.491L805.714 403.607C808.736 402.001 812.267 399.593 815.153 397.656L815.956 397.478C817.208 394.674 818.675 393.261 820.706 390.968C821.382 387.029 821.652 351.463 820.887 347.671L819.673 347.315C813.297 346.204 810.155 347.558 804.232 347.215C803.476 345.846 803.694 346.606 803.916 344.791C807.056 341.802 816.925 343.91 820.687 345.494C820.442 338.133 820.229 334.919 818.031 327.872C814.612 326.641 811.686 325.58 808.089 324.871C802.895 323.849 794.683 325.439 791.938 320.037C791.883 317.868 791.57 318.789 792.728 317.126C797.281 314.671 808.084 316.456 813.328 317.163C811.848 316.405 806.613 313.666 805.224 313.389C802.194 312.783 795.417 313.43 792.683 312.396C788.948 305.681 798.815 304.927 803.171 305.376C809.446 306.024 814.507 308.323 820.253 310.677Z"/>
<path fill="HAIR1" transform="scale(0.21875 0.21875)" d="M805.714 403.607C808.736 402.001 812.267 399.593 815.153 397.656C814.931 405.354 814.454 413.042 813.722 420.708L812.484 431.263L811.912 435.541C813.648 436.207 813.857 436.21 815.732 436.395C815.652 440.122 815.69 447.583 815.161 450.989L815.007 451.578C814.886 454.505 814.843 458.324 814.59 461.169L814.662 465.927L814.176 467.128C812.615 467.574 812.038 467.395 810.45 467.209C809.229 468.949 809.157 469.275 807.312 470.134C804.743 470.237 803.781 469.483 801.682 467.919L801.436 462.45L801.514 452.904L801.922 449.933L802.573 438.66L803.374 432.11L804.511 422.922C804.773 422.282 804.706 420.394 804.72 419.576C803.425 417.34 803.443 415.762 803.2 413.238C803.231 410.163 803.367 407.562 803.588 404.491L805.714 403.607Z"/>
<path fill="HAIR1" transform="scale(0.21875 0.21875)" d="M785.292 373.621C786.684 373.096 792.912 373.18 794.052 373.659C790.876 376.856 788.497 376.485 785.292 373.621Z"/>
<path fill="HAIR1" transform="scale(0.21875 0.21875)" d="M762.097 343.791C765.954 343.422 773.005 342.669 775.905 345.703L775.695 346.576C773.363 347.542 773.181 347.068 770.439 346.633C766.212 346.263 763.094 347.338 758.43 346.885L757.92 346.225C759.012 344.834 760.414 344.487 762.097 343.791Z"/>
<path fill="HAIR1" transform="scale(0.21875 0.21875)" d="M811.199 351.399C816.345 353.759 815.399 358.973 812.186 362.625C806.724 359.861 807.358 355.369 811.199 351.399Z"/>
<path fill="HAIR1" transform="scale(0.21875 0.21875)" d="M766.166 351.686C772.076 352.387 770.902 358.296 768.802 362.113C762.453 361.461 764.017 355.608 766.166 351.686Z"/></g></svg>