<svg xmlns="http://www.w3.org/2000/svg" viewBox="0 0 400 400"><defs><linearGradient id="gradient_0" gradientUnits="userSpaceOnUse" x1="740.69061" y1="319.18909" x2="737.78241" y2="316.71356"><stop offset="0" stop-color="#442310"/><stop offset="1" stop-color="#503835"/></linearGradient></defs><g transform="scale(2.0408)"><path fill="SKIN5" transform="scale(0.21875 0.21875)" d="M774.912 748.177C786.113 750.851 792.507 751.923 803.451 747.399L803.724 756.507L804.633 758.923C802.589 763.172 800.804 766.176 798.394 770.178L797.573 771.685C794.914 776.299 792.179 781.247 789.441 785.782L787.042 784.264C785.701 780.217 782.666 775.089 780.564 771.233L779.869 769.771C777.726 766.444 776.298 764.192 774.552 760.668C774.953 758.008 774.954 754.72 775.033 751.978L774.912 748.177Z"/>
<path fill="SKIN4" transform="scale(0.21875 0.21875)" d="M774.912 748.177C786.113 750.851 792.507 751.923 803.451 747.399L803.724 756.507C792.424 757.807 785.165 757.205 775.033 751.978L774.912 748.177Z"/>
<path fill="white" transform="scale(0.21875 0.21875)" d="M793.855 783.841C794.92 783.45 796.109 783.909 796.636 784.913C797.163 785.918 796.865 787.157 795.939 787.812C795.22 788.319 794.273 788.364 793.51 787.927C792.747 787.49 792.306 786.651 792.38 785.774C792.454 784.898 793.029 784.144 793.855 783.841Z"/>
<path fill="SKIN5" transform="scale(0.21875 0.21875)" d="M778.304 667.568C780.425 668.194 782.684 668.958 784.896 669.128C789.174 669.456 804.518 667.003 806.897 667.894C808.281 668.413 809.816 672.795 811.92 673.818C814.246 674.948 818.634 674.937 819.931 677.32C822.488 682.02 823.32 683.785 828.573 685.635C828.666 688.484 828.733 696.699 829.475 698.904C831.131 696.941 829.445 695.786 831.319 694.383C846.589 697.4 843.579 714.874 828.769 715.602C824.681 730.438 819.912 737.422 806.919 746.378C806.031 746.646 804.282 747.227 803.451 747.399C792.507 751.923 786.113 750.851 774.912 748.177C773.623 747.785 772.052 746.819 770.828 746.135C768.663 743.949 766.166 742.825 763.934 740.802C756.08 733.682 752.157 725.732 749.8 715.521C745.792 714.875 742.588 714.457 739.88 710.958C738.242 708.86 737.52 706.189 737.877 703.552C738.474 699.117 741.628 694.585 746.37 694.176L747.799 694.697L749.596 700.376C749.702 695.961 749.696 688.751 750.186 684.594C753.693 683.242 754.78 682.646 757.794 680.308C759.348 676.832 759.803 675.415 760.5 671.61C769.072 671.905 771.527 673.317 778.304 667.568Z"/>
<path fill="SKIN4" transform="scale(0.21875 0.21875)" d="M777.755 730.253C791.999 724.99 784.474 723.822 799.693 729.685C793.331 736.416 784.572 736.525 777.755 730.253Z"/>
<path fill="SKIN4" transform="scale(0.21875 0.21875)" d="M809.296 709.093C813.121 707.325 817.655 708.962 819.469 712.765C821.282 716.569 819.7 721.123 815.919 722.982C813.433 724.205 810.481 723.996 808.191 722.436C805.902 720.875 804.628 718.204 804.857 715.442C805.085 712.681 806.781 710.256 809.296 709.093Z"/>
<path fill="SKIN4" transform="scale(0.21875 0.21875)" d="M789.41 694.974C792.575 701.888 794.824 709.721 794.246 717.398L795.142 718.097C795.855 717.977 785.53 717.095 784.987 717.065C784.598 711.015 787.664 701.044 789.41 694.974Z"/>
<path fill="white" transform="scale(0.21875 0.21875)" d="M788.855 678.304C792.08 682.314 793.19 685.324 789.192 689.007C783.576 685.662 786.163 682.751 788.855 678.304Z"/>
<path fill="SKIN5" transform="scale(0.21875 0.21875)" d="M524.29 958.319C549.553 958.49 574.816 958.491 600.078 958.32C600.235 969.488 601.282 985.551 594.72 995.048C590.758 999.454 587.755 1001.96 582.949 1005.45C581.638 1003.89 580.485 1002.71 579.619 1000.86C573.085 998.987 565.826 999.694 559.108 999.446C556.62 999.354 549.187 999.283 547.551 1000.42C542.12 1004.2 545.437 1007.22 537.502 1002.63C535.053 1001.25 533.291 999.383 531.253 997.449C522.783 988.983 524.215 969.801 524.29 958.319Z"/>
<path fill="SKIN4" transform="scale(0.21875 0.21875)" d="M579.619 1000.86C576.599 993.506 578.816 984.477 588.731 987.624C592.257 988.743 593.361 991.844 594.72 995.048C590.758 999.454 587.755 1001.96 582.949 1005.45C581.638 1003.89 580.485 1002.71 579.619 1000.86Z"/>
<path fill="SKIN4" transform="scale(0.21875 0.21875)" d="M531.253 997.449C531.43 994.023 531.342 991.616 533.988 989.036C535.31 987.725 537.119 987.024 538.98 987.101C541.461 987.193 543.79 988.321 545.4 990.212C550.968 996.736 544.55 1001.98 537.502 1002.63C535.053 1001.25 533.291 999.383 531.253 997.449Z"/>
<path fill="SKIN4" transform="scale(0.21875 0.21875)" d="M562.475 973.273C565.592 980.197 567.308 987.669 567.525 995.26C564.217 998.74 560.812 998.812 557.991 994.861C557.672 989.442 560.972 978.746 562.475 973.273Z"/>
<path fill="#1AB64E" transform="scale(0.21875 0.21875)" d="M583.423 973.86C589.441 975.314 588.877 980.617 585.297 984.535C579.459 983.115 580.504 977.7 583.423 973.86Z"/>
<path fill="#1AB64E" transform="scale(0.21875 0.21875)" d="M539.47 973.92C545.252 975.149 544.237 980.587 541.322 984.327C535.034 983.666 536.536 977.612 539.47 973.92Z"/>
<path fill="SKIN5" transform="scale(0.21875 0.21875)" d="M547.435 1027.8C557.584 1031.16 566.395 1031.93 576.665 1027.95L576.744 1035.68L576.515 1039.68C574.438 1043.37 573.373 1045.04 570.781 1048.39C564.496 1051.18 560.468 1051.38 554.039 1048.8C553.71 1047.12 548.411 1039.07 547.129 1037.03C547.659 1034.73 547.659 1032.68 547.768 1030.32L547.435 1027.8Z"/>
<path fill="SKIN4" transform="scale(0.21875 0.21875)" d="M547.435 1027.8C557.584 1031.16 566.395 1031.93 576.665 1027.95L576.744 1035.68C566.043 1036.25 556.887 1036.6 547.768 1030.32L547.435 1027.8Z"/>
<path fill="SKIN5" transform="scale(0.21875 0.21875)" d="M514.384 974.838L519.974 972.251C520.299 979.777 520.974 987.283 521.998 994.745C510.621 992.446 504.514 983.683 514.384 974.838Z"/>
<path fill="SKIN5" transform="scale(0.21875 0.21875)" d="M604.665 972.464C606.429 973.185 608.225 973.998 609.977 974.761C618.578 984.091 613.801 991.87 602.675 994.838C603.402 987.386 604.066 979.928 604.665 972.464Z"/>
<path fill="SKIN5" transform="scale(0.21875 0.21875)" d="M550.761 1005.85C555.19 1005.74 571.404 1003.96 573.29 1007.55C572.941 1009.47 571.909 1010.2 570.525 1011.62C563.897 1015.55 552.406 1014.99 550.761 1005.85Z"/>
<path fill="#E61D29" transform="scale(0.21875 0.21875)" d="M585.782 906.557C592.072 908.692 597.91 912.009 601.199 918.07L599.473 921.776C592.596 916.096 589.99 914.537 582.243 910.614C583.605 908.499 583.827 908.111 585.782 906.557Z"/>
<path fill="SKIN2" transform="scale(0.21875 0.21875)" d="M349.877 749.405C350.471 751.701 350.28 758.816 349.977 761.303L349.695 764.259C345.064 766.91 341.054 769.576 336.612 772.521C332.021 770.503 325.32 766.254 321.716 762.772L321.323 762.628C321.064 758.946 321.241 753.273 321.241 749.445C331.079 752.12 340.026 752.647 349.877 749.405Z"/>
<path fill="SKIN1" transform="scale(0.21875 0.21875)" d="M349.877 749.405C350.471 751.701 350.28 758.816 349.977 761.303C349.781 759.607 349.91 758.076 348.981 756.945C336.792 757.305 332.685 758.414 321.778 752.109L321.716 762.772L321.323 762.628C321.064 758.946 321.241 753.273 321.241 749.445C331.079 752.12 340.026 752.647 349.877 749.405Z"/>
<path fill="SKIN3" transform="scale(0.21875 0.21875)" d="M357.897 746.072C361.893 747.169 363.631 747.577 367.258 749.463L368.595 750.928C363.689 756.387 357.92 758.42 354.572 761.919C353.044 762.772 351.186 763.664 349.968 764.869L349.695 764.259L349.977 761.303C350.28 758.816 350.471 751.701 349.877 749.405C352.517 748.415 355.286 747.181 357.897 746.072Z"/>
<path fill="SKIN3" transform="scale(0.21875 0.21875)" d="M313.97 746.465C316.357 747.546 318.783 748.54 321.241 749.445C321.241 753.273 321.064 758.946 321.323 762.628L320.758 763.703C319.584 763.035 317.632 762.264 316.336 761.7C314.816 759.786 306.998 754.932 303.356 750.989C306.508 747.844 309.634 747.545 313.97 746.465Z"/>
<path fill="SKIN2" transform="scale(0.21875 0.21875)" d="M343.775 669.741C348.576 679.258 357.314 681.84 365.785 674.814C368.033 678.776 368.821 680.607 372.906 682.812L373.551 683.169C373.17 692.136 373 699.79 373.055 708.785L368.059 717.188C366.12 719.966 363.656 723.072 360.997 725.2C359.539 726.424 357.532 727.491 355.862 728.471C351.492 721.368 350.162 721.648 341.736 721.602C335.034 721.565 327.833 721.14 321.246 722.308C318.679 722.763 316.798 726.803 315.698 728.899C313.106 727.193 311.566 726.281 309.368 724.075C307.481 722.869 304.847 719.005 303.557 717.155C302.498 715.596 299.119 710.687 298.964 709.137C298.381 703.316 297.991 690.685 298.641 685.264C301.338 682.254 309.807 685.255 312.704 672.379C316.7 676.746 320.277 679.457 326.561 679.722C331.405 679.936 336.136 678.213 339.708 674.933C341.518 673.268 342.487 671.791 343.775 669.741Z"/>
<path fill="SKIN1" transform="scale(0.21875 0.21875)" d="M303.557 717.155C305.247 715.514 306.008 713.423 307.981 711.382C314.409 704.732 321.204 710.22 321.268 718.107C321.293 721.234 316.833 723.061 315.698 726.847C313.702 727.575 312.222 725.078 311.004 723.639C310.537 723.751 309.777 723.896 309.368 724.075C307.481 722.869 304.847 719.005 303.557 717.155Z"/>
<path fill="SKIN1" transform="scale(0.21875 0.21875)" d="M360.997 725.2C357.397 723.7 354.804 723.975 352.718 720.963C351.446 719.133 350.995 716.855 351.474 714.677C353.188 706.701 362.958 707.619 366.51 714.294L368.059 717.188C366.12 719.966 363.656 723.072 360.997 725.2Z"/>
<path fill="SKIN1" transform="scale(0.21875 0.21875)" d="M336.466 695.362C339.41 702.804 340.952 708.757 340.936 716.875C338.113 719.907 334.871 719.894 331.95 717.014C331.324 710.82 334.363 701.397 336.466 695.362Z"/>
<path fill="SKIN2" transform="scale(0.21875 0.21875)" d="M323.33 727.404C328.291 727.417 344.844 725.678 347.294 729.205C347.077 731.17 346.511 731.511 345.14 733.098C337.232 737.946 326.84 737.289 323.33 727.404Z"/>
<path fill="SKIN2" transform="scale(0.21875 0.21875)" d="M61.0558 696.042C62.7154 695.767 64.5703 695.112 65.7238 695.809L66.3787 698.365L67.1555 698.294C70.0246 692.17 65.0172 663.686 76.2794 659.196C81.514 657.109 91.737 662.838 97.374 663.05C105.648 664.037 108.713 664.584 117.275 663.603C123.4 662.901 135.491 657.703 140.184 658.931C147.774 664.587 148.858 682.531 149.039 691.402C149.074 693.151 148.854 698.365 149.403 699.637C150.752 698.211 149.64 697.16 151.552 695.526C153.355 695.245 153.6 695.418 155.415 695.932C167.416 705.176 161.07 713.933 148.679 717.217C145.081 731.693 137.393 742.217 123.379 748.061C123.394 750.197 123.576 757.199 123.287 758.945L122.93 758.03C120.104 757.194 112.934 758.184 109.031 757.649C103.298 756.864 99.4744 754.45 94.7747 753.206L93.9106 752.986L93.7211 748.274C92.5331 747.75 91.3623 747.187 90.2105 746.587C77.4697 739.85 72.1406 729.711 68.1117 716.545C55.5943 715.228 50.1676 704.387 61.0558 696.042Z"/>
<path fill="SKIN1" transform="scale(0.21875 0.21875)" d="M102.815 751.339C102.81 748.981 102.414 740.854 103.344 739.252C107.03 739.228 110.871 739.261 114.542 739.159C114.568 742.876 114.473 747.484 114.736 751.124C117.04 750.032 120.854 748.893 123.379 748.061C123.394 750.197 123.576 757.199 123.287 758.945L122.93 758.03C120.104 757.194 112.934 758.184 109.031 757.649C103.298 756.864 99.4744 754.45 94.7747 753.206L93.9106 752.986L93.7211 748.274C95.835 748.633 100.576 750.516 102.815 751.339Z"/>
<path fill="SKIN1" transform="scale(0.21875 0.21875)" d="M83.354 708.906C87.4473 707.59 91.8357 709.822 93.1828 713.905C94.53 717.989 92.3314 722.394 88.2587 723.773C84.1419 725.166 79.6784 722.938 78.3167 718.81C76.9549 714.683 79.2165 710.236 83.354 708.906Z"/>
<path fill="SKIN1" transform="scale(0.21875 0.21875)" d="M129.194 709.011C131.858 708.073 134.821 708.643 136.947 710.504C139.072 712.364 140.03 715.225 139.454 717.99C138.877 720.756 136.855 722.995 134.163 723.851C130.089 725.145 125.73 722.931 124.373 718.877C123.016 714.824 125.162 710.431 129.194 709.011Z"/>
<path fill="white" transform="scale(0.21875 0.21875)" d="M95.6821 726.319C103.557 725.997 113.461 726.187 121.518 726.085C120.059 729.05 119.765 729.794 117.525 732.28C109.621 737.395 99.001 736.322 95.6821 726.319Z"/>
<path fill="SKIN1" transform="scale(0.21875 0.21875)" d="M109.32 695.259C110.874 699.885 114.598 712.105 114.09 716.746C110.943 720.444 107.067 721.053 104.272 716.584C105.095 708.105 106.731 703.225 109.32 695.259Z"/>
<path fill="SKIN2" transform="scale(0.21875 0.21875)" d="M93.9106 752.986L94.7747 753.206C99.4744 754.45 103.298 756.864 109.031 757.649C112.934 758.184 120.104 757.194 122.93 758.03L123.287 758.945C123.629 760.496 123.65 761.017 124.52 762.387L125.237 763.296L124.958 764.476C118.767 772.133 106.219 774.754 97.3817 769.577C95.5503 768.504 92.1165 764.385 91.7561 762.247C92.9665 761.955 92.5235 762.115 93.5712 761.339C94.3334 758.698 94.0055 755.79 93.9106 752.986Z"/>
<path fill="SKIN1" transform="scale(0.21875 0.21875)" d="M61.0558 696.042C57.7495 679.922 57.1914 664.011 66.644 649.598C81.416 627.074 118.029 624.766 139.193 638.757C157.534 650.883 161.158 676.045 155.415 695.932C153.6 695.418 153.355 695.245 151.552 695.526C149.64 697.16 150.752 698.211 149.403 699.637C148.854 698.365 149.074 693.151 149.039 691.402C148.858 682.531 147.774 664.587 140.184 658.931C135.491 657.703 123.4 662.901 117.275 663.603C108.713 664.584 105.648 664.037 97.374 663.05C91.737 662.838 81.514 657.109 76.2794 659.196C65.0172 663.686 70.0246 692.17 67.1555 698.294L66.3787 698.365L65.7238 695.809C64.5703 695.112 62.7154 695.767 61.0558 696.042Z"/>
<path fill="SKIN2" transform="scale(0.21875 0.21875)" d="M547.406 748.545C558.402 752.242 565.985 752.493 577.217 748.858C577.266 751.154 577.481 755.525 577.32 757.651C577.462 758.937 577.579 760.775 577.961 761.935C576.704 765.724 565.564 777.646 562.487 781.029C558.921 778.147 547.686 765.73 546.12 762.02L547.744 761.564C547.34 758.399 547.447 751.961 547.406 748.545Z"/>
<path fill="SKIN1" transform="scale(0.21875 0.21875)" d="M547.406 748.545C558.402 752.242 565.985 752.493 577.217 748.858C577.266 751.154 577.481 755.525 577.32 757.651C575.637 756.684 573.259 757.136 571.208 757.256C562.675 757.752 555.822 755.675 547.971 752.387C547.961 754.597 548.056 759.625 547.744 761.564C547.34 758.399 547.447 751.961 547.406 748.545Z"/>
<path fill="SKIN2" transform="scale(0.21875 0.21875)" d="M524.309 679.606C549.248 680.888 574.895 678.754 599.217 679.757C599.519 680.464 599.704 680.818 599.904 681.562C600.782 692.5 600.452 708.666 594.278 717.935C592.996 719.901 591.32 722.164 589.379 723.543C588.233 722.8 583.417 722.811 581.397 722.574C581.079 722.9 580.3 723.644 580.084 723.986C574.191 719.427 569.052 720.241 561.94 720.211C552.733 720.172 547.309 719.205 542.24 727.765C523 719.273 524.053 697.614 524.309 679.606Z"/>
<path fill="SKIN1" transform="scale(0.21875 0.21875)" d="M581.397 722.574C578.284 720.557 576.597 716.847 578.262 713.312C579.319 711.091 581.255 709.413 583.603 708.68C590.514 706.544 593.171 712.489 594.278 717.935C592.996 719.901 591.32 722.164 589.379 723.543C588.233 722.8 583.417 722.811 581.397 722.574Z"/>
<path fill="SKIN1" transform="scale(0.21875 0.21875)" d="M557.992 716.314C558.42 708.614 560.139 701.04 563.077 693.909C565.108 700.222 567.557 710.035 567.586 716.664C564.344 719.665 560.97 719.526 557.992 716.314Z"/>
<path fill="#1AB64E" transform="scale(0.21875 0.21875)" d="M538.955 695.408C545.228 696.788 544.013 702.167 540.866 706.22C535.119 704.607 536.66 699.276 538.955 695.408Z"/>
<path fill="#1AB64E" transform="scale(0.21875 0.21875)" d="M583.94 695.511C589.283 697.448 588.016 702.556 585.357 706.267C579.756 704.208 580.797 699.359 583.94 695.511Z"/>
<path fill="SKIN2" transform="scale(0.21875 0.21875)" d="M604.758 693.096C606.284 693.769 608.388 694.927 609.93 695.71C615.975 701.324 616.953 708.449 609.319 713.246L608.472 714.129C606.29 715.704 605.047 715.707 602.442 716.095C603.507 709.029 604.124 700.261 604.758 693.096Z"/>
<path fill="SKIN2" transform="scale(0.21875 0.21875)" d="M580.084 723.986C580.3 723.644 581.079 722.9 581.397 722.574C583.417 722.811 588.233 722.8 589.379 723.543C587.473 725.056 585.833 726.752 583.532 727.085C581.287 726.402 581.739 726.317 580.084 723.986Z"/>
<path fill="SKIN2" transform="scale(0.21875 0.21875)" d="M550.095 726.695C554.335 726.672 569.88 726.296 573.268 727.047L573.696 728.155C572.996 730.358 572.472 730.724 570.913 732.536C563.718 737.047 551.609 736.981 550.095 726.695Z"/>
<path fill="SKIN2" transform="scale(0.21875 0.21875)" d="M515.005 695.171C516.548 694.528 518.125 693.633 519.7 693.898C520.411 695.3 521.839 712.907 522.322 716.038C519.607 715.467 518.809 714.995 516.404 713.791L514.581 712.947C508.385 706.764 507.929 700.921 515.005 695.171Z"/>
<path fill="SKIN6" transform="scale(0.21875 0.21875)" d="M516.625 729.964C515.914 728.944 513.823 728.09 512.66 726.738C507.856 721.158 509.582 717.487 514.581 712.947L516.404 713.791C514.131 715.019 512.079 716.836 511.342 719.413C510.929 720.842 511.158 722.38 511.97 723.626C515.2 728.614 520.741 727.193 525.283 725.593L525.596 727.15C523.46 728.337 522.272 728.613 521.459 730.885C519.101 731.327 518.834 731.093 516.625 729.964Z"/>
<path fill="SKIN6" transform="scale(0.21875 0.21875)" d="M609.319 713.246C614.695 717.03 616.186 720.746 611.908 726.302C610.648 727.938 608.602 728.65 607.671 729.879C605.564 730.619 605.393 730.789 603.299 730.346C602.357 728.191 601.598 728.343 599.389 727.346L599.746 726.181C604.56 727.596 612.436 728.889 612.853 720.15C612.962 717.872 610.325 715.442 608.472 714.129L609.319 713.246Z"/>
<path fill="SKIN2" transform="scale(0.21875 0.21875)" d="M321.723 1026.85C331.541 1030.51 339.855 1030.82 349.837 1027.09L350.415 1028.54C350.382 1031.98 350.247 1035.93 350.476 1039.33L350.188 1039.53C349.587 1041.11 348.871 1042.66 348.043 1044.14C342.586 1053.86 324.612 1052.13 321.414 1039.65C321.147 1036.41 321.267 1032.03 321.263 1028.7L321.723 1026.85Z"/>
<path fill="SKIN1" transform="scale(0.21875 0.21875)" d="M321.723 1026.85C331.541 1030.51 339.855 1030.82 349.837 1027.09L350.415 1028.54C350.382 1031.98 350.247 1035.93 350.476 1039.33L350.188 1039.53C350.072 1037.88 350.013 1037.61 349.605 1036C348.347 1035.64 344.717 1035.94 343.267 1036.07C334.647 1036.85 329.1 1035.33 321.649 1031.05C321.712 1034.32 321.749 1036.41 321.414 1039.65C321.147 1036.41 321.267 1032.03 321.263 1028.7L321.723 1026.85Z"/>
<path fill="SKIN2" transform="scale(0.21875 0.21875)" d="M350.963 940.875C356.305 952.621 360.485 953.951 369.821 961.343C372.218 963.24 366.821 977.938 369.975 982.226C371.652 986.376 372.538 987.411 374.885 991.275C374.453 1008.89 364.798 1019.3 349.837 1027.09C339.855 1030.82 331.541 1030.51 321.723 1026.85C306.878 1020.31 299.348 1009.35 296.358 993.572C301.018 986.026 303.269 982.24 301.076 973.126C300.709 971.635 300.304 970.153 299.863 968.682C311.078 960.654 309.413 962.633 321.158 964.558C335.954 966.983 348.025 955.17 350.963 940.875Z"/>
<path fill="SKIN1" transform="scale(0.21875 0.21875)" d="M312.596 987.327C316.445 987.735 319.78 988.77 320.859 993.045C321.329 994.971 321.019 997.004 319.995 998.702C318.382 1001.42 316.467 1002.23 313.588 1002.98C302.47 1000.2 301.393 990.019 312.596 987.327Z"/>
<path fill="SKIN1" transform="scale(0.21875 0.21875)" d="M357.201 987.326C361.439 986.425 365.605 989.13 366.507 993.368C367.41 997.606 364.707 1001.77 360.47 1002.68C356.23 1003.58 352.06 1000.88 351.157 996.637C350.254 992.396 352.96 988.227 357.201 987.326Z"/>
<path fill="white" transform="scale(0.21875 0.21875)" d="M322.775 1004.66L348.832 1004.54C347.501 1007.35 347.126 1008.14 345.241 1010.68C336.142 1016.86 327.603 1014.83 322.775 1004.66Z"/>
<path fill="SKIN1" transform="scale(0.21875 0.21875)" d="M336.537 974.651C339.417 982.74 340.211 986.936 341.409 995.353C338.681 999.683 334.152 1000.27 331.479 995.612C331.424 989.488 334.392 980.37 336.537 974.651Z"/>
<path fill="#212121" transform="scale(0.21875 0.21875)" d="M726.037 1081C719.665 1076.25 713.831 1070.82 708.636 1064.8C690.574 1043.68 682.453 1017.43 684.7 989.768C687.031 962.957 699.905 938.166 720.496 920.839C742.035 902.603 769.962 893.719 798.078 896.16C825.562 898.689 850.933 911.98 868.661 933.136C886.166 953.95 894.558 980.934 891.945 1008.01C889.269 1037.76 875.644 1060.55 853.038 1079.44C846.562 1084.54 839.549 1088.91 832.124 1092.49L829.01 1093.92L825.25 1095.44C804.788 1102.83 787.991 1103.72 766.73 1099.81C760.47 1098.39 754.992 1096.47 749.032 1094.2L746.935 1093.23C739.534 1089.94 732.524 1085.84 726.037 1081Z"/>
<path fill="SKIN2" transform="scale(0.21875 0.21875)" d="M755.657 955.571C772.942 946.593 793.81 945.278 812.313 951.087C815.998 952.22 819.563 953.712 822.955 955.542C824.539 965.159 825.962 973.108 822.506 982.577C813.322 986.674 804.558 989.227 794.382 989.682C791.352 990.012 786.704 990.017 783.667 989.693C774.947 989.104 763.383 986.575 755.703 982.37C753.337 972.859 753.743 965.127 755.657 955.571Z"/>
<path fill="SKIN1" transform="scale(0.21875 0.21875)" d="M783.667 989.693C784.053 989.444 784.44 989.195 784.826 988.946C786.472 982.342 787.635 975.535 789.944 969.121C792.058 975.72 794.221 982.71 794.382 989.682C791.352 990.012 786.704 990.017 783.667 989.693Z"/>
<path fill="SKIN2" transform="scale(0.21875 0.21875)" d="M92.4613 942.081C97.3019 952.637 101.679 957.586 112.33 962.301C107.845 955.821 107.131 954.178 104.86 946.6C112.025 955.1 115.483 958.88 126.301 962.388C122.655 956.708 121.574 955.197 119.863 948.767C125.96 954.877 132.055 961.269 141.424 961.403C141.753 961.406 142.083 961.404 142.412 961.395C143.818 968.299 144.029 973.257 143.329 980.284C143.095 982.639 141.471 989.53 141.932 990.931C148.275 989.763 149.685 974.558 153.412 973.337C162.165 975.533 165.337 988.974 156.085 992.405C153.799 993.253 149.103 993.928 148.259 996.188C144.192 1010.49 137.615 1020.36 123.181 1026.77L123.179 1033.03L123.188 1036.09C118.835 1036.27 113.404 1036.57 109.105 1036.27C105.444 1036.01 97.7548 1032.11 94.3653 1032.56L94.1493 1032.41C94.3279 1030.83 94.0813 1028 93.9891 1026.32C79.9547 1021.69 72.3655 1008.16 68.658 994.749C64.4911 994.525 61.1741 993.98 58.1727 990.487C56.4874 988.522 55.6626 985.962 55.8838 983.383C56.395 977.342 60.9933 974.615 65.9756 972.614C68.2982 982.282 69.7097 986.335 77.5465 992.534C73.775 976.847 73.1164 964.73 80.105 949.87C80.5716 954.289 80.7903 956.652 82.3502 960.82C85.0164 952.169 86.2256 948.821 92.4613 942.081Z"/>
<path fill="SKIN1" transform="scale(0.21875 0.21875)" d="M102.554 1017.07L114.745 1016.99L114.865 1023.98C115.154 1025.66 115.306 1026.64 115.818 1028.26L116.845 1028.91C118.884 1028.37 121.73 1027.09 123.181 1026.77L123.179 1033.03L123.188 1036.09C118.835 1036.27 113.404 1036.57 109.105 1036.27C105.444 1036.01 97.7548 1032.11 94.3653 1032.56L94.1493 1032.41C94.3279 1030.83 94.0813 1028 93.9891 1026.32C97.1474 1027.24 99.4129 1028.32 102.406 1029.66C102.335 1025.79 102.089 1020.83 102.554 1017.07Z"/>
<path fill="SKIN1" transform="scale(0.21875 0.21875)" d="M129.086 987.302C140.812 986.481 144.281 995.195 135.122 1002.25C123.013 1003.54 119.371 992.835 129.086 987.302Z"/>
<path fill="SKIN1" transform="scale(0.21875 0.21875)" d="M83.5039 987.474C87.5778 986.099 91.9982 988.268 93.4037 992.332C94.8091 996.395 92.6732 1000.83 88.6202 1002.27C84.5244 1003.72 80.031 1001.56 78.6107 997.448C77.1904 993.342 79.3871 988.864 83.5039 987.474Z"/>
<path fill="white" transform="scale(0.21875 0.21875)" d="M119.688 1004.31C120.497 1004.3 120.269 1004.34 121.09 1004.73C121.202 1007.67 117.381 1011.1 114.864 1012.15C109.97 1014.18 105.215 1013.23 100.43 1011.48C98.5584 1009.84 96.2303 1008.14 96.8726 1005.53C99.9792 1003.54 114.047 1004.61 119.688 1004.31Z"/>
<path fill="SKIN1" transform="scale(0.21875 0.21875)" d="M109.406 973.197C111.611 980.31 113.875 987.571 113.638 995.109C110.73 998.924 106.704 999.433 104.342 994.788C104.121 986.89 106.639 980.479 109.406 973.197Z"/>
<path fill="SKIN2" transform="scale(0.21875 0.21875)" d="M94.3653 1032.56C97.7548 1032.11 105.444 1036.01 109.105 1036.27C113.404 1036.57 118.835 1036.27 123.188 1036.09C123.216 1037.81 122.997 1040.13 123.885 1041.47C122.259 1052.1 97.0142 1052.48 93.6667 1041.7C94.7204 1039.51 94.387 1035.17 94.3653 1032.56Z"/>
<path fill="#474252" transform="scale(0.21875 0.21875)" d="M71.6988 1073.71C72.0206 1079.1 72.034 1083.18 71.9208 1088.58C71.6541 1087.12 71.414 1083.92 71.2107 1082.26L70.4497 1081.82C70.8334 1079.13 71.1885 1076.38 71.6988 1073.71Z"/></g></svg>