<svg xmlns="http://www.w3.org/2000/svg" viewBox="0 0 400 400"><defs><linearGradient id="gradient_0" gradientUnits="userSpaceOnUse" x1="740.69061" y1="319.18909" x2="737.78241" y2="316.71356"><stop offset="0" stop-color="#442310"/><stop offset="1" stop-color="#503835"/></linearGradient></defs><g transform="scale(2.0408)"><path fill="#E61D29" transform="scale(0.21875 0.21875)" d="M585.933 283.478C592.554 285.786 596.848 288.752 600.983 294.581L599.334 298.094C598.14 297.886 593.847 294.459 592.512 293.483C588.682 290.685 586.178 289.439 581.854 287.513C583.443 285.302 583.673 284.965 585.933 283.478Z"/>
<path fill="#1AB64E" transform="scale(0.21875 0.21875)" d="M583.423 973.86C589.441 975.314 588.877 980.617 585.297 984.535C579.459 983.115 580.504 977.7 583.423 973.86Z"/>
<path fill="#1AB64E" transform="scale(0.21875 0.21875)" d="M539.47 973.92C545.252 975.149 544.237 980.587 541.322 984.327C535.034 983.666 536.536 977.612 539.47 973.92Z"/>
<path fill="#E61D29" transform="scale(0.21875 0.21875)" d="M585.782 906.557C592.072 908.692 597.91 912.009 601.199 918.07L599.473 921.776C592.596 916.096 589.99 914.537 582.243 910.614C583.605 908.499 583.827 908.111 585.782 906.557Z"/>
<path fill="#E5E5E5" transform="scale(0.21875 0.21875)" d="M93.8503 139.714C105.715 142.686 111.168 143.673 123.176 139.379L123.186 149.005C123.253 151.263 122.891 152.199 124.023 153.818L125.494 154.116C128.386 154.075 130.233 154.72 133.015 155.472C145.819 157.746 157.511 161.877 165.469 172.632C172.604 182.273 169.255 190.134 171.116 194.606C164.178 199.835 157.432 203.515 149.555 207.124L146.321 208.793C122.431 218.588 95.9493 218.073 71.8872 209.189L67.9889 207.385C62.5932 205.201 51.3548 198.525 46.5293 195.073C48.3646 191.852 45.1686 182.955 50.5946 174.432C58.5286 161.969 70.4667 159.292 83.7576 155.585C86.3061 154.948 88.5547 154.185 91.152 154.339C92.3366 154.001 92.3343 153.954 93.452 153.412C94.5103 150.817 94.0057 146.668 93.8837 143.73L93.8503 139.714Z"/>
<path fill="#6E8FB9" transform="scale(0.21875 0.21875)" d="M70.4992 457.899C70.8701 454.76 71.087 453.252 71.8771 450.193C71.9952 456.539 72.2678 464.065 71.9023 470.384C71.2933 466.491 71.9113 462.036 71.1484 457.826L70.4992 457.899Z"/>
<path fill="#E5E5E5" transform="scale(0.21875 0.21875)" d="M547.401 139.213C558.459 142.496 565.563 142.932 576.72 139.215C576.82 143.884 577.07 148.964 576.607 153.576L580.588 153.548L587.873 155.414C600.121 158.513 609.968 160.832 618.3 171.037C623.323 178.725 623.763 180.49 624.324 189.956C624.395 191.165 624.443 193.43 624.951 194.467C618.445 198.705 610.692 203.858 603.641 206.892L600.172 208.65C573.992 218.321 551.54 218.438 525.351 209.133L521.727 207.38C515.988 205.192 505.534 198.624 500.463 195.053C502.544 184.514 498.924 182.818 506.446 171.468C515.053 161.103 524.41 158.951 536.816 155.537C539.027 155.064 541.552 154.354 543.771 153.781L547.703 153.447C547.152 149.768 547.382 143.14 547.401 139.213Z"/>
<path fill="#1AB64E" transform="scale(0.21875 0.21875)" d="M538.955 695.408C545.228 696.788 544.013 702.167 540.866 706.22C535.119 704.607 536.66 699.276 538.955 695.408Z"/>
<path fill="#1AB64E" transform="scale(0.21875 0.21875)" d="M583.94 695.511C589.283 697.448 588.016 702.556 585.357 706.267C579.756 704.208 580.797 699.359 583.94 695.511Z"/>
<path fill="#212121" transform="scale(0.21875 0.21875)" d="M726.037 1081C719.665 1076.25 713.831 1070.82 708.636 1064.8C690.574 1043.68 682.453 1017.43 684.7 989.768C687.031 962.957 699.905 938.166 720.496 920.839C742.035 902.603 769.962 893.719 798.078 896.16C825.562 898.689 850.933 911.98 868.661 933.136C886.166 953.95 894.558 980.934 891.945 1008.01C889.269 1037.76 875.644 1060.55 853.038 1079.44C846.562 1084.54 839.549 1088.91 832.124 1092.49L829.01 1093.92L825.25 1095.44C804.788 1102.83 787.991 1103.72 766.73 1099.81C760.47 1098.39 754.992 1096.47 749.032 1094.2L746.935 1093.23C739.534 1089.94 732.524 1085.84 726.037 1081Z"/>
<path fill="#474252" transform="scale(0.21875 0.21875)" d="M71.6988 1073.71C72.0206 1079.1 72.034 1083.18 71.9208 1088.58C71.6541 1087.12 71.414 1083.92 71.2107 1082.26L70.4497 1081.82C70.8334 1079.13 71.1885 1076.38 71.6988 1073.71Z"/>
<path fill="url(#gradient_0)" transform="scale(0.21875 0.21875)" d="M740.974 312.073L742.121 313.126C742.154 314.134 742.193 315.142 742.238 316.15C740.64 317.435 739.253 318.229 738.546 320.085C739.18 321.656 738.648 321.072 740.284 321.806C739.033 322.922 737.539 324.383 736.12 325.202C736.486 320.577 738.64 316.001 740.974 312.073Z"/>
<path fill="#474252" transform="scale(0.21875 0.21875)" d="M760.901 395.592L762.042 396.514C762.785 403.327 764.007 411.581 764.35 418.247L761.559 418.774C761.586 411.041 761.367 403.31 760.901 395.592Z"/></g></svg>