<?xml version="1.0" encoding="utf-8"?>
<svg xmlns="http://www.w3.org/2000/svg" xmlns:xlink="http://www.w3.org/1999/xlink" viewBox="0 0 500 441" width="500" height="441">
  <clipPath id="cl_f"><rect width="500" height="441"/></clipPath>
  <g clip-path="url(#cl_f)">
    <path fill="#1E386C" transform="matrix(3.73134 0 0 3.73729 -1179.1 -1356.64)" d="M337.018 0L686.991 0L687.027 217.662L748.24 217.414C753.811 217.532 759.383 217.545 764.955 217.453L765.046 279.995L764.998 290.662C764.898 300.516 764.906 310.371 765.022 320.225L765.109 334.407C765.052 338.958 765.045 343.51 765.085 348.062L765.102 356.771C765.035 360.713 764.834 371.916 765.391 375.546C765.267 378.847 765.118 382.147 764.945 385.447L764.905 390.628L765.114 394.085L764.98 396.756L764.994 404.205L764.939 409.273L765.049 410.446L764.947 415.992L764.774 554.5C764.748 574.663 765.345 597.202 764.809 617.129L507.581 616.94L492.732 616.929C484.892 616.159 472.436 616.523 464.357 616.567L420.146 616.662L258.003 616.635C257.814 602.63 258.168 588.569 257.978 574.474L258.174 569.61C258.715 558.146 258.374 544.904 258.384 533.287L258.377 475.702C258.61 462.763 258.408 449.307 258.375 436.33C258.914 432.64 258.507 415.579 258.468 410.896C258.572 409.425 258.515 408.179 258.473 406.715L257.84 407.31C256.777 405.921 254.901 402.78 254.86 401.02L256.603 400.27C257.098 399.085 258.177 397.47 258.885 396.319L258.648 390.043L258.94 389.505C258.633 387.297 258.911 382.413 258.96 379.852L258.731 367.061L258.547 365.753C257.642 365.234 256.742 364.706 255.847 364.168C256.065 364.534 255.915 364.367 256.333 364.635L255.18 364.695L256.145 364.561C254.452 365.253 254.479 365.772 253.504 367.835L253.16 368.073L253.002 369.987L251.452 368.472C250.81 370.374 251.088 370.738 249.777 371.513C248.517 371.312 248.077 371.192 246.848 371.535L246.714 371.159C241.189 370.428 241.519 371.462 237.165 367.388L237.713 366.115L238.334 365.535C239.018 364.418 240.216 363.04 241.139 361.551L241.527 361.68L241.631 359.272L241.362 358.034C240.807 355.128 240.399 353.886 239.207 351.222L238.461 350.133L234.666 347.1L234.327 346.375C232.397 345.822 230.933 344.33 229.452 343.011C227.367 341.78 223.319 338.962 221.645 337.29L222.616 336.394C225.208 333.558 226.485 332.069 228.682 328.94C232.816 322.093 233.477 319.595 235.097 311.731C235.873 313.501 235.495 314.146 235.05 315.93L235.734 316.797C239.803 317.222 246.26 318.6 249.791 317.584C252.252 312.858 252.786 313.786 257.592 312.274C258.026 310.479 257.359 308.925 256.271 307.472L256.426 306.984L257.515 307.572C257.799 308.575 257.99 308.979 258.454 309.898C258.686 305.549 258.612 300.871 258.559 296.506C258.238 270.323 258.932 243.953 258.314 217.791C263.768 217.17 278.976 217.542 285 217.547L336.835 217.561C337.296 192.282 336.974 166.083 336.986 140.714L337.018 0Z"/>
    <path fill="#FB7141" transform="matrix(3.73134 0 0 3.73729 -1179.1 -1356.64)" d="M360.566 388.619C369.853 387.605 375.789 390.229 383.261 395.072C392.844 389.27 402.511 385.7 413.536 390.9C420.364 394.177 425.602 400.043 428.09 407.196C433.583 422.519 425.752 439.787 409.791 444.663C397.843 448.313 389.877 439.61 379.91 434.201C379.908 437.62 379.815 441.13 379.766 444.557L367.637 444.476C367.512 433.816 367.556 423.156 367.768 412.497C379.608 417.958 392.085 427.585 403.738 431.963C418.428 432.619 421.171 416.155 414.617 406.907C412.133 403.402 408.293 401.098 404.031 400.555C401.761 400.265 397.685 400.328 395.831 401.82C395.131 404.518 395.439 412.499 395.429 415.643C388.286 412.509 372.945 401.877 366.524 400.625C347.456 396.906 340.256 429.783 363.52 432.908L363.523 444.697C330.842 444.471 326.487 395.391 360.566 388.619Z"/>
  </g>
</svg>
