<?xml version="1.0" encoding="utf-8" ?><svg xmlns="http://www.w3.org/2000/svg" xmlns:xlink="http://www.w3.org/1999/xlink" width="490" height="300" viewBox="270 315 490 300"><path fill="#EF6138" d="M515.917 534.445C514.801 536.85 512.813 539.394 511.05 541.385C441.369 620.092 311.854 576.214 305.515 470.145C303.393 438.254 314.252 406.858 335.624 383.093C354.969 361.531 386.527 345.673 415.642 344.164C438.009 343.005 464.59 349.733 483.897 361.281C491.835 366.03 499.246 372.405 506.083 378.65C510.482 382.452 513.436 386.243 517.42 390.216C524.181 380.038 536.375 369.634 546.466 362.938C584.535 337.674 637.294 338.129 675.201 363.572C701.123 380.898 719.077 407.834 725.095 438.427C736.343 496.904 706.031 553.866 650.238 575.004C616.602 587.747 573.633 582.008 544.703 561.579C535.694 555.217 522.031 543.621 515.917 534.445ZM493.015 454.519C479.545 462.297 471.336 468.243 466.882 483.919C461.034 504.501 474.135 522.364 494.124 527.27C501.509 529.082 507.391 529.103 514.937 528.596C527.357 526.863 534.936 523.546 544.848 515.673C548.472 519.404 551.823 523.186 555.574 526.991L565.652 527.03C565.339 532.714 564.847 538.271 564.57 544.055C579.655 543.785 595.402 543.999 610.53 543.991C627.717 543.901 644.905 543.943 662.091 544.119C661.603 531.367 661.562 516.294 656.294 504.542C651.109 492.976 640.625 482.716 628.649 478.317C617.666 474.3 605.53 474.853 594.958 479.853C582.701 485.518 572.946 497.09 568.342 509.652C565.591 506.471 561.874 503.044 558.858 499.862C563.942 492.207 570.353 472.327 572.809 463.116C566.734 463.676 556.604 463.323 549.956 463.473C548.701 468.457 547.017 473.324 544.922 478.018C544.488 479.119 544.574 478.895 543.908 479.883C540.381 479.091 527.286 462.067 524.534 458.378C532.288 453.722 536.838 450.593 542.912 443.959C546.994 437.917 549.288 432.389 549.415 424.959C549.579 417.154 546.547 409.621 541.021 404.106C533.77 396.845 525.16 394.988 515.326 395.043C508.167 395.312 503.098 395.878 496.503 398.976C478.545 407.413 475.524 430.566 486.284 445.803C488.398 448.797 490.784 451.597 493.015 454.519ZM416.475 385.468C398.872 386.632 385.551 401.853 386.731 419.455C387.911 437.057 403.146 450.364 420.746 449.167C438.323 447.971 451.608 432.762 450.429 415.184C449.251 397.606 434.054 384.307 416.475 385.468ZM417.052 475.713C378.486 478.778 369.076 510.496 370.036 544.078C387.232 543.878 404.429 543.85 421.625 543.994C435.5 543.911 453.857 543.391 467.458 544.07C466.85 534.722 466.829 526.799 465.115 517.476C460.684 493.375 442.08 475.66 417.052 475.713ZM607.902 385.792C590.703 388.603 578.943 404.697 581.491 421.937C584.039 439.178 599.952 451.182 617.229 448.898C628.642 447.389 638.357 439.847 642.649 429.164C646.94 418.481 645.142 406.314 637.944 397.329C630.745 388.344 619.264 383.934 607.902 385.792Z"/><path fill="#EF6138" d="M504.713 470.338C507.152 470.499 528.217 496.72 531.152 500.642C526.249 504.655 524.333 505.474 518.401 507.5C505.056 509.839 490.127 504.252 492.042 488.008C492.971 480.126 498.629 474.825 504.713 470.338Z"/><path fill="#EF6138" d="M512.379 415.08C532.422 413.699 529.289 431.186 517.291 441.365C516.656 441.791 514.559 442.878 513.796 443.297C506.371 435.089 498.858 421.694 512.379 415.08Z"/><path fill="#7A58E3" d="M517.42 390.216C524.181 380.038 536.375 369.634 546.466 362.938C584.535 337.674 637.294 338.129 675.201 363.572C701.123 380.898 719.077 407.834 725.095 438.427C736.343 496.904 706.031 553.866 650.238 575.004C616.602 587.747 573.633 582.008 544.703 561.579C535.694 555.217 522.031 543.621 515.917 534.445L514.937 528.596C527.357 526.863 534.936 523.546 544.848 515.673C548.472 519.404 551.823 523.186 555.574 526.991L565.652 527.03C565.339 532.714 564.847 538.271 564.57 544.055C579.655 543.785 595.402 543.999 610.53 543.991C627.717 543.901 644.905 543.943 662.091 544.119C661.603 531.367 661.562 516.294 656.294 504.542C651.109 492.976 640.625 482.716 628.649 478.317C617.666 474.3 605.53 474.853 594.958 479.853C582.701 485.518 572.946 497.09 568.342 509.652C565.591 506.471 561.874 503.044 558.858 499.862C563.942 492.207 570.353 472.327 572.809 463.116C566.734 463.676 556.604 463.323 549.956 463.473C548.701 468.457 547.017 473.324 544.922 478.018C544.488 479.119 544.574 478.895 543.908 479.883C540.381 479.091 527.286 462.067 524.534 458.378C532.288 453.722 536.838 450.593 542.912 443.959C546.994 437.917 549.288 432.389 549.415 424.959C549.579 417.154 546.547 409.621 541.021 404.106C533.77 396.845 525.16 394.988 515.326 395.043C515.639 387.371 507.114 385.049 506.083 378.65C510.482 382.452 513.436 386.243 517.42 390.216ZM617.229 448.898C628.642 447.389 638.357 439.847 642.649 429.164C646.94 418.481 645.142 406.314 637.944 397.329C630.745 388.344 619.264 383.934 607.902 385.792C590.703 388.603 578.943 404.697 581.491 421.937C584.039 439.178 599.952 451.182 617.229 448.898Z"/><path fill="#EF6138" d="M542.912 443.959C545.405 450.93 545.246 461.87 544.978 469.239C544.886 471.758 544.521 475.684 544.922 478.018C544.488 479.119 544.574 478.895 543.908 479.883C540.381 479.091 527.286 462.067 524.534 458.378C532.288 453.722 536.838 450.593 542.912 443.959Z"/></svg>